<?xml version="1.0" encoding="UTF-8" standalone="no"?>
<!DOCTYPE svg  PUBLIC '-//W3C//DTD SVG 1.1//EN'  'http://www.w3.org/Graphics/SVG/1.1/DTD/svg11.dtd'>
<svg xmlns="http://www.w3.org/2000/svg">
<defs>
<font id="ProximaNovaCond-Semibold" horiz-adv-x="485">
<font-face underline-position="-113" font-weight="600" descent="-200" panose-1="2 0 5 6 3 0 0 2 0 4" units-per-em="1000" unicode-range="U+0020-2666" bbox="-136 -199 954 880" x-height="483" underline-thickness="20" font-family="ProximaNovaCond" ascent="800" cap-height="667"/>
<missing-glyph horiz-adv-x="1000"/>
<glyph glyph-name=".notdef" horiz-adv-x="1000"/>
<glyph glyph-name=".null" horiz-adv-x="0"/>
<glyph glyph-name=".null" horiz-adv-x="0"/>
<glyph glyph-name="nonmarkingreturn" horiz-adv-x="333"/>
<glyph glyph-name="space" horiz-adv-x="212" unicode=" "/>
<glyph glyph-name="exclam" horiz-adv-x="242" unicode="!" d="M121 -11q-27 0 -47 20.5t-20 47.5t19.5 47t47.5 20t47.5 -20t19.5 -47t-20 -47.5t-47 -20.5zM164 201h-85l-19 466h122z"/>
<glyph glyph-name="quotedbl" horiz-adv-x="373" unicode='&quot;' d="M290 395h-45q-34 209 -34 226q0 23 16.5 39.5t40.5 16.5q23 0 39.5 -16.5t16.5 -39.5zM129 395h-46q-34 209 -34 226q0 23 17 39.5t40 16.5t39.5 -16.5t16.5 -39.5z"/>
<glyph glyph-name="numbersign" horiz-adv-x="524" unicode="#" d="M277 242l52 183h-83l-51 -183h82zM285 0h-76l51 176h-85l-49 -176h-76l49 176h-81l18 66h83l51 183h-83l17 65h85l50 177h76l-50 -177h84l49 177h76l-50 -177h82l-16 -65h-85l-51 -183h85l-17 -66h-87z"/>
<glyph glyph-name="dollar" horiz-adv-x="487" unicode="$" d="M159 498q0 -42 54 -72v147q-54 -20 -54 -75zM345 175q0 47 -55 81v-161q55 23 55 80zM213 -100v89q-116 9 -187 84l56 86q53 -60 131 -70v204q-38 17 -61 30.5t-51 36.5t-41.5 56t-13.5 76q0 70 45.5 120.5t121.5 62.5v93h77v-92q92 -10 155 -70l-54 -84q-42 42 -101 53 v-186q37 -17 61 -31.5t51.5 -38.5t41.5 -58t14 -77q0 -75 -43.5 -127.5t-124.5 -64.5v-92h-77z"/>
<glyph glyph-name="percent" horiz-adv-x="663" unicode="%" d="M491 52q34 0 54.5 28t20.5 72q0 46 -20.5 74.5t-54.5 28.5t-54 -28.5t-20 -74.5q0 -45 20 -72.5t54 -27.5zM172 410q33 0 53.5 28t20.5 73q0 46 -20 74t-54 28t-54 -28t-20 -74q0 -45 20.5 -73t53.5 -28zM491 -12q-65 0 -105 46.5t-40 117.5q0 72 40 119.5t105 47.5 t105.5 -47.5t40.5 -119.5q0 -71 -40.5 -117.5t-105.5 -46.5zM185 0h-56l351 667h57zM172 347q-65 0 -105.5 46.5t-40.5 117.5q0 72 40.5 119t105.5 47t105.5 -47t40.5 -119q0 -71 -40.5 -117.5t-105.5 -46.5z"/>
<glyph glyph-name="ampersand" horiz-adv-x="535" unicode="&amp;" d="M205 515q0 -38 25 -95q41 27 63 53.5t22 63.5q0 32 -14.5 49t-36.5 17q-27 0 -43 -23t-16 -65zM224 68q48 0 91 50q-50 65 -68 93q-37 54 -57 89q-56 -51 -56 -119q0 -51 26 -82t64 -31zM527 0h-119q-36 44 -44 55q-69 -67 -156 -67q-78 0 -128 49t-50 137q0 69 32 113.5 t90 83.5q-42 86 -42 145q0 70 43 115.5t109 45.5q59 0 99.5 -38t40.5 -98q0 -35 -10.5 -63.5t-33.5 -52t-41.5 -37t-51.5 -35.5q22 -38 52 -80q28 -42 50 -73q29 58 49 134l81 -37q-32 -97 -75 -168q33 -43 105 -129z"/>
<glyph glyph-name="quotesingle" horiz-adv-x="211" unicode="&apos;" d="M129 395h-46q-34 209 -34 226q0 23 17 39.5t40 16.5t39.5 -16.5t16.5 -39.5z"/>
<glyph glyph-name="parenleft" horiz-adv-x="257" unicode="(" d="M238 -159l-67 -40q-126 197 -126 442q0 244 126 442l67 -39q-85 -195 -85 -403t85 -402z"/>
<glyph glyph-name="parenright" horiz-adv-x="257" unicode=")" d="M85 -199l-66 40q85 194 85 402t-85 403l66 39q127 -198 127 -442q0 -246 -127 -442z"/>
<glyph glyph-name="asterisk" horiz-adv-x="330" unicode="*" d="M192 379h-54l5 112l-94 -61l-27 47l100 51l-100 51l27 46l94 -60l-5 112h54l-6 -112l95 60l27 -46l-100 -51l100 -51l-27 -47l-95 61z"/>
<glyph glyph-name="plus" horiz-adv-x="442" unicode="+" d="M413 305h-157v-178h-70v178h-157v65h157v171h70v-171h157v-65z"/>
<glyph glyph-name="comma" horiz-adv-x="242" unicode="," d="M194 35q0 -50 -25 -94t-67 -73l-45 37q25 15 45.5 42t25.5 52q-6 -2 -16 -2q-25 0 -41.5 17t-16.5 44t19 46.5t46 19.5q31 0 53 -24t22 -65z"/>
<glyph glyph-name="hyphen" horiz-adv-x="269" unicode="-" d="M239 199h-209v86h209v-86z"/>
<glyph glyph-name="period" horiz-adv-x="242" unicode="." d="M121 -11q-27 0 -47 20t-20 48q0 27 20 47t47 20q28 0 47.5 -20t19.5 -47q0 -28 -19.5 -48t-47.5 -20z"/>
<glyph glyph-name="slash" horiz-adv-x="266" unicode="/" d="M74 -20h-74l192 707h74z"/>
<glyph glyph-name="zero" horiz-adv-x="526" unicode="0" d="M263 87q112 0 112 246t-112 246q-111 0 -111 -246t111 -246zM263 -12q-58 0 -102.5 30t-70 80.5t-38.5 110t-13 124.5t13 124.5t38.5 109.5t70 80t102.5 30q77 0 129.5 -52.5t74 -127.5t21.5 -164t-21.5 -164t-74 -128t-129.5 -53z"/>
<glyph glyph-name="one" horiz-adv-x="352" unicode="1" d="M288 0h-110v523l-102 -107l-65 68l181 183h96v-667z"/>
<glyph glyph-name="two" horiz-adv-x="507" unicode="2" d="M458 0h-410v90q189 197 241.5 265t52.5 128q0 44 -28 70t-68 26q-88 0 -142 -79l-68 69q77 108 211 108q90 0 149 -52.5t59 -140.5q0 -74 -52.5 -152.5t-192.5 -233.5h248v-98z"/>
<glyph glyph-name="three" horiz-adv-x="496" unicode="3" d="M240 -12q-73 0 -129 30.5t-87 78.5l68 69q55 -79 143 -79q55 0 82.5 28t27.5 77q0 100 -116 100q-49 0 -58 -2v100q10 -1 56 -1q49 0 79 23.5t30 68.5q0 48 -28.5 73t-75.5 25q-80 0 -134 -72l-65 64q72 106 207 106q94 0 150 -46.5t56 -132.5q0 -57 -36 -99.5t-87 -53.5 q52 -8 92 -52.5t40 -110.5q0 -86 -58 -140t-157 -54z"/>
<glyph glyph-name="four" horiz-adv-x="492" unicode="4" d="M290 252v300l-168 -300h168zM400 0h-110v155h-268v93l236 419h142v-415h70v-97h-70v-155z"/>
<glyph glyph-name="five" horiz-adv-x="512" unicode="5" d="M256 -12q-139 0 -212 107l69 70q53 -78 140 -78q49 0 79 35.5t30 86.5q0 58 -27.5 90.5t-76.5 32.5q-66 0 -114 -58l-81 23v370h374v-97h-263v-198q44 56 122 56q77 0 127.5 -57.5t50.5 -158.5q0 -99 -60 -161.5t-158 -62.5z"/>
<glyph glyph-name="six" horiz-adv-x="511" unicode="6" d="M264 87q48 0 74 36t26 84q0 63 -29 93.5t-73 30.5q-34 0 -62.5 -23.5t-47.5 -59.5q2 -39 11.5 -72.5t35.5 -61t65 -27.5zM270 -12q-62 0 -107.5 28t-72 77t-39 109t-12.5 131q0 150 64 247t185 97q105 0 164 -77l-56 -81q-41 60 -107 60q-65 0 -101.5 -67.5t-36.5 -160.5 v-15q19 37 58.5 63.5t85.5 26.5q78 0 130 -56.5t52 -158.5q0 -94 -57 -158.5t-150 -64.5z"/>
<glyph glyph-name="seven" horiz-adv-x="448" unicode="7" d="M217 0h-119l204 570h-279v97h404v-76z"/>
<glyph glyph-name="eight" horiz-adv-x="507" unicode="8" d="M254 87q45 0 75 25.5t30 70.5q0 49 -37 80.5t-68 35.5q-31 -4 -68 -35.5t-37 -80.5q0 -45 29.5 -70.5t75.5 -25.5zM254 385q31 7 63.5 32.5t32.5 69.5q0 42 -26.5 67t-69.5 25q-44 0 -70 -25t-26 -67q0 -44 32.5 -69.5t63.5 -32.5zM254 -12q-97 0 -156.5 48t-59.5 132 q0 60 37.5 107.5t91.5 68.5q-51 19 -85.5 60.5t-34.5 100.5q0 84 60.5 128t146.5 44q85 0 146 -44t61 -128q0 -59 -34.5 -100.5t-86.5 -60.5q54 -21 92 -68.5t38 -107.5q0 -84 -60 -132t-156 -48z"/>
<glyph glyph-name="nine" horiz-adv-x="511" unicode="9" d="M248 336q69 0 111 82q-2 40 -11.5 73t-35 61t-64.5 28q-48 0 -74.5 -36.5t-26.5 -84.5q0 -63 28.5 -93t72.5 -30zM223 -11q-105 0 -164 77l56 81q40 -59 107 -59t102.5 67t35.5 160v16q-20 -38 -59 -64.5t-85 -26.5q-78 0 -130 56.5t-52 158.5q0 94 57 158.5t150 64.5 q81 0 134.5 -49.5t75 -124t21.5 -171.5q0 -150 -64.5 -247t-184.5 -97z"/>
<glyph glyph-name="colon" horiz-adv-x="242" unicode=":" d="M121 -11q-27 0 -47 20t-20 48q0 27 20 47t47 20q28 0 47.5 -20t19.5 -47q0 -28 -19.5 -48t-47.5 -20zM121 356q-27 0 -47 20t-20 47q0 28 20 47.5t47 19.5q28 0 47.5 -19.5t19.5 -47.5q0 -27 -19.5 -47t-47.5 -20z"/>
<glyph glyph-name="semicolon" horiz-adv-x="242" unicode=";" d="M194 38q0 -50 -25 -94t-67 -73l-45 37q24 14 45 41.5t26 52.5q-9 -3 -16 -3q-25 0 -41.5 17.5t-16.5 44.5t19 46.5t46 19.5q31 0 53 -24t22 -65zM121 356q-27 0 -47 20.5t-20 46.5q0 28 20 47.5t47 19.5q28 0 47.5 -19.5t19.5 -47.5q0 -27 -20 -47t-47 -20z"/>
<glyph glyph-name="less" horiz-adv-x="442" unicode="&lt;" d="M413 124l-384 175v71l384 176v-77l-307 -135l307 -133v-77z"/>
<glyph glyph-name="equal" horiz-adv-x="442" unicode="=" d="M413 206h-384v65h384v-65zM413 397h-384v65h384v-65z"/>
<glyph glyph-name="greater" horiz-adv-x="442" unicode="&gt;" d="M413 299l-384 -175v77l307 133l-307 135v77l384 -176v-71z"/>
<glyph glyph-name="question" horiz-adv-x="389" unicode="?" d="M194 -11q-27 0 -47 20t-20 48q0 27 20 47t47 20q28 0 47.5 -20t19.5 -47q0 -28 -19.5 -48t-47.5 -20zM157 194q-30 34 -30 86q0 33 13.5 60t32.5 46t37.5 36.5t32 39t13.5 46.5q0 30 -21 51t-58 21q-58 0 -99 -51l-56 71q67 78 173 78q78 0 125.5 -42.5t47.5 -107.5 q0 -38 -15 -69.5t-36.5 -53.5t-43 -41.5t-36.5 -43t-15 -48.5q0 -28 19 -47z"/>
<glyph glyph-name="at" horiz-adv-x="702" unicode="@" d="M310 157q58 0 105 73l29 137q-18 60 -69 60q-57 0 -94.5 -59.5t-37.5 -126.5q0 -38 17.5 -61t49.5 -23zM310 -70q-123 0 -199 83.5t-76 216.5q0 162 111 285.5t258 123.5q116 0 189 -78t73 -199q0 -120 -53 -198.5t-120 -78.5q-38 0 -61 20.5t-27 52.5l-1 7 q-55 -80 -130 -80q-55 0 -89.5 38t-34.5 108q0 104 62 186t147 82q72 0 99 -70l11 54h89l-55 -259q-2 -10 -2 -24q0 -46 35 -46q30 0 60.5 56t30.5 151q0 110 -61.5 175.5t-164.5 65.5q-87 0 -163 -53t-120.5 -139t-44.5 -179q0 -116 66 -191t175 -75q83 0 164 56l19 -28 q-90 -63 -187 -63z"/>
<glyph glyph-name="A" horiz-adv-x="536" unicode="A" d="M355 230l-87 319l-87 -319h174zM533 0h-120l-36 132h-219l-36 -132h-120l199 667h133z"/>
<glyph glyph-name="B" horiz-adv-x="540" unicode="B" d="M296 98q44 0 66.5 25.5t22.5 71.5q0 42 -23 69t-66 27h-121v-193h121zM292 389q41 0 61.5 24.5t20.5 65.5t-21 66t-61 25h-117v-181h117zM324 0h-260v667h252q82 0 127 -48t45 -122q0 -61 -29.5 -100.5t-75.5 -52.5q49 -7 82.5 -54.5t33.5 -109.5q0 -81 -45 -130.5 t-130 -49.5z"/>
<glyph glyph-name="C" horiz-adv-x="547" unicode="C" d="M311 -12q-124 0 -198 96.5t-74 248.5q0 153 74 249t198 96q141 0 211 -147l-92 -41q-39 90 -119 90q-72 0 -115.5 -69t-43.5 -178q0 -108 43.5 -177t115.5 -69q42 0 72.5 27t47.5 71l92 -41q-68 -156 -212 -156z"/>
<glyph glyph-name="D" horiz-adv-x="583" unicode="D" d="M263 98q80 0 123.5 64.5t43.5 170.5q0 108 -43 172.5t-124 64.5h-88v-472h88zM263 0h-199v667h199q131 0 206 -92.5t75 -241.5t-74.5 -241t-206.5 -92z"/>
<glyph glyph-name="E" horiz-adv-x="472" unicode="E" d="M429 0h-365v667h365v-97h-254v-181h247v-98h-247v-193h254v-98z"/>
<glyph glyph-name="F" horiz-adv-x="464" unicode="F" d="M175 0h-111v667h365v-97h-254v-181h247v-98h-247v-291z"/>
<glyph glyph-name="G" horiz-adv-x="576" unicode="G" d="M311 -13q-123 0 -197.5 95.5t-74.5 250.5t74.5 250t197.5 95q143 0 212 -142l-90 -42q-42 86 -122 86q-72 0 -115.5 -67t-43.5 -180t43.5 -180t115.5 -67q69 0 111 48v124h-140v97h245v-265q-87 -103 -216 -103z"/>
<glyph glyph-name="H" horiz-adv-x="593" unicode="H" d="M530 0h-111v294h-244v-294h-111v667h111v-275h244v275h111v-667z"/>
<glyph glyph-name="I" horiz-adv-x="239" unicode="I" d="M175 0h-111v667h111v-667z"/>
<glyph glyph-name="J" horiz-adv-x="409" unicode="J" d="M150 -12q-87 0 -142 55l43 87q38 -43 89 -43q45 0 70 26t25 74v480h111v-483q0 -98 -53 -147t-143 -49z"/>
<glyph glyph-name="K" horiz-adv-x="535" unicode="K" d="M528 0h-131l-172 275l-50 -76v-199h-111v667h111v-321l207 321h130l-218 -315z"/>
<glyph glyph-name="L" horiz-adv-x="434" unicode="L" d="M406 0h-342v667h111v-569h231v-98z"/>
<glyph glyph-name="M" horiz-adv-x="713" unicode="M" d="M650 0h-110v460l-162 -460h-43l-160 460v-460h-111v667h150l143 -406l144 406h149v-667z"/>
<glyph glyph-name="N" horiz-adv-x="592" unicode="N" d="M528 0h-106l-247 431v-431h-111v667h112l241 -419v419h111v-667z"/>
<glyph glyph-name="O" horiz-adv-x="612" unicode="O" d="M306 87q72 0 113 69.5t41 176.5q0 108 -41 177.5t-113 69.5q-73 0 -113.5 -69t-40.5 -178q0 -108 40.5 -177t113.5 -69zM306 -12q-124 0 -195.5 97t-71.5 248t71.5 248t195.5 97t195.5 -97t71.5 -248t-71.5 -248t-195.5 -97z"/>
<glyph glyph-name="P" horiz-adv-x="513" unicode="P" d="M278 350q44 0 70.5 30t26.5 80t-26.5 80t-70.5 30h-103v-220h103zM175 0h-111v667h227q94 0 145.5 -59.5t51.5 -147.5q0 -89 -51.5 -148.5t-145.5 -59.5h-116v-252z"/>
<glyph glyph-name="Q" horiz-adv-x="612" unicode="Q" d="M306 87q25 0 46 9l-72 115l77 48l63 -101q40 68 40 175q0 108 -41 177.5t-113 69.5q-73 0 -113.5 -69t-40.5 -178q0 -108 40.5 -177t113.5 -69zM306 -12q-124 0 -195.5 97t-71.5 248t71.5 248t195.5 97t195.5 -97t71.5 -248q0 -175 -92 -272l31 -48l-77 -49l-28 44 q-46 -20 -101 -20z"/>
<glyph glyph-name="R" horiz-adv-x="533" unicode="R" d="M278 350q44 0 70.5 30t26.5 80t-26.5 80t-70.5 30h-103v-220h103zM494 0h-124l-113 252h-82v-252h-111v667h230q86 0 140 -57t54 -149q0 -81 -36 -128.5t-87 -61.5z"/>
<glyph glyph-name="S" horiz-adv-x="486" unicode="S" d="M237 -12q-135 0 -215 85l56 86q63 -72 159 -72q49 0 76.5 25.5t27.5 62.5t-31 63t-74.5 44.5t-87.5 40.5t-75 65t-31 104q0 80 57 133t150 53q117 0 192 -72l-54 -84q-57 57 -141 57q-41 0 -66 -22t-25 -59q0 -32 31 -56t74.5 -42.5t87.5 -41.5t75 -67.5t31 -106.5 q0 -86 -57 -141t-160 -55z"/>
<glyph glyph-name="T" horiz-adv-x="462" unicode="T" d="M286 0h-110v570h-153v97h416v-97h-153v-570z"/>
<glyph glyph-name="U" horiz-adv-x="592" unicode="U" d="M296 -12q-109 0 -170.5 62t-61.5 174v443h111v-444q0 -66 31.5 -101.5t89.5 -35.5t89.5 35.5t31.5 101.5v444h111v-443q0 -112 -61.5 -174t-170.5 -62z"/>
<glyph glyph-name="V" horiz-adv-x="536" unicode="V" d="M334 0h-133l-199 667h120l146 -536l145 536h120z"/>
<glyph glyph-name="W" horiz-adv-x="745" unicode="W" d="M584 0h-116l-96 479l-95 -479h-116l-151 667h119l96 -498l103 498h89l104 -498l95 498h119z"/>
<glyph glyph-name="X" horiz-adv-x="535" unicode="X" d="M533 0h-128l-138 254l-137 -254h-128l197 341l-185 326h127l126 -240l126 240h128l-185 -325z"/>
<glyph glyph-name="Y" horiz-adv-x="521" unicode="Y" d="M316 0h-110v278l-207 389h123l139 -285l139 285h122l-206 -389v-278z"/>
<glyph glyph-name="Z" horiz-adv-x="475" unicode="Z" d="M437 0h-399v92l258 478h-258v97h392v-90l-259 -479h266v-98z"/>
<glyph glyph-name="bracketleft" horiz-adv-x="230" unicode="[" d="M212 -190h-172v868h172v-69h-99v-730h99v-69z"/>
<glyph glyph-name="backslash" horiz-adv-x="266" unicode="\" d="M193 -20l-192 707h73l192 -707h-73z"/>
<glyph glyph-name="bracketright" horiz-adv-x="230" unicode="]" d="M190 -190h-173v69h99v730h-99v69h173v-868z"/>
<glyph glyph-name="asciicircum" horiz-adv-x="386" unicode="^" d="M367 333h-75l-99 259l-99 -259h-75l137 334h74z"/>
<glyph glyph-name="underscore" horiz-adv-x="422" unicode="_" d="M425 -109h-428v69h428v-69z"/>
<glyph glyph-name="grave" horiz-adv-x="202" unicode="`" d="M202 556h-68l-134 144h93z"/>
<glyph glyph-name="a" horiz-adv-x="467" unicode="a" d="M218 57q60 0 91 53v73q-14 25 -39 39.5t-52 14.5q-38 0 -61 -25t-23 -65t23 -65t61 -25zM408 0h-99v49q-44 -61 -127 -61q-62 0 -105 43.5t-43 117.5t43 115.5t105 41.5q85 0 127 -58v70q0 44 -24.5 68t-69.5 24q-66 0 -120 -55l-39 70q70 70 177 70q80 0 127.5 -40.5 t47.5 -124.5v-330z"/>
<glyph glyph-name="b" horiz-adv-x="494" unicode="b" d="M159 0h-100v667h100v-249q43 77 124 77t128.5 -69.5t47.5 -184.5q0 -116 -47.5 -184.5t-128.5 -68.5q-78 0 -124 76v-64zM159 142q13 -28 39.5 -47t54.5 -19q50 0 76.5 46t26.5 119q0 74 -26.5 120t-76.5 46q-28 0 -54.5 -19.5t-39.5 -47.5v-198z"/>
<glyph glyph-name="c" horiz-adv-x="415" unicode="c" d="M247 -12q-95 0 -153.5 71.5t-58.5 182.5t58 182t154 71q95 0 147 -65l-51 -68q-35 45 -86 45q-55 0 -87 -47t-32 -118q0 -72 32 -119t87 -47q50 0 86 45l51 -68q-52 -65 -147 -65z"/>
<glyph glyph-name="d" horiz-adv-x="494" unicode="d" d="M241 76q28 0 54.5 19t39.5 47v199q-13 28 -39.5 47t-54.5 19q-50 0 -76.5 -46t-26.5 -120q0 -72 26.5 -118.5t76.5 -46.5zM435 0h-100v64q-22 -36 -55 -56t-69 -20q-81 0 -128.5 68.5t-47.5 184.5t47.5 185t128.5 69t124 -77v249h100v-667z"/>
<glyph glyph-name="e" horiz-adv-x="474" unicode="e" d="M346 280q-1 53 -26.5 93.5t-78.5 40.5q-51 0 -77 -41t-29 -93h211zM252 -12q-99 0 -158 70t-59 184q0 108 56.5 180.5t150.5 72.5q95 0 148 -72t53 -185v-29h-307q3 -62 36 -100.5t90 -38.5q65 0 109 52l48 -60q-65 -74 -167 -74z"/>
<glyph glyph-name="f" horiz-adv-x="274" unicode="f" d="M179 0h-100v396h-63v87h63v45q0 70 36.5 109.5t99.5 39.5q62 0 97 -34l-34 -70q-20 20 -45 20q-54 0 -54 -65v-45h80v-87h-80v-396z"/>
<glyph glyph-name="g" horiz-adv-x="493" unicode="g" d="M241 88q28 0 54.5 19t39.5 47v187q-13 28 -39.5 47t-54.5 19q-50 0 -76.5 -44t-26.5 -116t26.5 -115.5t76.5 -43.5zM226 -196q-106 0 -171 61l41 77q50 -54 125 -54q49 0 81.5 29.5t32.5 91.5v69q-22 -37 -55 -58t-69 -21q-81 0 -128.5 66t-47.5 182q0 115 47 181.5 t129 66.5q80 0 124 -77v65h99v-466q0 -115 -59 -164t-149 -49z"/>
<glyph glyph-name="h" d="M426 0h-99v331q0 76 -70 76q-30 0 -56 -19.5t-42 -47.5v-340h-100v667h100v-249q21 32 59.5 54.5t81.5 22.5q126 0 126 -130v-365z" unicode="h"/>
<glyph glyph-name="i" horiz-adv-x="218" unicode="i" d="M159 0h-100v483h100v-483zM109 544q-26 0 -44.5 18.5t-18.5 43.5q0 26 18.5 44.5t44.5 18.5t44 -18.5t18 -44.5t-18.5 -44t-43.5 -18z"/>
<glyph glyph-name="j" horiz-adv-x="218" unicode="j" d="M19 -196q-53 0 -87 31l28 75q20 -22 47 -22q52 0 52 71v524h100v-524q0 -155 -140 -155zM109 544q-26 0 -44.5 18.5t-18.5 43.5q0 26 18.5 44.5t44.5 18.5t44 -18.5t18 -44.5t-18.5 -44t-43.5 -18z"/>
<glyph glyph-name="k" horiz-adv-x="456" unicode="k" d="M448 0h-117l-114 202l-58 -78v-124h-100v667h100v-421l170 237h116l-160 -217z"/>
<glyph glyph-name="l" horiz-adv-x="218" unicode="l" d="M159 0h-100v667h100v-667z"/>
<glyph glyph-name="m" horiz-adv-x="722" unicode="m" d="M663 0h-100v336q0 71 -60 71q-28 0 -53.5 -20t-38.5 -47v-340h-100v336q0 71 -60 71q-28 0 -53 -20t-39 -47v-340h-100v483h100v-65q16 29 54 53t80 24q46 0 75.5 -22t37.5 -63q18 34 57 59.5t82 25.5q118 0 118 -127v-368z"/>
<glyph glyph-name="n" d="M426 0h-100v329q0 78 -69 78q-30 0 -56.5 -19.5t-41.5 -47.5v-340h-100v483h100v-65q21 32 59.5 54.5t80.5 22.5q127 0 127 -131v-364z" unicode="n"/>
<glyph glyph-name="o" horiz-adv-x="488" unicode="o" d="M244 76q52 0 79 48t27 118t-27 117.5t-79 47.5t-79 -47.5t-27 -117.5t27 -118t79 -48zM244 -12q-98 0 -153.5 73t-55.5 181t55 180.5t154 72.5t154 -72.5t55 -180.5t-55.5 -181t-153.5 -73z"/>
<glyph glyph-name="p" horiz-adv-x="492" unicode="p" d="M253 76q50 0 76.5 46.5t26.5 119.5t-26.5 119t-76.5 46q-28 0 -54.5 -19t-39.5 -47v-198q13 -28 39.5 -47.5t54.5 -19.5zM283 -12q-81 0 -124 77v-249h-100v667h100v-64q21 36 54 56t70 20q82 0 129 -68t47 -185q0 -116 -47.5 -185t-128.5 -69z"/>
<glyph glyph-name="q" horiz-adv-x="492" unicode="q" d="M210 -12q-81 0 -128.5 69t-47.5 185q0 117 47 185t129 68q36 0 69 -20t55 -56v64h99v-667h-99v249q-44 -77 -124 -77zM240 76q28 0 54.5 19.5t39.5 47.5v198q-13 28 -39.5 47t-54.5 19q-50 0 -76.5 -46t-26.5 -119t26.5 -119.5t76.5 -46.5z"/>
<glyph glyph-name="r" horiz-adv-x="308" unicode="r" d="M159 0h-100v483h100v-71q22 36 58 59t75 23v-99q-12 3 -26 3q-30 0 -61 -19.5t-46 -47.5v-331z"/>
<glyph glyph-name="s" horiz-adv-x="401" unicode="s" d="M198 -12q-113 0 -177 69l45 70q23 -25 58.5 -42.5t71.5 -17.5q37 0 58.5 17t21.5 46q0 25 -24.5 42t-60 29t-70.5 27.5t-59.5 48t-24.5 80.5q0 59 44.5 98.5t121.5 39.5q95 0 159 -62l-42 -68q-42 51 -115 51q-33 0 -53.5 -16t-20.5 -40q0 -20 18 -34.5t44.5 -22.5 t57.5 -21.5t57.5 -29.5t44.5 -47t18 -73q0 -63 -47.5 -103.5t-125.5 -40.5z"/>
<glyph glyph-name="t" horiz-adv-x="283" unicode="t" d="M189 -12q-112 0 -112 120v288h-63v87h63v132h100v-132h80v-87h-80v-267q0 -53 37 -53q26 0 38 16l24 -75q-29 -29 -87 -29z"/>
<glyph glyph-name="u" d="M426 0h-100v64q-22 -32 -59.5 -54t-81.5 -22q-126 0 -126 130v365h100v-330q0 -77 69 -77q30 0 56.5 19t41.5 47v341h100v-483z" unicode="u"/>
<glyph glyph-name="v" horiz-adv-x="430" unicode="v" d="M269 0h-108l-159 483h106l107 -364l108 364h106z"/>
<glyph glyph-name="w" horiz-adv-x="667" unicode="w" d="M531 0h-104l-93 355l-94 -355h-104l-129 483h103l84 -352l92 352h92l94 -352l85 352h103z"/>
<glyph glyph-name="x" horiz-adv-x="424" unicode="x" d="M418 0h-109l-97 176l-97 -176h-109l144 246l-136 237h109l89 -166l89 166h109l-136 -237z"/>
<glyph glyph-name="y" horiz-adv-x="430" unicode="y" d="M42 -189l15 88q13 -7 32 -7q40 0 55 40l20 58l-162 493h106l107 -363l108 363h106l-191 -574q-19 -58 -53.5 -81.5t-88.5 -23.5q-31 0 -54 7z"/>
<glyph glyph-name="z" horiz-adv-x="399" unicode="z" d="M360 0h-322v76l193 320h-193v87h318v-73l-193 -323h197v-87z"/>
<glyph glyph-name="braceleft" horiz-adv-x="244" unicode="{" d="M227 -190h-45q-50 0 -87.5 36t-37.5 94v206q0 29 -13.5 48.5t-38.5 19.5v60q25 0 38.5 19.5t13.5 48.5v205q0 58 37.5 94.5t87.5 36.5h45v-69h-45q-21 0 -36 -17.5t-15 -44.5v-214q0 -69 -46 -89q46 -20 46 -89v-215q0 -27 15 -44.5t36 -17.5h45v-68z"/>
<glyph glyph-name="bar" horiz-adv-x="197" unicode="|" d="M133 -20h-69v707h69v-707z"/>
<glyph glyph-name="braceright" horiz-adv-x="244" unicode="}" d="M17 -190v68h45q21 0 36.5 17.5t15.5 44.5v215q0 70 45 89q-45 19 -45 89v214q0 27 -15 44.5t-37 17.5h-45v69h45q51 0 88.5 -36.5t37.5 -94.5v-205q0 -29 13.5 -48.5t38.5 -19.5v-60q-25 0 -38.5 -19.5t-13.5 -48.5v-206q0 -58 -37.5 -94t-88.5 -36h-45z"/>
<glyph glyph-name="asciitilde" horiz-adv-x="457" unicode="~" d="M360 667l70 -7q-3 -49 -9 -85.5t-19.5 -75.5t-39 -60t-62.5 -21q-39 0 -62.5 29t-30.5 63t-19 63t-31 29q-27 0 -39.5 -44.5t-20.5 -140.5l-70 8q4 49 10 85t19.5 75t39 60t61.5 21q39 0 62.5 -29t31 -63t19.5 -63t30 -29q27 0 40 44.5t20 140.5z"/>
<glyph glyph-name="nbspace" horiz-adv-x="212" unicode=" "/>
<glyph glyph-name="exclamdown" horiz-adv-x="242" unicode="¡" d="M54 427q0 27 20 46.5t47 19.5q28 0 48 -19.5t20 -46.5q0 -28 -20 -47.5t-48 -19.5q-27 0 -47 19.5t-20 47.5zM61 -184l18 466h85l19 -466h-122z"/>
<glyph glyph-name="cent" horiz-adv-x="415" unicode="¢" d="M138 242q0 -55 19 -96.5t54 -59.5v310q-35 -17 -54 -58.5t-19 -95.5zM211 -100v91q-81 13 -128.5 82t-47.5 169t47.5 168.5t128.5 81.5v73h74v-73q66 -10 109 -62l-51 -68q-25 32 -58 41v-324q32 9 58 42l51 -68q-43 -52 -109 -62v-91h-74z"/>
<glyph glyph-name="sterling" horiz-adv-x="471" unicode="£" d="M26 271v67h69q-48 73 -48 140q0 84 61 141.5t144 57.5q68 0 116.5 -31t69.5 -89l-88 -46q-11 34 -34 54.5t-55 20.5q-40 0 -67.5 -30t-27.5 -80q0 -18 2.5 -33.5t9.5 -31.5l10.5 -24t15 -26.5t13.5 -22.5h111v-67h-86q3 -16 3 -34q0 -36 -18.5 -71t-46.5 -56q20 8 44 8 q28 0 62 -16t56 -16q51 0 78 35l39 -87q-40 -47 -124 -47q-42 0 -85.5 22t-68.5 22q-41 0 -99 -38l-37 78q46 25 73.5 62.5t27.5 77.5q0 27 -13 60h-107z"/>
<glyph glyph-name="currency" horiz-adv-x="516" unicode="¤" d="M258 182q53 0 82 43.5t29 107.5q0 63 -29 106.5t-82 43.5t-81.5 -43.5t-28.5 -106.5q0 -64 28.5 -107.5t81.5 -43.5zM258 93q-67 0 -115 34l-70 -70l-60 59l73 72q-37 61 -37 145q0 85 37 146l-73 73l60 60l71 -72q50 32 114 32q65 0 113 -32l72 72l60 -60l-73 -74 q37 -63 37 -145q0 -84 -38 -146l74 -72l-60 -60l-71 71q-49 -33 -114 -33z"/>
<glyph glyph-name="yen" horiz-adv-x="521" unicode="¥" d="M316 0h-110v119h-183v65h183v94h-183v65h148l-172 324h123l139 -285l139 285h122l-172 -324h148v-65h-182v-94h182v-65h-182v-119z"/>
<glyph glyph-name="brokenbar" horiz-adv-x="197" unicode="¦" d="M133 371h-69v316h69v-316zM133 -20h-69v316h69v-316z"/>
<glyph glyph-name="section" horiz-adv-x="404" unicode="§" d="M278 296q0 58 -73 87q-76 -18 -76 -75q0 -31 22.5 -50t69.5 -39q57 26 57 77zM371 315q0 -84 -79 -124q79 -45 79 -127q0 -64 -48.5 -104.5t-124.5 -40.5q-108 0 -176 70l44 65q56 -63 128 -63q37 0 59.5 19t22.5 49q0 28 -24.5 47t-60 32t-70.5 29t-59.5 47.5 t-24.5 78.5q0 43 26.5 75t66.5 45q-93 47 -93 131q0 58 45.5 95.5t116.5 37.5q103 0 162 -63l-41 -60q-46 52 -114 52q-34 0 -54.5 -17t-20.5 -44q0 -26 24.5 -43.5t60 -30t71 -28t60 -48t24.5 -80.5z"/>
<glyph glyph-name="dieresis" horiz-adv-x="279" unicode="¨" d="M105 607q0 -23 -16.5 -39.5t-39.5 -16.5t-40 16.5t-17 39.5t17 39.5t40 16.5t39.5 -16.5t16.5 -39.5zM287 607q0 -23 -17 -39.5t-40 -16.5t-39.5 16.5t-16.5 39.5t16.5 39.5t39.5 16.5t40 -16.5t17 -39.5z"/>
<glyph glyph-name="copyright" horiz-adv-x="778" unicode="©" d="M512 216l29 -27q-57 -67 -148 -67q-87 0 -147.5 61.5t-60.5 151.5q0 91 60.5 151.5t147.5 60.5q91 0 147 -66l-28 -28q-20 26 -52 42t-67 16q-69 0 -118 -49.5t-49 -126.5q0 -75 49.5 -126t117.5 -51q76 0 119 58zM701 334q0 128 -92 220t-220 92t-219.5 -92t-91.5 -220 t91.5 -219.5t219.5 -91.5t220 91.5t92 219.5zM734 334q0 -143 -101 -244t-244 -101t-244 101.5t-101 243.5q0 143 101 244t244 101t244 -101t101 -244z"/>
<glyph glyph-name="ordfeminine" horiz-adv-x="337" unicode="ª" d="M156 366q40 0 60 33v47q-19 33 -60 33q-24 0 -39 -15.5t-15 -40.5t15 -41t39 -16zM289 326h-73v33q-30 -41 -87 -41q-41 0 -70.5 28t-29.5 76t29 75t71 27q58 0 87 -38v45q0 29 -17 44.5t-46 15.5q-45 0 -81 -39l-29 48q49 48 123 48q123 0 123 -116v-206z"/>
<glyph glyph-name="guillemotleft" horiz-adv-x="424" unicode="«" d="M242 63h-87l-125 180l125 177h87l-125 -177zM394 63h-87l-125 180l125 177h87l-125 -177z"/>
<glyph glyph-name="logicalnot" horiz-adv-x="446" unicode="¬" d="M413 462v-256h-68v191h-316v65h384z"/>
<glyph glyph-name="uni00AD" horiz-adv-x="269" unicode="­" d="M239 199h-209v86h209v-86z"/>
<glyph glyph-name="registered" horiz-adv-x="494" unicode="®" d="M309 512q0 19 -13.5 32t-30.5 13h-66v-88h66q17 0 30.5 12.5t13.5 30.5zM346 343h-41l-63 96h-43v-96h-33v243h99q32 0 55 -20.5t23 -53.5q0 -35 -22.5 -53.5t-39.5 -18.5zM429 465q0 76 -53 129t-129 53t-129 -53t-53 -129q0 -75 53 -128.5t129 -53.5t129 53.5t53 128.5 zM459 465q0 -88 -62 -150t-150 -62t-150 62t-62 150t62 150t150 62q89 0 150.5 -61.5t61.5 -150.5z"/>
<glyph glyph-name="macron" horiz-adv-x="309" unicode="¯" d="M309 567h-309v60h309v-60z"/>
<glyph glyph-name="degree" horiz-adv-x="300" unicode="°" d="M220 549q0 29 -21 49.5t-50 20.5q-28 0 -48.5 -20.5t-20.5 -49.5t20 -49.5t49 -20.5t50 20.5t21 49.5zM278 549q0 -53 -38 -90.5t-91 -37.5t-90 37.5t-37 90.5t37.5 90.5t89.5 37.5q53 0 91 -37.5t38 -90.5z"/>
<glyph glyph-name="plusminus" horiz-adv-x="442" unicode="±" d="M413 17h-384v65h384v-65zM413 316h-157v-179h-70v179h-157v64h157v172h70v-172h157v-64z"/>
<glyph glyph-name="twosuperior" horiz-adv-x="337" unicode="²" d="M307 421h-268v57q117 106 153 149t36 80q0 27 -18 42.5t-45 15.5q-59 0 -90 -50l-44 47q50 65 137 65q60 0 98 -30.5t38 -85.5q0 -46 -35.5 -93.5t-125.5 -134.5h164v-62z"/>
<glyph glyph-name="threesuperior" horiz-adv-x="337" unicode="³" d="M308 531q0 -52 -38 -84.5t-103 -32.5q-96 0 -140 65l44 47q37 -50 93 -50q33 0 50.5 16t17.5 44q0 59 -76 59q-30 0 -36 -1v62q7 -1 34 -1q72 0 72 55q0 27 -17.5 41t-47.5 14q-51 0 -87 -45l-43 44q50 63 136 63q62 0 98.5 -28.5t36.5 -79.5q0 -35 -23 -60.5t-55 -30.5 q32 -4 58 -30.5t26 -66.5z"/>
<glyph glyph-name="acute" horiz-adv-x="202" unicode="´" d="M202 700l-134 -144h-68l110 144h92z"/>
<glyph glyph-name="mu" horiz-adv-x="497" unicode="µ" d="M159 14v-198h-100v667h100v-330q0 -78 70 -78q30 0 55.5 19.5t41.5 47.5v341h100v-360q0 -47 35 -47q7 0 17 2l7 -84q-16 -6 -47 -6q-91 0 -108 86q-18 -38 -47.5 -62t-63.5 -24q-43 0 -60 26z"/>
<glyph glyph-name="paragraph" horiz-adv-x="449" unicode="¶" d="M390 -100h-54v714h-84v-714h-53v423q-71 0 -121.5 50.5t-50.5 121.5t50.5 121.5t121.5 50.5h191v-767z"/>
<glyph glyph-name="periodcentered" horiz-adv-x="242" unicode="·" d="M188 245q0 -27 -19.5 -47t-47.5 -20t-47.5 20t-19.5 47t19.5 47t47.5 20t47.5 -20t19.5 -47z"/>
<glyph glyph-name="cedilla" horiz-adv-x="195" unicode="¸" d="M94 -194q-55 0 -94 31l21 44q34 -28 71 -28q21 0 35.5 10t14.5 27q0 30 -30 30q-18 0 -30 -14l-39 22l31 83h53l-26 -65q14 11 32 11q27 0 44.5 -19t17.5 -49q0 -37 -29 -60t-72 -23z"/>
<glyph glyph-name="onesuperior" horiz-adv-x="248" unicode="¹" d="M194 421h-77v301l-62 -64l-44 46l117 117h66v-400z"/>
<glyph glyph-name="ordmasculine" horiz-adv-x="353" unicode="º" d="M176 378q34 0 52 29t18 76t-17.5 75.5t-52.5 28.5q-34 0 -51.5 -29t-17.5 -75q0 -47 17.5 -76t51.5 -29zM176 318q-67 0 -106 48t-39 117q0 70 39 117.5t106 47.5q68 0 107 -47.5t39 -117.5t-39 -117.5t-107 -47.5z"/>
<glyph glyph-name="guillemotright" horiz-adv-x="424" unicode="»" d="M394 243l-125 -180h-87l125 180l-125 177h87zM242 243l-125 -180h-87l125 180l-125 177h87z"/>
<glyph glyph-name="onequarter" horiz-adv-x="712" unicode="¼" d="M544 667l-352 -667h-57l352 667h57zM569 155v170l-100 -170h100zM690 94h-45v-94h-76v94h-171v57l147 249h100v-245h45v-61zM194 267h-77v301l-62 -64l-44 46l117 117h66v-400z"/>
<glyph glyph-name="onehalf" horiz-adv-x="746" unicode="½" d="M544 667l-352 -667h-57l352 667h57zM716 0h-268v57q117 106 153 149t36 80q0 27 -18 42.5t-45 15.5q-59 0 -90 -50l-44 47q50 65 137 65q60 0 98 -30.5t38 -85.5q0 -46 -35.5 -93.5t-125.5 -134.5h164v-62zM194 267h-77v301l-62 -64l-44 46l117 117h66v-400z"/>
<glyph glyph-name="threequarters" horiz-adv-x="778" unicode="¾" d="M308 377q0 -52 -38 -84.5t-103 -32.5q-96 0 -140 65l44 47q37 -50 93 -50q33 0 50.5 16t17.5 44q0 59 -76 59q-30 0 -36 -1v62q7 -1 34 -1q72 0 72 55q0 27 -17.5 41t-47.5 14q-51 0 -87 -45l-43 44q50 63 136 63q62 0 98.5 -28.5t36.5 -79.5q0 -35 -23 -60.5t-55 -30.5 q32 -4 58 -30.5t26 -66.5zM610 667l-352 -667h-57l352 667h57zM636 155v170l-100 -170h100zM757 94h-45v-94h-76v94h-171v57l147 249h100v-245h45v-61z"/>
<glyph glyph-name="questiondown" horiz-adv-x="338" unicode="¿" d="M195 493q28 0 48 -19.5t20 -47.5q0 -27 -20 -46.5t-48 -19.5q-27 0 -47 19.5t-20 46.5q0 28 20 47.5t47 19.5zM232 287q31 -34 31 -85q0 -33 -13.5 -60t-32.5 -46t-38 -36.5t-32.5 -39.5t-13.5 -47q0 -30 21 -51t58 -21q59 0 100 51l55 -71q-66 -77 -172 -77 q-79 0 -126 42t-47 107q0 46 23 84.5t50 60.5t50 51.5t23 60.5q0 27 -20 47z"/>
<glyph glyph-name="Agrave" horiz-adv-x="536" unicode="À" d="M319 723h-68l-134 144h93zM355 230l-87 319l-87 -319h174zM533 0h-120l-36 132h-219l-36 -132h-120l199 667h133z"/>
<glyph glyph-name="Aacute" horiz-adv-x="536" unicode="Á" d="M419 867l-134 -144h-68l110 144h92zM355 230l-87 319l-87 -319h174zM533 0h-120l-36 132h-219l-36 -132h-120l199 667h133z"/>
<glyph glyph-name="Acircumflex" horiz-adv-x="536" unicode="Â" d="M355 230l-87 319l-87 -319h174zM533 0h-120l-36 132h-219l-36 -132h-120l199 667h133zM394 723h-60l-67 97l-64 -97h-60l79 144h91z"/>
<glyph glyph-name="Atilde" horiz-adv-x="536" unicode="Ã" d="M318 721q-21 0 -37.5 12.5t-24.5 28t-19 28t-22 12.5q-15 0 -24.5 -19t-9.5 -56h-54q0 61 24 97.5t68 36.5q21 0 37 -12.5t24.5 -27.5t19.5 -27.5t22 -12.5q33 0 33 74h54q0 -61 -23.5 -97.5t-67.5 -36.5zM355 230l-87 319l-87 -319h174zM533 0h-120l-36 132h-219 l-36 -132h-120l199 667h133z"/>
<glyph glyph-name="Adieresis" horiz-adv-x="536" unicode="Ä" d="M355 230l-87 319l-87 -319h174zM533 0h-120l-36 132h-219l-36 -132h-120l199 667h133zM234 774q0 -23 -16.5 -39.5t-39.5 -16.5t-40 16.5t-17 39.5t17 39.5t40 16.5t39.5 -16.5t16.5 -39.5zM416 774q0 -23 -17 -39.5t-40 -16.5t-39.5 16.5t-16.5 39.5t16.5 39.5 t39.5 16.5t40 -16.5t17 -39.5z"/>
<glyph glyph-name="Aring" horiz-adv-x="536" unicode="Å" d="M268 738q20 0 33.5 14t13.5 34t-13.5 33.5t-33.5 13.5q-19 0 -33 -14t-14 -33t14 -33.5t33 -14.5zM268 691q-38 0 -66 28t-28 67q0 38 28 66t66 28q39 0 66.5 -28t27.5 -66q0 -39 -27.5 -67t-66.5 -28zM355 230l-87 319l-87 -319h174zM533 0h-120l-36 132h-219l-36 -132 h-120l199 667h133z"/>
<glyph glyph-name="AE" horiz-adv-x="772" unicode="Æ" d="M365 230v319l-142 -319h142zM730 0h-365v132h-183l-59 -132h-119l315 667h411v-97h-254v-181h247v-98h-247v-193h254v-98z"/>
<glyph glyph-name="Ccedilla" horiz-adv-x="547" unicode="Ç" d="M305 -190q-55 0 -94 31l21 44q34 -28 71 -28q21 0 35.5 10t14.5 27q0 30 -30 30q-18 0 -30 -14l-39 22l22 59q-109 13 -173 107t-64 235q0 153 74 249t198 96q141 0 211 -147l-92 -41q-39 90 -119 90q-72 0 -115.5 -69t-43.5 -178q0 -108 43.5 -177t115.5 -69 q42 0 72.5 27t47.5 71l92 -41q-64 -146 -196 -155l-15 -39q14 11 32 11q27 0 44.5 -19t17.5 -49q0 -37 -29 -60t-72 -23z"/>
<glyph glyph-name="Egrave" horiz-adv-x="472" unicode="È" d="M297 723h-68l-134 144h93zM429 0h-365v667h365v-97h-254v-181h247v-98h-247v-193h254v-98z"/>
<glyph glyph-name="Eacute" horiz-adv-x="472" unicode="É" d="M429 0h-365v667h365v-97h-254v-181h247v-98h-247v-193h254v-98zM397 867l-134 -144h-68l110 144h92z"/>
<glyph glyph-name="Ecircumflex" horiz-adv-x="472" unicode="Ê" d="M429 0h-365v667h365v-97h-254v-181h247v-98h-247v-193h254v-98zM373 723h-60l-67 97l-64 -97h-60l79 144h91z"/>
<glyph glyph-name="Edieresis" horiz-adv-x="472" unicode="Ë" d="M429 0h-365v667h365v-97h-254v-181h247v-98h-247v-193h254v-98zM213 774q0 -23 -16.5 -39.5t-39.5 -16.5t-40 16.5t-17 39.5t17 39.5t40 16.5t39.5 -16.5t16.5 -39.5zM395 774q0 -23 -17 -39.5t-40 -16.5t-39.5 16.5t-16.5 39.5t16.5 39.5t39.5 16.5t40 -16.5t17 -39.5z "/>
<glyph glyph-name="Igrave" horiz-adv-x="239" unicode="Ì" d="M170 723h-68l-134 144h93zM175 0h-111v667h111v-667z"/>
<glyph glyph-name="Iacute" horiz-adv-x="239" unicode="Í" d="M271 867l-134 -144h-68l110 144h92zM175 0h-111v667h111v-667z"/>
<glyph glyph-name="Icircumflex" horiz-adv-x="239" unicode="Î" d="M175 0h-111v667h111v-667zM245 723h-60l-67 97l-64 -97h-60l79 144h91z"/>
<glyph glyph-name="Idieresis" horiz-adv-x="239" unicode="Ï" d="M175 0h-111v667h111v-667zM86 774q0 -23 -16.5 -39.5t-39.5 -16.5t-40 16.5t-17 39.5t17 39.5t40 16.5t39.5 -16.5t16.5 -39.5zM268 774q0 -23 -17 -39.5t-40 -16.5t-39.5 16.5t-16.5 39.5t16.5 39.5t39.5 16.5t40 -16.5t17 -39.5z"/>
<glyph glyph-name="Eth" horiz-adv-x="606" unicode="Ð" d="M287 98q80 0 123.5 64.5t43.5 170.5q0 108 -43 172.5t-124 64.5h-88v-201h114v-82h-114v-189h88zM287 0h-199v287h-74v82h74v298h199q131 0 206 -92.5t75 -241.5t-74.5 -241t-206.5 -92z"/>
<glyph glyph-name="Ntilde" horiz-adv-x="592" unicode="Ñ" d="M528 0h-106l-247 431v-431h-111v667h112l241 -419v419h111v-667zM344 721q-21 0 -37.5 12.5t-24.5 28t-19 28t-22 12.5q-15 0 -24.5 -19t-9.5 -56h-54q0 61 24 97.5t68 36.5q21 0 37 -12.5t24.5 -27.5t19.5 -27.5t22 -12.5q33 0 33 74h54q0 -61 -23.5 -97.5t-67.5 -36.5z "/>
<glyph glyph-name="Ograve" horiz-adv-x="612" unicode="Ò" d="M306 87q72 0 113 69.5t41 176.5q0 108 -41 177.5t-113 69.5q-73 0 -113.5 -69t-40.5 -178q0 -108 40.5 -177t113.5 -69zM306 -12q-124 0 -195.5 97t-71.5 248t71.5 248t195.5 97t195.5 -97t71.5 -248t-71.5 -248t-195.5 -97zM357 723h-68l-134 144h93z"/>
<glyph glyph-name="Oacute" horiz-adv-x="612" unicode="Ó" d="M306 87q72 0 113 69.5t41 176.5q0 108 -41 177.5t-113 69.5q-73 0 -113.5 -69t-40.5 -178q0 -108 40.5 -177t113.5 -69zM306 -12q-124 0 -195.5 97t-71.5 248t71.5 248t195.5 97t195.5 -97t71.5 -248t-71.5 -248t-195.5 -97zM457 867l-134 -144h-68l110 144h92z"/>
<glyph glyph-name="Ocircumflex" horiz-adv-x="612" unicode="Ô" d="M306 87q72 0 113 69.5t41 176.5q0 108 -41 177.5t-113 69.5q-73 0 -113.5 -69t-40.5 -178q0 -108 40.5 -177t113.5 -69zM306 -12q-124 0 -195.5 97t-71.5 248t71.5 248t195.5 97t195.5 -97t71.5 -248t-71.5 -248t-195.5 -97zM433 723h-60l-67 97l-64 -97h-60l79 144h91z "/>
<glyph glyph-name="Otilde" horiz-adv-x="612" unicode="Õ" d="M357 721q-21 0 -37.5 12.5t-24.5 28t-19 28t-22 12.5q-15 0 -24.5 -19t-9.5 -56h-54q0 61 24 97.5t68 36.5q21 0 37 -12.5t24.5 -27.5t19.5 -27.5t22 -12.5q33 0 33 74h54q0 -61 -23.5 -97.5t-67.5 -36.5zM306 87q72 0 113 69.5t41 176.5q0 108 -41 177.5t-113 69.5 q-73 0 -113.5 -69t-40.5 -178q0 -108 40.5 -177t113.5 -69zM306 -12q-124 0 -195.5 97t-71.5 248t71.5 248t195.5 97t195.5 -97t71.5 -248t-71.5 -248t-195.5 -97z"/>
<glyph glyph-name="Odieresis" horiz-adv-x="612" unicode="Ö" d="M306 87q72 0 113 69.5t41 176.5q0 108 -41 177.5t-113 69.5q-73 0 -113.5 -69t-40.5 -178q0 -108 40.5 -177t113.5 -69zM306 -12q-124 0 -195.5 97t-71.5 248t71.5 248t195.5 97t195.5 -97t71.5 -248t-71.5 -248t-195.5 -97zM272 774q0 -23 -16.5 -39.5t-39.5 -16.5 t-40 16.5t-17 39.5t17 39.5t40 16.5t39.5 -16.5t16.5 -39.5zM454 774q0 -23 -17 -39.5t-40 -16.5t-39.5 16.5t-16.5 39.5t16.5 39.5t39.5 16.5t40 -16.5t17 -39.5z"/>
<glyph glyph-name="multiply" horiz-adv-x="442" unicode="×" d="M345 165l-124 123l-124 -123l-46 45l124 124l-124 124l46 46l124 -124l124 124l46 -46l-124 -124l124 -124z"/>
<glyph glyph-name="Oslash" horiz-adv-x="612" unicode="Ø" d="M152 333q0 -85 26 -148l213 361q-36 34 -85 34q-73 0 -113.5 -69t-40.5 -178zM306 87q72 0 113 69.5t41 176.5q0 90 -29 154l-213 -364q36 -36 88 -36zM306 -12q-81 0 -142 44l-19 -32h-76l46 79q-76 96 -76 254q0 151 71.5 248t195.5 97q77 0 138 -42l18 31h75l-44 -76 q80 -95 80 -258q0 -151 -71.5 -248t-195.5 -97z"/>
<glyph glyph-name="Ugrave" horiz-adv-x="592" unicode="Ù" d="M347 723h-68l-134 144h93zM296 -12q-109 0 -170.5 62t-61.5 174v443h111v-444q0 -66 31.5 -101.5t89.5 -35.5t89.5 35.5t31.5 101.5v444h111v-443q0 -112 -61.5 -174t-170.5 -62z"/>
<glyph glyph-name="Uacute" horiz-adv-x="592" unicode="Ú" d="M296 -12q-109 0 -170.5 62t-61.5 174v443h111v-444q0 -66 31.5 -101.5t89.5 -35.5t89.5 35.5t31.5 101.5v444h111v-443q0 -112 -61.5 -174t-170.5 -62zM447 867l-134 -144h-68l110 144h92z"/>
<glyph glyph-name="Ucircumflex" horiz-adv-x="592" unicode="Û" d="M296 -12q-109 0 -170.5 62t-61.5 174v443h111v-444q0 -66 31.5 -101.5t89.5 -35.5t89.5 35.5t31.5 101.5v444h111v-443q0 -112 -61.5 -174t-170.5 -62zM423 723h-60l-67 97l-64 -97h-60l79 144h91z"/>
<glyph glyph-name="Udieresis" horiz-adv-x="592" unicode="Ü" d="M296 -12q-109 0 -170.5 62t-61.5 174v443h111v-444q0 -66 31.5 -101.5t89.5 -35.5t89.5 35.5t31.5 101.5v444h111v-443q0 -112 -61.5 -174t-170.5 -62zM263 774q0 -23 -16.5 -39.5t-39.5 -16.5t-40 16.5t-17 39.5t17 39.5t40 16.5t39.5 -16.5t16.5 -39.5zM445 774 q0 -23 -17 -39.5t-40 -16.5t-39.5 16.5t-16.5 39.5t16.5 39.5t39.5 16.5t40 -16.5t17 -39.5z"/>
<glyph glyph-name="Yacute" horiz-adv-x="521" unicode="Ý" d="M412 867l-134 -144h-68l110 144h92zM316 0h-110v278l-207 389h123l139 -285l139 285h122l-206 -389v-278z"/>
<glyph glyph-name="Thorn" horiz-adv-x="513" unicode="Þ" d="M278 236q44 0 70.5 30t26.5 79q0 50 -26.5 80.5t-70.5 30.5h-103v-220h103zM175 0h-111v667h111v-114h116q94 0 145.5 -59.5t51.5 -148.5q0 -88 -51.5 -147t-145.5 -59h-116v-139z"/>
<glyph glyph-name="germandbls" horiz-adv-x="556" unicode="ß" d="M541 133q0 -61 -46.5 -103t-122.5 -42q-97 0 -165 70l42 70q46 -60 115 -60q35 0 56 18t21 45q0 25 -23 42.5t-55.5 30t-64.5 28t-55 46.5t-23 76q0 33 18 60.5t39 42t39 33.5t18 39q0 26 -23.5 43t-55.5 17q-41 0 -67 -24.5t-26 -70.5v-494h-99v494q0 79 52.5 131 t140.5 52q73 0 126 -38.5t53 -97.5q0 -36 -18.5 -64.5t-41 -43.5t-41 -34t-18.5 -40q0 -20 16.5 -34t41.5 -22.5t54.5 -21.5t54.5 -29t41.5 -46.5t16.5 -72.5z"/>
<glyph glyph-name="agrave" horiz-adv-x="467" unicode="à" d="M284 556h-68l-134 144h93zM218 57q60 0 91 53v73q-14 25 -39 39.5t-52 14.5q-38 0 -61 -25t-23 -65t23 -65t61 -25zM408 0h-99v49q-44 -61 -127 -61q-62 0 -105 43.5t-43 117.5t43 115.5t105 41.5q85 0 127 -58v70q0 44 -24.5 68t-69.5 24q-66 0 -120 -55l-39 70 q70 70 177 70q80 0 127.5 -40.5t47.5 -124.5v-330z"/>
<glyph glyph-name="aacute" horiz-adv-x="467" unicode="á" d="M384 700l-134 -144h-68l110 144h92zM218 57q60 0 91 53v73q-14 25 -39 39.5t-52 14.5q-38 0 -61 -25t-23 -65t23 -65t61 -25zM408 0h-99v49q-44 -61 -127 -61q-62 0 -105 43.5t-43 117.5t43 115.5t105 41.5q85 0 127 -58v70q0 44 -24.5 68t-69.5 24q-66 0 -120 -55 l-39 70q70 70 177 70q80 0 127.5 -40.5t47.5 -124.5v-330z"/>
<glyph glyph-name="acircumflex" horiz-adv-x="467" unicode="â" d="M360 556h-60l-67 97l-64 -97h-60l79 144h91zM218 57q60 0 91 53v73q-14 25 -39 39.5t-52 14.5q-38 0 -61 -25t-23 -65t23 -65t61 -25zM408 0h-99v49q-44 -61 -127 -61q-62 0 -105 43.5t-43 117.5t43 115.5t105 41.5q85 0 127 -58v70q0 44 -24.5 68t-69.5 24 q-66 0 -120 -55l-39 70q70 70 177 70q80 0 127.5 -40.5t47.5 -124.5v-330z"/>
<glyph glyph-name="atilde" horiz-adv-x="467" unicode="ã" d="M284 554q-21 0 -37.5 12.5t-24.5 28t-19 28t-22 12.5q-15 0 -24.5 -19t-9.5 -56h-54q0 61 24 97.5t68 36.5q21 0 37 -12.5t24.5 -27.5t19.5 -27.5t22 -12.5q33 0 33 74h54q0 -61 -23.5 -97.5t-67.5 -36.5zM218 57q60 0 91 53v73q-14 25 -39 39.5t-52 14.5q-38 0 -61 -25 t-23 -65t23 -65t61 -25zM408 0h-99v49q-44 -61 -127 -61q-62 0 -105 43.5t-43 117.5t43 115.5t105 41.5q85 0 127 -58v70q0 44 -24.5 68t-69.5 24q-66 0 -120 -55l-39 70q70 70 177 70q80 0 127.5 -40.5t47.5 -124.5v-330z"/>
<glyph glyph-name="adieresis" horiz-adv-x="467" unicode="ä" d="M200 607q0 -23 -16.5 -39.5t-39.5 -16.5t-40 16.5t-17 39.5t17 39.5t40 16.5t39.5 -16.5t16.5 -39.5zM382 607q0 -23 -17 -39.5t-40 -16.5t-39.5 16.5t-16.5 39.5t16.5 39.5t39.5 16.5t40 -16.5t17 -39.5zM218 57q60 0 91 53v73q-14 25 -39 39.5t-52 14.5q-38 0 -61 -25 t-23 -65t23 -65t61 -25zM408 0h-99v49q-44 -61 -127 -61q-62 0 -105 43.5t-43 117.5t43 115.5t105 41.5q85 0 127 -58v70q0 44 -24.5 68t-69.5 24q-66 0 -120 -55l-39 70q70 70 177 70q80 0 127.5 -40.5t47.5 -124.5v-330z"/>
<glyph glyph-name="aring" horiz-adv-x="467" unicode="å" d="M234 585q20 0 33.5 14t13.5 34t-13.5 33.5t-33.5 13.5q-19 0 -33 -14t-14 -33t14 -33.5t33 -14.5zM234 538q-38 0 -66 28t-28 67q0 38 28 66t66 28q39 0 66.5 -28t27.5 -66q0 -39 -27.5 -67t-66.5 -28zM218 57q60 0 91 53v73q-14 25 -39 39.5t-52 14.5q-38 0 -61 -25 t-23 -65t23 -65t61 -25zM408 0h-99v49q-44 -61 -127 -61q-62 0 -105 43.5t-43 117.5t43 115.5t105 41.5q85 0 127 -58v70q0 44 -24.5 68t-69.5 24q-66 0 -120 -55l-39 70q70 70 177 70q80 0 127.5 -40.5t47.5 -124.5v-330z"/>
<glyph glyph-name="ae" horiz-adv-x="745" unicode="æ" d="M323 167v16q-36 54 -99 54q-40 0 -65 -22.5t-25 -61.5q0 -40 24.5 -62t65.5 -22q40 0 69.5 30t29.5 68zM420 280h197q-1 53 -25 93.5t-73 40.5q-48 0 -72.5 -41t-26.5 -93zM713 209h-293q4 -62 34.5 -100t84.5 -38q62 0 103 52l48 -61q-65 -74 -159 -74q-106 0 -159 88 q-25 -39 -69 -63.5t-100 -24.5q-75 0 -122 42t-47 117q0 74 43 116.5t110 42.5q89 0 136 -57v69q0 43 -26.5 67.5t-73.5 24.5q-70 0 -128 -55l-39 70q70 70 176 70q55 0 92.5 -23t51.5 -62q52 85 148 85q89 0 139 -72t50 -186v-28z"/>
<glyph glyph-name="ccedilla" horiz-adv-x="415" unicode="ç" d="M247 -192q-55 0 -94 31l21 44q34 -28 71 -28q21 0 35.5 10t14.5 27q0 30 -30 30q-18 0 -30 -14l-39 22l22 60q-83 10 -133 80t-50 172q0 111 58 182t154 71q95 0 147 -65l-51 -68q-35 45 -86 45q-55 0 -87 -47t-32 -118q0 -72 32 -119t87 -47q50 0 86 45l51 -68 q-46 -56 -124 -64l-16 -41q14 11 32 11q27 0 44.5 -19t17.5 -49q0 -37 -29 -60t-72 -23z"/>
<glyph glyph-name="egrave" horiz-adv-x="474" unicode="è" d="M294 556h-68l-134 144h93zM346 280q-1 53 -26.5 93.5t-78.5 40.5q-51 0 -77 -41t-29 -93h211zM252 -12q-99 0 -158 70t-59 184q0 108 56.5 180.5t150.5 72.5q95 0 148 -72t53 -185v-29h-307q3 -62 36 -100.5t90 -38.5q65 0 109 52l48 -60q-65 -74 -167 -74z"/>
<glyph glyph-name="eacute" horiz-adv-x="474" unicode="é" d="M346 280q-1 53 -26.5 93.5t-78.5 40.5q-51 0 -77 -41t-29 -93h211zM252 -12q-99 0 -158 70t-59 184q0 108 56.5 180.5t150.5 72.5q95 0 148 -72t53 -185v-29h-307q3 -62 36 -100.5t90 -38.5q65 0 109 52l48 -60q-65 -74 -167 -74zM394 700l-134 -144h-68l110 144h92z"/>
<glyph glyph-name="ecircumflex" horiz-adv-x="474" unicode="ê" d="M346 280q-1 53 -26.5 93.5t-78.5 40.5q-51 0 -77 -41t-29 -93h211zM252 -12q-99 0 -158 70t-59 184q0 108 56.5 180.5t150.5 72.5q95 0 148 -72t53 -185v-29h-307q3 -62 36 -100.5t90 -38.5q65 0 109 52l48 -60q-65 -74 -167 -74zM369 556h-60l-67 97l-64 -97h-60l79 144 h91z"/>
<glyph glyph-name="edieresis" horiz-adv-x="474" unicode="ë" d="M346 280q-1 53 -26.5 93.5t-78.5 40.5q-51 0 -77 -41t-29 -93h211zM252 -12q-99 0 -158 70t-59 184q0 108 56.5 180.5t150.5 72.5q95 0 148 -72t53 -185v-29h-307q3 -62 36 -100.5t90 -38.5q65 0 109 52l48 -60q-65 -74 -167 -74zM209 607q0 -23 -16.5 -39.5t-39.5 -16.5 t-40 16.5t-17 39.5t17 39.5t40 16.5t39.5 -16.5t16.5 -39.5zM391 607q0 -23 -17 -39.5t-40 -16.5t-39.5 16.5t-16.5 39.5t16.5 39.5t39.5 16.5t40 -16.5t17 -39.5z"/>
<glyph glyph-name="igrave" horiz-adv-x="218" unicode="ì" d="M159 556h-68l-134 144h93zM159 0h-100v483h100v-483z"/>
<glyph glyph-name="iacute" horiz-adv-x="218" unicode="í" d="M159 0h-100v483h100v-483zM260 700l-134 -144h-68l110 144h92z"/>
<glyph glyph-name="icircumflex" horiz-adv-x="218" unicode="î" d="M159 0h-100v483h100v-483zM234 556h-60l-67 97l-64 -97h-60l79 144h91z"/>
<glyph glyph-name="idieresis" horiz-adv-x="218" unicode="ï" d="M159 0h-100v483h100v-483zM74 607q0 -23 -16.5 -39.5t-39.5 -16.5t-40 16.5t-17 39.5t17 39.5t40 16.5t39.5 -16.5t16.5 -39.5zM256 607q0 -23 -17 -39.5t-40 -16.5t-39.5 16.5t-16.5 39.5t16.5 39.5t39.5 16.5t40 -16.5t17 -39.5z"/>
<glyph glyph-name="eth" horiz-adv-x="488" unicode="ð" d="M244 76q52 0 79 44t27 110q0 64 -27 108t-79 44t-79 -44t-27 -108q0 -66 27 -110t79 -44zM120 493l-22 49l108 47q-19 20 -55 52l70 62q39 -36 74 -74l89 39l21 -48l-75 -34q123 -157 123 -329q0 -121 -54.5 -195t-154.5 -74q-98 0 -153.5 69t-55.5 173q0 103 49.5 171.5 t131.5 68.5q78 0 124 -78q-27 76 -96 156z"/>
<glyph glyph-name="ntilde" d="M294 554q-21 0 -37.5 12.5t-24.5 28t-19 28t-22 12.5q-15 0 -24.5 -19t-9.5 -56h-54q0 61 24 97.5t68 36.5q21 0 37 -12.5t24.5 -27.5t19.5 -27.5t22 -12.5q33 0 33 74h54q0 -61 -23.5 -97.5t-67.5 -36.5zM426 0h-100v329q0 78 -69 78q-30 0 -56.5 -19.5t-41.5 -47.5 v-340h-100v483h100v-65q21 32 59.5 54.5t80.5 22.5q127 0 127 -131v-364z" unicode="ñ"/>
<glyph glyph-name="ograve" horiz-adv-x="488" unicode="ò" d="M295 556h-68l-134 144h93zM244 76q52 0 79 48t27 118t-27 117.5t-79 47.5t-79 -47.5t-27 -117.5t27 -118t79 -48zM244 -12q-98 0 -153.5 73t-55.5 181t55 180.5t154 72.5t154 -72.5t55 -180.5t-55.5 -181t-153.5 -73z"/>
<glyph glyph-name="oacute" horiz-adv-x="488" unicode="ó" d="M244 76q52 0 79 48t27 118t-27 117.5t-79 47.5t-79 -47.5t-27 -117.5t27 -118t79 -48zM244 -12q-98 0 -153.5 73t-55.5 181t55 180.5t154 72.5t154 -72.5t55 -180.5t-55.5 -181t-153.5 -73zM395 700l-134 -144h-68l110 144h92z"/>
<glyph glyph-name="ocircumflex" horiz-adv-x="488" unicode="ô" d="M244 76q52 0 79 48t27 118t-27 117.5t-79 47.5t-79 -47.5t-27 -117.5t27 -118t79 -48zM244 -12q-98 0 -153.5 73t-55.5 181t55 180.5t154 72.5t154 -72.5t55 -180.5t-55.5 -181t-153.5 -73zM370 556h-60l-67 97l-64 -97h-60l79 144h91z"/>
<glyph glyph-name="otilde" horiz-adv-x="488" unicode="õ" d="M294 554q-21 0 -37.5 12.5t-24.5 28t-19 28t-22 12.5q-15 0 -24.5 -19t-9.5 -56h-54q0 61 24 97.5t68 36.5q21 0 37 -12.5t24.5 -27.5t19.5 -27.5t22 -12.5q33 0 33 74h54q0 -61 -23.5 -97.5t-67.5 -36.5zM244 76q52 0 79 48t27 118t-27 117.5t-79 47.5t-79 -47.5 t-27 -117.5t27 -118t79 -48zM244 -12q-98 0 -153.5 73t-55.5 181t55 180.5t154 72.5t154 -72.5t55 -180.5t-55.5 -181t-153.5 -73z"/>
<glyph glyph-name="odieresis" horiz-adv-x="488" unicode="ö" d="M244 76q52 0 79 48t27 118t-27 117.5t-79 47.5t-79 -47.5t-27 -117.5t27 -118t79 -48zM244 -12q-98 0 -153.5 73t-55.5 181t55 180.5t154 72.5t154 -72.5t55 -180.5t-55.5 -181t-153.5 -73zM210 607q0 -23 -16.5 -39.5t-39.5 -16.5t-40 16.5t-17 39.5t17 39.5t40 16.5 t39.5 -16.5t16.5 -39.5zM392 607q0 -23 -17 -39.5t-40 -16.5t-39.5 16.5t-16.5 39.5t16.5 39.5t39.5 16.5t40 -16.5t17 -39.5z"/>
<glyph glyph-name="divide" horiz-adv-x="443" unicode="÷" d="M275 171q0 -22 -15.5 -37t-37.5 -15t-37.5 15t-15.5 37t15.5 38t37.5 16t37.5 -16t15.5 -38zM414 305h-385v65h385v-65zM275 500q0 -22 -15.5 -37.5t-37.5 -15.5t-37.5 15.5t-15.5 37.5t15.5 37.5t37.5 15.5t37.5 -15.5t15.5 -37.5z"/>
<glyph glyph-name="oslash" horiz-adv-x="488" unicode="ø" d="M138 242q0 -50 13 -88l156 226q-25 27 -63 27q-52 0 -79 -47.5t-27 -117.5zM244 76q52 0 79 48t27 118q0 51 -15 90l-157 -227q27 -29 66 -29zM106 0h-61l43 63q-53 70 -53 179q0 108 55 180.5t154 72.5q66 0 117 -37l17 25h62l-42 -61q55 -70 55 -180q0 -108 -55.5 -181 t-153.5 -73q-70 0 -120 39z"/>
<glyph glyph-name="ugrave" d="M293 556h-68l-134 144h93zM426 0h-100v64q-22 -32 -59.5 -54t-81.5 -22q-126 0 -126 130v365h100v-330q0 -77 69 -77q30 0 56.5 19t41.5 47v341h100v-483z" unicode="ù"/>
<glyph glyph-name="uacute" d="M426 0h-100v64q-22 -32 -59.5 -54t-81.5 -22q-126 0 -126 130v365h100v-330q0 -77 69 -77q30 0 56.5 19t41.5 47v341h100v-483zM393 700l-134 -144h-68l110 144h92z" unicode="ú"/>
<glyph glyph-name="ucircumflex" d="M426 0h-100v64q-22 -32 -59.5 -54t-81.5 -22q-126 0 -126 130v365h100v-330q0 -77 69 -77q30 0 56.5 19t41.5 47v341h100v-483zM368 556h-60l-67 97l-64 -97h-60l79 144h91z" unicode="û"/>
<glyph glyph-name="udieresis" d="M426 0h-100v64q-22 -32 -59.5 -54t-81.5 -22q-126 0 -126 130v365h100v-330q0 -77 69 -77q30 0 56.5 19t41.5 47v341h100v-483zM208 607q0 -23 -16.5 -39.5t-39.5 -16.5t-40 16.5t-17 39.5t17 39.5t40 16.5t39.5 -16.5t16.5 -39.5zM390 607q0 -23 -17 -39.5t-40 -16.5 t-39.5 16.5t-16.5 39.5t16.5 39.5t39.5 16.5t40 -16.5t17 -39.5z" unicode="ü"/>
<glyph glyph-name="yacute" horiz-adv-x="430" unicode="ý" d="M366 700l-134 -144h-68l110 144h92zM42 -189l15 88q13 -7 32 -7q40 0 55 40l20 58l-162 493h106l107 -363l108 363h106l-191 -574q-19 -58 -53.5 -81.5t-88.5 -23.5q-31 0 -54 7z"/>
<glyph glyph-name="thorn" horiz-adv-x="492" unicode="þ" d="M253 76q50 0 76.5 46.5t26.5 119.5t-26.5 119t-76.5 46q-28 0 -54.5 -19t-39.5 -47v-198q13 -28 39.5 -47.5t54.5 -19.5zM283 -12q-82 0 -124 76v-248h-100v851h100v-246q43 74 124 74q82 0 129 -68t47 -185q0 -116 -47.5 -185t-128.5 -69z"/>
<glyph glyph-name="OE" horiz-adv-x="855" unicode="Œ" d="M448 206v254q-18 58 -55 88.5t-85 30.5q-75 0 -115.5 -68.5t-40.5 -177.5t40.5 -177.5t115.5 -68.5q48 0 84.5 31t55.5 88zM813 0h-365v77q-25 -45 -68 -67t-89 -22q-117 0 -184.5 97t-67.5 248q0 152 67.5 248t184.5 96q46 0 89 -21.5t68 -65.5v77h365v-97h-254v-181 h247v-98h-247v-193h254v-98z"/>
<glyph glyph-name="oe" horiz-adv-x="788" unicode="œ" d="M350 242q0 71 -27.5 118t-78.5 47t-78.5 -47t-27.5 -118t27.5 -118.5t78.5 -47.5t78.5 47.5t27.5 118.5zM450 280h211q-2 54 -27.5 94t-78.5 40q-51 0 -77 -41t-28 -93zM757 209h-306q3 -62 35.5 -100.5t89.5 -38.5q65 0 109 52l49 -60q-66 -74 -167 -74q-111 0 -166 109 q-52 -109 -157 -109q-98 0 -153.5 73t-55.5 181t55 180.5t154 72.5q106 0 157 -108q50 108 156 108q95 0 147.5 -72t52.5 -186v-28z"/>
<glyph glyph-name="Scaron" horiz-adv-x="486" unicode="Š" d="M237 -12q-135 0 -215 85l56 86q63 -72 159 -72q49 0 76.5 25.5t27.5 62.5t-31 63t-74.5 44.5t-87.5 40.5t-75 65t-31 104q0 80 57 133t150 53q117 0 192 -72l-54 -84q-57 57 -141 57q-41 0 -66 -22t-25 -59q0 -32 31 -56t74.5 -42.5t87.5 -41.5t75 -67.5t31 -106.5 q0 -86 -57 -141t-160 -55zM295 723h-91l-82 144h60l67 -97l64 97h60z"/>
<glyph glyph-name="scaron" horiz-adv-x="401" unicode="š" d="M198 -12q-113 0 -177 69l45 70q23 -25 58.5 -42.5t71.5 -17.5q37 0 58.5 17t21.5 46q0 25 -24.5 42t-60 29t-70.5 27.5t-59.5 48t-24.5 80.5q0 59 44.5 98.5t121.5 39.5q95 0 159 -62l-42 -68q-42 51 -115 51q-33 0 -53.5 -16t-20.5 -40q0 -20 18 -34.5t44.5 -22.5 t57.5 -21.5t57.5 -29.5t44.5 -47t18 -73q0 -63 -47.5 -103.5t-125.5 -40.5zM249 556h-91l-82 144h60l67 -97l64 97h60z"/>
<glyph glyph-name="Ydieresis" horiz-adv-x="521" unicode="Ÿ" d="M316 0h-110v278l-207 389h123l139 -285l139 285h122l-206 -389v-278zM228 774q0 -23 -16.5 -39.5t-39.5 -16.5t-40 16.5t-17 39.5t17 39.5t40 16.5t39.5 -16.5t16.5 -39.5zM410 774q0 -23 -17 -39.5t-40 -16.5t-39.5 16.5t-16.5 39.5t16.5 39.5t39.5 16.5t40 -16.5 t17 -39.5z"/>
<glyph glyph-name="circumflex" horiz-adv-x="251" unicode="ˆ" d="M251 556h-60l-67 97l-64 -97h-60l79 144h91z"/>
<glyph glyph-name="tilde" horiz-adv-x="282" unicode="˜" d="M191 554q-21 0 -37.5 12.5t-24.5 28t-19 28t-22 12.5q-15 0 -24.5 -19t-9.5 -56h-54q0 61 24 97.5t68 36.5q21 0 37 -12.5t24.5 -27.5t19.5 -27.5t22 -12.5q33 0 33 74h54q0 -61 -23.5 -97.5t-67.5 -36.5z"/>
<glyph glyph-name="Alpha" horiz-adv-x="536" unicode="Α" d="M355 230l-87 319l-87 -319h174zM533 0h-120l-36 132h-219l-36 -132h-120l199 667h133z"/>
<glyph glyph-name="Beta" horiz-adv-x="540" unicode="Β" d="M296 98q44 0 66.5 25.5t22.5 71.5q0 42 -23 69t-66 27h-121v-193h121zM292 389q41 0 61.5 24.5t20.5 65.5t-21 66t-61 25h-117v-181h117zM324 0h-260v667h252q82 0 127 -48t45 -122q0 -61 -29.5 -100.5t-75.5 -52.5q49 -7 82.5 -54.5t33.5 -109.5q0 -81 -45 -130.5 t-130 -49.5z"/>
<glyph glyph-name="Gamma" horiz-adv-x="464" unicode="Γ" d="M175 0h-111v667h365v-97h-254v-570z"/>
<glyph glyph-name="uni0394" horiz-adv-x="547" unicode="Δ" d="M402 98l-129 451l-127 -451h256zM545 0h-543l205 667h133z"/>
<glyph glyph-name="Epsilon" horiz-adv-x="472" unicode="Ε" d="M429 0h-365v667h365v-97h-254v-181h247v-98h-247v-193h254v-98z"/>
<glyph glyph-name="Zeta" horiz-adv-x="475" unicode="Ζ" d="M437 0h-399v92l258 478h-258v97h392v-90l-259 -479h266v-98z"/>
<glyph glyph-name="Eta" horiz-adv-x="593" unicode="Η" d="M530 0h-111v294h-244v-294h-111v667h111v-275h244v275h111v-667z"/>
<glyph glyph-name="Theta" horiz-adv-x="612" unicode="Θ" d="M306 87q72 0 113 69.5t41 176.5q0 108 -41 177.5t-113 69.5q-73 0 -113.5 -69t-40.5 -178q0 -108 40.5 -177t113.5 -69zM306 -12q-124 0 -195.5 97t-71.5 248t71.5 248t195.5 97t195.5 -97t71.5 -248t-71.5 -248t-195.5 -97zM421 291h-230v98h230v-98z"/>
<glyph glyph-name="Iota" horiz-adv-x="239" unicode="Ι" d="M175 0h-111v667h111v-667z"/>
<glyph glyph-name="Kappa" horiz-adv-x="535" unicode="Κ" d="M528 0h-131l-172 275l-50 -76v-199h-111v667h111v-321l207 321h130l-218 -315z"/>
<glyph glyph-name="Lambda" horiz-adv-x="536" unicode="Λ" d="M533 0h-120l-145 549l-146 -549h-120l199 667h133z"/>
<glyph glyph-name="Mu" horiz-adv-x="713" unicode="Μ" d="M650 0h-110v460l-162 -460h-43l-160 460v-460h-111v667h150l143 -406l144 406h149v-667z"/>
<glyph glyph-name="Nu" horiz-adv-x="592" unicode="Ν" d="M528 0h-106l-247 431v-431h-111v667h112l241 -419v419h111v-667z"/>
<glyph glyph-name="Xi" horiz-adv-x="504" unicode="Ξ" d="M453 291h-402v98h402v-98zM460 0h-416v98h416v-98zM460 570h-416v97h416v-97z"/>
<glyph glyph-name="Omicron" horiz-adv-x="612" unicode="Ο" d="M306 87q72 0 113 69.5t41 176.5q0 108 -41 177.5t-113 69.5q-73 0 -113.5 -69t-40.5 -178q0 -108 40.5 -177t113.5 -69zM306 -12q-124 0 -195.5 97t-71.5 248t71.5 248t195.5 97t195.5 -97t71.5 -248t-71.5 -248t-195.5 -97z"/>
<glyph glyph-name="Pi" horiz-adv-x="593" unicode="Π" d="M530 0h-111v570h-244v-570h-111v667h466v-667z"/>
<glyph glyph-name="Rho" horiz-adv-x="513" unicode="Ρ" d="M278 350q44 0 70.5 30t26.5 80t-26.5 80t-70.5 30h-103v-220h103zM175 0h-111v667h227q94 0 145.5 -59.5t51.5 -147.5q0 -89 -51.5 -148.5t-145.5 -59.5h-116v-252z"/>
<glyph glyph-name="Sigma" horiz-adv-x="464" unicode="Σ" d="M171 570l162 -227l-166 -245h257v-98h-380v100l164 243l-164 227v97h380v-97h-253z"/>
<glyph glyph-name="Tau" horiz-adv-x="462" unicode="Τ" d="M286 0h-110v570h-153v97h416v-97h-153v-570z"/>
<glyph glyph-name="Upsilon" horiz-adv-x="521" unicode="Υ" d="M316 0h-110v278l-207 389h123l139 -285l139 285h122l-206 -389v-278z"/>
<glyph glyph-name="Phi" horiz-adv-x="730" unicode="Φ" d="M152 333q0 -66 39.5 -110t117.5 -56v333q-78 -12 -117.5 -56.5t-39.5 -110.5zM577 333q0 66 -39.5 110.5t-117.5 56.5v-333q78 12 117.5 56t39.5 110zM420 0h-111v67q-131 13 -200.5 84.5t-69.5 181.5q0 109 70 181t200 85v68h111v-68q131 -13 201 -84.5t70 -181.5 t-70 -182t-201 -84v-67z"/>
<glyph glyph-name="Chi" horiz-adv-x="535" unicode="Χ" d="M533 0h-128l-138 254l-137 -254h-128l197 341l-185 326h127l126 -240l126 240h128l-185 -325z"/>
<glyph glyph-name="Psi" horiz-adv-x="739" unicode="Ψ" d="M425 0h-110v126q-118 12 -184.5 76.5t-66.5 172.5v292h112v-290q0 -131 139 -151v441h110v-441q138 20 138 151v290h112v-291q0 -109 -66 -173.5t-184 -76.5v-126z"/>
<glyph glyph-name="alpha" horiz-adv-x="506" unicode="α" d="M241 76q28 0 54.5 19t39.5 47v198q-13 28 -39.5 47t-54.5 19q-50 0 -76.5 -45.5t-26.5 -119.5q0 -72 26.5 -118.5t76.5 -46.5zM487 78l7 -84q-16 -6 -47 -6q-91 0 -107 84q-20 -38 -54.5 -61t-74.5 -23q-81 0 -128.5 68.5t-47.5 184.5t47.5 185t128.5 69t124 -77v65h100 v-360q0 -47 35 -47q7 0 17 2z"/>
<glyph glyph-name="beta" horiz-adv-x="494" unicode="β" d="M159 64v-248h-100v639q0 114 58 168t143 54t135 -46.5t50 -132.5q0 -58 -31.5 -100t-81.5 -53q51 -9 89 -55.5t38 -120.5q0 -77 -48 -129t-121 -52q-85 0 -131 76zM159 455v-313q14 -28 41 -47t58 -19q47 0 72 31t25 79q0 54 -28 82t-73 28h-28v88h24q42 0 67 26.5 t25 75.5q0 48 -23 75t-60 27q-45 0 -72.5 -32.5t-27.5 -100.5z"/>
<glyph glyph-name="gamma" horiz-adv-x="430" unicode="γ" d="M265 -184h-100v125q0 154 -47.5 296.5t-126.5 245.5h112q50 -75 84.5 -169t41.5 -184q35 67 58 165t23 188h99q0 -117 -40 -246t-104 -230v-191z"/>
<glyph glyph-name="delta" horiz-adv-x="488" unicode="δ" d="M358 208q0 66 -33.5 103t-95.5 69q-42 -25 -66.5 -69t-24.5 -97q0 -56 28.5 -97t80.5 -41q53 0 82 40t29 92zM248 -12q-101 0 -157 66t-56 160q0 69 30.5 124t80.5 88q-65 44 -65 115q0 59 44.5 98.5t121.5 39.5q94 0 159 -62l-42 -68q-42 51 -116 51q-33 0 -53 -16 t-20 -40q0 -20 20.5 -37.5t51.5 -30.5t67 -35.5t67 -49t51.5 -74t20.5 -108.5q0 -91 -53.5 -156t-151.5 -65z"/>
<glyph glyph-name="epsilon" horiz-adv-x="437" unicode="ε" d="M229 -12q-89 0 -141.5 40t-52.5 103q0 49 35.5 80t82.5 36q-46 9 -78 41.5t-32 75.5q0 61 53.5 96t144.5 35q106 0 172 -77l-50 -60q-46 56 -124 56q-43 0 -69.5 -17t-26.5 -46q0 -32 25.5 -49.5t69.5 -17.5h89v-80h-90q-102 0 -102 -65q0 -32 25.5 -51t70.5 -19 q88 0 140 58l49 -61q-68 -78 -191 -78z"/>
<glyph glyph-name="zeta" horiz-adv-x="410" unicode="ζ" d="M285 -42q0 16 -8 23t-28 7q-96 0 -155 59.5t-59 150.5q0 221 226 382h-215v87h329v-73q-111 -85 -174 -183.5t-63 -199.5q0 -60 34.5 -97.5t96.5 -37.5q59 0 85.5 -23t26.5 -70q0 -56 -45 -140h-98q47 75 47 115z"/>
<glyph glyph-name="eta" d="M426 -184h-100v513q0 78 -69 78q-30 0 -56.5 -19.5t-41.5 -47.5v-340h-100v483h100v-65q21 32 59.5 54.5t80.5 22.5q127 0 127 -131v-548z" unicode="η"/>
<glyph glyph-name="theta" horiz-adv-x="488" unicode="θ" d="M244 591q-52 0 -76.5 -53.5t-28.5 -158.5h210q-8 212 -105 212zM244 76q52 0 76.5 54.5t28.5 161.5h-210q6 -216 105 -216zM244 -12q-103 0 -156 96t-53 250q0 155 53 250t156 95t156 -95t53 -250q0 -154 -53 -250t-156 -96z"/>
<glyph glyph-name="iota" horiz-adv-x="230" unicode="ι" d="M171 -12q-112 0 -112 120v375h100v-360q0 -47 35 -47q7 0 17 2l7 -84q-16 -6 -47 -6z"/>
<glyph glyph-name="kappa" horiz-adv-x="456" unicode="κ" d="M448 0h-117l-114 202l-58 -78v-124h-100v483h100v-237l170 237h116l-160 -217z"/>
<glyph glyph-name="lambda" horiz-adv-x="430" unicode="λ" d="M57 584l-15 88q23 7 54 7q54 -1 88.5 -24t53.5 -81l191 -574h-106l-108 363l-107 -363h-106l162 492l-20 58q-15 41 -55 41q-19 0 -32 -7z"/>
<glyph glyph-name="uni03BC" horiz-adv-x="497" unicode="μ" d="M159 14v-198h-100v667h100v-330q0 -78 70 -78q30 0 55.5 19.5t41.5 47.5v341h100v-360q0 -47 35 -47q7 0 17 2l7 -84q-16 -6 -47 -6q-91 0 -108 86q-18 -38 -47.5 -62t-63.5 -24q-43 0 -60 26z"/>
<glyph glyph-name="nu" horiz-adv-x="430" unicode="ν" d="M261 0h-100l-159 483h106l111 -377q43 81 67 182t24 195h99q0 -119 -41 -250t-107 -233z"/>
<glyph glyph-name="xi" horiz-adv-x="410" unicode="ξ" d="M249 -12q-100 0 -157 50.5t-57 131.5q0 60 32.5 101t79.5 55q-44 9 -73.5 43.5t-29.5 82.5q0 39 24 74t63 54h-79v87h316v-87h-153q-31 -12 -50.5 -39.5t-19.5 -59.5q0 -46 30 -71.5t77 -25.5h110v-86h-110q-51 0 -82.5 -27.5t-31.5 -83.5q0 -47 34 -79t97 -32 q59 0 85.5 -23t26.5 -70q0 -56 -45 -140h-98q47 75 47 115q0 16 -8 23t-28 7z"/>
<glyph glyph-name="omicron" horiz-adv-x="488" unicode="ο" d="M244 76q52 0 79 48t27 118t-27 117.5t-79 47.5t-79 -47.5t-27 -117.5t27 -118t79 -48zM244 -12q-98 0 -153.5 73t-55.5 181t55 180.5t154 72.5t154 -72.5t55 -180.5t-55.5 -181t-153.5 -73z"/>
<glyph glyph-name="pi" horiz-adv-x="521" unicode="π" d="M444 0h-99v396h-168v-396h-100v396h-63v87h494v-87h-64v-396z"/>
<glyph glyph-name="rho" horiz-adv-x="492" unicode="ρ" d="M253 76q50 0 76.5 46.5t26.5 119.5q0 71 -25 118t-74 47q-48 0 -73 -47t-25 -118v-99q13 -28 39.5 -47.5t54.5 -19.5zM283 -12q-81 0 -124 77v-249h-100v426q0 107 52.5 180t146.5 73q95 0 148 -72t53 -181q0 -116 -47.5 -185t-128.5 -69z"/>
<glyph glyph-name="sigma1" horiz-adv-x="408" unicode="ς" d="M251 -12q-96 0 -156 70.5t-60 183.5q0 111 58 182t154 71q95 0 147 -65l-51 -68q-35 45 -86 45q-55 0 -87 -47t-32 -118q0 -74 35 -120t94 -46q115 0 115 -93q0 -56 -45 -140h-96q48 73 48 115q0 30 -38 30z"/>
<glyph glyph-name="sigma" horiz-adv-x="488" unicode="σ" d="M350 234q0 112 -65 161h-29q-59 0 -88.5 -44.5t-29.5 -108.5q0 -70 27 -118t79 -48q51 0 78.5 46.5t27.5 111.5zM447 220q0 -96 -53 -164t-150 -68t-153 72.5t-56 181.5q0 103 57.5 172t163.5 69h213v-88h-89q67 -67 67 -175z"/>
<glyph glyph-name="tau" horiz-adv-x="383" unicode="τ" d="M253 -12q-111 0 -111 120v288h-123v87h345v-87h-123v-267q0 -53 37 -53q26 0 38 16l24 -75q-29 -29 -87 -29z"/>
<glyph glyph-name="upsilon" horiz-adv-x="486" unicode="υ" d="M242 -12q-87 0 -135 53.5t-48 146.5v295h100v-294q0 -54 21 -83.5t62 -29.5q53 0 79.5 49.5t26.5 128.5q0 113 -56 203l91 38q69 -110 69 -241q0 -116 -55 -191t-155 -75z"/>
<glyph glyph-name="phi" horiz-adv-x="674" unicode="φ" d="M536 242q0 68 -38 112t-111 50v-325q77 11 113 55t36 108zM639 242q0 -103 -63.5 -171t-188.5 -80v-175h-99v175q-126 12 -189.5 81.5t-63.5 177.5q0 168 161 245l43 -77q-101 -51 -101 -168q0 -151 150 -171v416h49q150 0 226 -70t76 -183z"/>
<glyph glyph-name="chi" horiz-adv-x="424" unicode="χ" d="M418 -184h-107l-99 244l-99 -244h-107l144 340l-136 327h107l91 -230l91 230h107l-136 -327z"/>
<glyph glyph-name="psi" horiz-adv-x="675" unicode="ψ" d="M387 -184h-99v175q-110 11 -169.5 71t-59.5 164v257h99v-257q0 -128 130 -147v588h99v-588q129 20 129 147v257h100v-257q0 -104 -60 -164t-169 -71v-175z"/>
<glyph glyph-name="afii10023" horiz-adv-x="472" unicode="Ё" d="M429 0h-365v667h365v-97h-254v-181h247v-98h-247v-193h254v-98zM212 774q0 -23 -16.5 -39.5t-39.5 -16.5t-40 16.5t-17 39.5t17 39.5t40 16.5t39.5 -16.5t16.5 -39.5zM394 774q0 -23 -17 -39.5t-40 -16.5t-39.5 16.5t-16.5 39.5t16.5 39.5t39.5 16.5t40 -16.5t17 -39.5z "/>
<glyph glyph-name="afii10051" horiz-adv-x="640" unicode="Ђ" d="M399 -12v99q46 0 73.5 26t27.5 77v15q0 52 -31 82.5t-86 30.5q-52 0 -97 -15l1 -303h-111v570h-153v97h416v-97h-153v-170q52 15 111 15q102 0 158 -60.5t56 -149.5v-15q0 -101 -60 -151.5t-152 -50.5z"/>
<glyph glyph-name="afii10052" horiz-adv-x="464" unicode="Ѓ" d="M175 0h-111v667h365v-97h-254v-570zM389 867l-134 -144h-68l110 144h92z"/>
<glyph glyph-name="afii10053" horiz-adv-x="547" unicode="Є" d="M311 -12q-124 0 -198 96.5t-74 248.5q0 153 74 249t198 96q141 0 211 -147l-92 -41q-39 90 -119 90q-63 0 -104 -52t-52 -139h267v-98h-268q8 -92 50 -148t107 -56q42 0 72.5 27t47.5 71l92 -41q-68 -156 -212 -156z"/>
<glyph glyph-name="afii10054" horiz-adv-x="486" unicode="Ѕ" d="M237 -12q-135 0 -215 85l56 86q63 -72 159 -72q49 0 76.5 25.5t27.5 62.5t-31 63t-74.5 44.5t-87.5 40.5t-75 65t-31 104q0 80 57 133t150 53q117 0 192 -72l-54 -84q-57 57 -141 57q-41 0 -66 -22t-25 -59q0 -32 31 -56t74.5 -42.5t87.5 -41.5t75 -67.5t31 -106.5 q0 -86 -57 -141t-160 -55z"/>
<glyph glyph-name="afii10055" horiz-adv-x="239" unicode="І" d="M175 0h-111v667h111v-667z"/>
<glyph glyph-name="afii10056" horiz-adv-x="239" unicode="Ї" d="M85 774q0 -23 -16.5 -39.5t-39.5 -16.5t-40 16.5t-17 39.5t17 39.5t40 16.5t39.5 -16.5t16.5 -39.5zM267 774q0 -23 -17 -39.5t-40 -16.5t-39.5 16.5t-16.5 39.5t16.5 39.5t39.5 16.5t40 -16.5t17 -39.5zM175 0h-111v667h111v-667z"/>
<glyph glyph-name="afii10057" horiz-adv-x="409" unicode="Ј" d="M150 -12q-87 0 -142 55l43 87q38 -43 89 -43q45 0 70 26t25 74v480h111v-483q0 -98 -53 -147t-143 -49z"/>
<glyph glyph-name="afii10058" horiz-adv-x="868" unicode="Љ" d="M633 318h-103v-220h103q44 0 70.5 30t26.5 80q0 49 -26.5 79.5t-70.5 30.5zM24 -12v99q32 0 50.5 14.5t33.5 65t24 149.5l31 351h367v-252h116q94 0 145.5 -59.5t51.5 -147.5q0 -89 -51.5 -148.5t-145.5 -59.5h-227v570h-155l-23 -261q-9 -101 -27.5 -167t-48.5 -98.5 t-62 -44t-79 -11.5z"/>
<glyph glyph-name="afii10059" horiz-adv-x="868" unicode="Њ" d="M530 98h110q41 0 65.5 27t24.5 71t-24.5 71t-65.5 27h-110v-196zM64 0v667h111v-275h244v275h111v-275h123q90 0 140 -56.5t50 -139.5q0 -84 -49.5 -140t-140.5 -56h-234v294h-244v-294h-111z"/>
<glyph glyph-name="afii10060" horiz-adv-x="653" unicode="Ћ" d="M494 0v192q0 126 -111 126q-52 0 -97 -15l1 -303h-111v570h-153v97h416v-97h-153v-170q52 15 111 15q103 0 155.5 -61.5t52.5 -161.5v-192h-111z"/>
<glyph glyph-name="afii10061" horiz-adv-x="535" unicode="Ќ" d="M528 0h-131l-172 275l-50 -76v-199h-111v667h111v-321l207 321h130l-218 -315zM421 867l-134 -144h-68l110 144h92z"/>
<glyph glyph-name="afii10062" horiz-adv-x="521" unicode="Ў" d="M410 783q-55 -75 -149 -75q-92 0 -149 75l47 38q37 -53 102 -53t102 53zM120 -12q-71 0 -116 38l34 91q32 -29 72 -29q28 0 46 15t34 49l11 32l-202 483h123l139 -354l139 354h122l-232 -559q-26 -62 -66 -91t-104 -29z"/>
<glyph glyph-name="afii10145" horiz-adv-x="593" unicode="Џ" d="M64 0v667h111v-569h244v569h111v-667h-178v-128h-110v128h-178z"/>
<glyph glyph-name="afii10017" horiz-adv-x="536" unicode="А" d="M355 230l-87 319l-87 -319h174zM533 0h-120l-36 132h-219l-36 -132h-120l199 667h133z"/>
<glyph glyph-name="afii10018" horiz-adv-x="513" unicode="Б" d="M278 318h-103v-220h103q44 0 70.5 30t26.5 80q0 49 -26.5 79.5t-70.5 30.5zM64 667h380v-97h-269v-155h116q94 0 145.5 -59.5t51.5 -147.5q0 -89 -51.5 -148.5t-145.5 -59.5h-227v667z"/>
<glyph glyph-name="afii10019" horiz-adv-x="540" unicode="В" d="M296 98q44 0 66.5 25.5t22.5 71.5q0 42 -23 69t-66 27h-121v-193h121zM292 389q41 0 61.5 24.5t20.5 65.5t-21 66t-61 25h-117v-181h117zM324 0h-260v667h252q82 0 127 -48t45 -122q0 -61 -29.5 -100.5t-75.5 -52.5q49 -7 82.5 -54.5t33.5 -109.5q0 -81 -45 -130.5 t-130 -49.5z"/>
<glyph glyph-name="afii10020" horiz-adv-x="464" unicode="Г" d="M175 0h-111v667h365v-97h-254v-570z"/>
<glyph glyph-name="afii10021" horiz-adv-x="604" unicode="Д" d="M242 319q-14 -152 -75 -221h252v472h-155zM23 -123v210q34 5 51 19t33 66t25 155l31 340h367v-569h59v-221h-111v123h-345v-123h-110z"/>
<glyph glyph-name="afii10022" horiz-adv-x="472" unicode="Е" d="M429 0h-365v667h365v-97h-254v-181h247v-98h-247v-193h254v-98z"/>
<glyph glyph-name="afii10024" horiz-adv-x="776" unicode="Ж" d="M138 0h-131l234 352l-218 315h130l180 -279v279h110v-279l180 279h130l-218 -315l234 -352h-131l-172 275l-23 -35v-240h-110v240l-23 35z"/>
<glyph glyph-name="afii10025" horiz-adv-x="509" unicode="З" d="M246 -12q-73 0 -132 30.5t-90 78.5l68 69q25 -36 65 -57.5t84 -21.5q57 0 86 28t29 77q0 50 -33 74.5t-91 24.5h-104v98h100q54 0 86 23.5t32 68.5q0 48 -30.5 73t-81.5 25q-82 0 -136 -72l-65 64q33 49 89.5 77.5t123.5 28.5q94 0 153.5 -46.5t59.5 -132.5 q0 -58 -37 -100t-94 -54q58 -7 99 -51t41 -111q0 -85 -61 -139.5t-161 -54.5z"/>
<glyph glyph-name="afii10026" horiz-adv-x="592" unicode="И" d="M170 0h-106v667h111v-434l241 434h112v-667h-110v446z"/>
<glyph glyph-name="afii10027" horiz-adv-x="592" unicode="Й" d="M445 783q-55 -75 -149 -75q-92 0 -149 75l47 38q37 -53 102 -53t102 53zM170 0h-106v667h111v-434l241 434h112v-667h-110v446z"/>
<glyph glyph-name="afii10028" horiz-adv-x="535" unicode="К" d="M528 0h-131l-172 275l-50 -76v-199h-111v667h111v-321l207 321h130l-218 -315z"/>
<glyph glyph-name="afii10029" horiz-adv-x="593" unicode="Л" d="M24 -12v99q32 0 50.5 14.5t33.5 65.5t24 150l31 350h367v-667h-111v570h-155l-23 -261q-9 -101 -27.5 -167t-48.5 -98.5t-62 -44t-79 -11.5z"/>
<glyph glyph-name="afii10030" horiz-adv-x="713" unicode="М" d="M650 0h-110v460l-162 -460h-43l-160 460v-460h-111v667h150l143 -406l144 406h149v-667z"/>
<glyph glyph-name="afii10031" horiz-adv-x="593" unicode="Н" d="M530 0h-111v294h-244v-294h-111v667h111v-275h244v275h111v-667z"/>
<glyph glyph-name="afii10032" horiz-adv-x="612" unicode="О" d="M306 87q72 0 113 69.5t41 176.5q0 108 -41 177.5t-113 69.5q-73 0 -113.5 -69t-40.5 -178q0 -108 40.5 -177t113.5 -69zM306 -12q-124 0 -195.5 97t-71.5 248t71.5 248t195.5 97t195.5 -97t71.5 -248t-71.5 -248t-195.5 -97z"/>
<glyph glyph-name="afii10033" horiz-adv-x="593" unicode="П" d="M530 0h-111v570h-244v-570h-111v667h466v-667z"/>
<glyph glyph-name="afii10034" horiz-adv-x="513" unicode="Р" d="M278 350q44 0 70.5 30t26.5 80t-26.5 80t-70.5 30h-103v-220h103zM175 0h-111v667h227q94 0 145.5 -59.5t51.5 -147.5q0 -89 -51.5 -148.5t-145.5 -59.5h-116v-252z"/>
<glyph glyph-name="afii10035" horiz-adv-x="547" unicode="С" d="M311 -12q-124 0 -198 96.5t-74 248.5q0 153 74 249t198 96q141 0 211 -147l-92 -41q-39 90 -119 90q-72 0 -115.5 -69t-43.5 -178q0 -108 43.5 -177t115.5 -69q42 0 72.5 27t47.5 71l92 -41q-68 -156 -212 -156z"/>
<glyph glyph-name="afii10036" horiz-adv-x="462" unicode="Т" d="M286 0h-110v570h-153v97h416v-97h-153v-570z"/>
<glyph glyph-name="afii10037" horiz-adv-x="521" unicode="У" d="M120 -12q-71 0 -116 38l34 91q32 -29 72 -29q28 0 46 15t34 49l11 32l-202 483h123l139 -354l139 354h122l-232 -559q-26 -62 -66 -91t-104 -29z"/>
<glyph glyph-name="afii10038" horiz-adv-x="730" unicode="Ф" d="M152 333q0 -66 39.5 -110t117.5 -56v333q-78 -12 -117.5 -56.5t-39.5 -110.5zM577 333q0 66 -39.5 110.5t-117.5 56.5v-333q78 12 117.5 56t39.5 110zM420 0h-111v67q-131 13 -200.5 84.5t-69.5 181.5q0 109 70 181t200 85v68h111v-68q131 -13 201 -84.5t70 -181.5 t-70 -182t-201 -84v-67z"/>
<glyph glyph-name="afii10039" horiz-adv-x="535" unicode="Х" d="M533 0h-128l-138 254l-137 -254h-128l197 341l-185 326h127l126 -240l126 240h128l-185 -325z"/>
<glyph glyph-name="afii10040" horiz-adv-x="604" unicode="Ц" d="M478 -123v123h-414v667h111v-569h244v569h111v-569h59v-221h-111z"/>
<glyph glyph-name="afii10041" horiz-adv-x="541" unicode="Ч" d="M159 667v-191q0 -126 111 -126q56 0 96 15v302h111v-667h-111v267q-58 -15 -110 -15q-103 0 -155.5 61.5t-52.5 162.5v191h111z"/>
<glyph glyph-name="afii10042" horiz-adv-x="806" unicode="Ш" d="M632 667h110v-667h-678v667h110v-569h174v569h110v-569h174v569z"/>
<glyph glyph-name="afii10043" horiz-adv-x="817" unicode="Щ" d="M632 667h110v-569h59v-221h-110v123h-627v667h110v-569h174v569h110v-569h174v569z"/>
<glyph glyph-name="afii10044" horiz-adv-x="625" unicode="Ъ" d="M390 318h-104v-220h104q44 0 70 30t26 80q0 49 -26 79.5t-70 30.5zM403 0h-227v570h-153v97h263v-252h117q93 0 145 -59.5t52 -147.5q0 -89 -51.5 -148.5t-145.5 -59.5z"/>
<glyph glyph-name="afii10045" horiz-adv-x="722" unicode="Ы" d="M658 0h-111v667h111v-667zM278 318h-103v-220h103q44 0 70.5 30t26.5 80q0 49 -26.5 79.5t-70.5 30.5zM64 667h111v-252h116q94 0 145.5 -59.5t51.5 -147.5q0 -89 -51.5 -148.5t-145.5 -59.5h-227v667z"/>
<glyph glyph-name="afii10046" horiz-adv-x="513" unicode="Ь" d="M278 318h-103v-220h103q44 0 70.5 30t26.5 80q0 49 -26.5 79.5t-70.5 30.5zM64 667h111v-252h116q94 0 145.5 -59.5t51.5 -147.5q0 -89 -51.5 -148.5t-145.5 -59.5h-227v667z"/>
<glyph glyph-name="afii10047" horiz-adv-x="547" unicode="Э" d="M237 -12q-143 0 -213 156l93 41q17 -44 47.5 -71t72.5 -27q65 0 106.5 56t49.5 148h-268v98h266q-11 87 -51.5 139t-102.5 52q-79 0 -120 -90l-92 41q72 147 212 147q124 0 198 -96t74 -249q0 -152 -74 -248.5t-198 -96.5z"/>
<glyph glyph-name="afii10048" horiz-adv-x="839" unicode="Ю" d="M532 87q73 0 113.5 69t40.5 177q0 109 -40.5 178t-113.5 69q-72 0 -112.5 -69t-40.5 -178q0 -107 40.5 -176.5t112.5 -69.5zM532 -12q-116 0 -186.5 85t-79.5 221h-91v-294h-111v667h111v-275h93q14 128 83.5 207t180.5 79q124 0 196 -97t72 -248t-72 -248t-196 -97z"/>
<glyph glyph-name="afii10049" horiz-adv-x="533" unicode="Я" d="M255 350h104v220h-104q-44 0 -70 -30t-26 -80t26 -80t70 -30zM163 0h-123l129 271q-51 14 -87.5 61.5t-36.5 128.5q0 92 54 149t141 57h229v-667h-110v252h-82z"/>
<glyph glyph-name="afii10065" horiz-adv-x="467" unicode="а" d="M218 57q60 0 91 53v73q-14 25 -39 39.5t-52 14.5q-38 0 -61 -25t-23 -65t23 -65t61 -25zM408 0h-99v49q-44 -61 -127 -61q-62 0 -105 43.5t-43 117.5t43 115.5t105 41.5q85 0 127 -58v70q0 44 -24.5 68t-69.5 24q-66 0 -120 -55l-39 70q70 70 177 70q80 0 127.5 -40.5 t47.5 -124.5v-330z"/>
<glyph glyph-name="afii10066" horiz-adv-x="490" unicode="б" d="M243 -12q-100 0 -154 76.5t-54 199.5q0 185 45.5 261t163.5 96q53 9 73.5 19t20.5 27h99q0 -33 -16 -57.5t-44.5 -38.5t-52.5 -21t-55 -12q-138 -22 -150 -119q21 35 58 55.5t83 20.5q89 0 140.5 -73t51.5 -179q0 -107 -55 -181t-154 -74zM243 76q52 0 79 48.5t27 119.5 q0 68 -27 115.5t-79 47.5q-51 0 -78 -47.5t-27 -115.5q0 -71 27 -119.5t78 -48.5z"/>
<glyph glyph-name="afii10067" horiz-adv-x="487" unicode="в" d="M263 289q62 0 62 55q0 25 -15.5 40.5t-46.5 15.5h-104v-111h104zM267 84q68 0 68 60q0 26 -17.5 44t-50.5 18h-108v-122h108zM288 0h-229v483h223q71 0 108.5 -34.5t37.5 -88.5q0 -42 -22.5 -70.5t-60.5 -39.5q40 -9 66 -42.5t26 -76.5q0 -59 -37.5 -95t-111.5 -36z"/>
<glyph glyph-name="afii10068" horiz-adv-x="377" unicode="г" d="M359 483v-87h-200v-396h-100v483h300z"/>
<glyph glyph-name="afii10069" horiz-adv-x="493" unicode="д" d="M205 396l-13 -174q-7 -90 -54 -135h189v309h-122zM18 -123v202q34 7 50 35t24 116l22 253h312v-396h52v-210h-100v123h-261v-123h-99z"/>
<glyph glyph-name="afii10070" horiz-adv-x="474" unicode="е" d="M346 280q-1 53 -26.5 93.5t-78.5 40.5q-51 0 -77 -41t-29 -93h211zM252 -12q-99 0 -158 70t-59 184q0 108 56.5 180.5t150.5 72.5q95 0 148 -72t53 -185v-29h-307q3 -62 36 -100.5t90 -38.5q65 0 109 52l48 -60q-65 -74 -167 -74z"/>
<glyph glyph-name="afii10072" horiz-adv-x="620" unicode="ж" d="M125 0h-117l163 266l-160 217h116l133 -186v186h100v-186l133 186h116l-160 -217l163 -266h-117l-114 202l-21 -28v-174h-100v174l-21 28z"/>
<glyph glyph-name="afii10073" horiz-adv-x="437" unicode="з" d="M208 -12q-124 0 -190 78l49 61q52 -58 139 -58q45 0 70.5 19t25.5 51q0 65 -101 65h-90v80h88q45 0 70.5 17.5t25.5 49.5q0 29 -26.5 46t-69.5 17q-79 0 -124 -56l-51 60q66 77 172 77q91 0 145 -35t54 -96q0 -43 -32.5 -75.5t-77.5 -41.5q47 -5 82.5 -36t35.5 -80 q0 -63 -52.5 -103t-142.5 -40z"/>
<glyph glyph-name="afii10074" d="M156 0h-97v483h100v-303l165 303h102v-483h-99v313z" unicode="и"/>
<glyph glyph-name="afii10075" d="M392 616q-55 -75 -149 -75q-92 0 -149 75l47 38q37 -53 102 -53t102 53zM156 0h-97v483h100v-303l165 303h102v-483h-99v313z" unicode="й"/>
<glyph glyph-name="afii10076" horiz-adv-x="456" unicode="к" d="M448 0h-117l-114 202l-58 -78v-124h-100v483h100v-237l170 237h116l-160 -217z"/>
<glyph glyph-name="afii10077" d="M18 -12v85q31 0 48.5 33t25.5 124l22 253h312v-483h-99v396h-122l-13 -174q-10 -128 -53 -181t-121 -53z" unicode="л"/>
<glyph glyph-name="afii10078" horiz-adv-x="593" unicode="м" d="M534 0h-98v315l-119 -315h-40l-118 315v-315h-100v483h128l110 -291l110 291h127v-483z"/>
<glyph glyph-name="afii10079" d="M159 0h-100v483h100v-190h168v190h99v-483h-99v206h-168v-206z" unicode="н"/>
<glyph glyph-name="afii10080" horiz-adv-x="488" unicode="о" d="M244 76q52 0 79 48t27 118t-27 117.5t-79 47.5t-79 -47.5t-27 -117.5t27 -118t79 -48zM244 -12q-98 0 -153.5 73t-55.5 181t55 180.5t154 72.5t154 -72.5t55 -180.5t-55.5 -181t-153.5 -73z"/>
<glyph glyph-name="afii10081" d="M426 0h-99v396h-168v-396h-100v483h367v-483z" unicode="п"/>
<glyph glyph-name="afii10082" horiz-adv-x="492" unicode="р" d="M253 76q50 0 76.5 46.5t26.5 119.5t-26.5 119t-76.5 46q-28 0 -54.5 -19t-39.5 -47v-198q13 -28 39.5 -47.5t54.5 -19.5zM283 -12q-81 0 -124 77v-249h-100v667h100v-64q21 36 54 56t70 20q82 0 129 -68t47 -185q0 -116 -47.5 -185t-128.5 -69z"/>
<glyph glyph-name="afii10083" horiz-adv-x="415" unicode="с" d="M247 -12q-95 0 -153.5 71.5t-58.5 182.5t58 182t154 71q95 0 147 -65l-51 -68q-35 45 -86 45q-55 0 -87 -47t-32 -118q0 -72 32 -119t87 -47q50 0 86 45l51 -68q-52 -65 -147 -65z"/>
<glyph glyph-name="afii10084" horiz-adv-x="354" unicode="т" d="M227 0h-100v396h-109v87h318v-87h-109v-396z"/>
<glyph glyph-name="afii10085" horiz-adv-x="430" unicode="у" d="M42 -189l15 88q13 -7 32 -7q40 0 55 40l20 58l-162 493h106l107 -363l108 363h106l-191 -574q-19 -58 -53.5 -81.5t-88.5 -23.5q-31 0 -54 7z"/>
<glyph glyph-name="afii10086" horiz-adv-x="722" unicode="ф" d="M486 76q41 0 64 47t23 119q0 73 -22 119t-63 46q-23 0 -44.5 -19t-32.5 -47v-198q11 -28 32 -47.5t43 -19.5zM234 407q-41 0 -63 -46t-22 -119q0 -72 23 -119t64 -47q22 0 43 19.5t32 47.5v198q-11 28 -32.5 47t-44.5 19zM202 495q69 0 109 -76v248h100v-248 q40 76 109 76q72 0 113.5 -68t41.5 -185q0 -116 -41.5 -185t-113.5 -69q-70 0 -109 77v-249h-100v249q-18 -37 -47 -57t-62 -20q-72 0 -113.5 68.5t-41.5 185.5t41.5 185t113.5 68z"/>
<glyph glyph-name="afii10087" horiz-adv-x="424" unicode="х" d="M418 0h-109l-97 176l-97 -176h-109l144 246l-136 237h109l89 -166l89 166h109l-136 -237z"/>
<glyph glyph-name="afii10088" horiz-adv-x="493" unicode="ц" d="M378 -123v123h-319v483h100v-396h168v396h99v-396h52v-210h-100z"/>
<glyph glyph-name="afii10089" horiz-adv-x="470" unicode="ч" d="M45 483h99v-142q0 -41 20 -58.5t66 -17.5q48 0 82 16v202h99v-483h-99v203q-45 -26 -113 -26q-84 0 -119 32t-35 98v176z"/>
<glyph glyph-name="afii10090" horiz-adv-x="688" unicode="ш" d="M529 483h100v-483h-570v483h100v-396h135v396h100v-396h135v396z"/>
<glyph glyph-name="afii10091" horiz-adv-x="701" unicode="щ" d="M529 483h100v-396h56v-210h-99v123h-527v483h100v-396h135v396h100v-396h135v396z"/>
<glyph glyph-name="afii10092" horiz-adv-x="527" unicode="ъ" d="M322 222h-95v-138h95q34 0 53 19t19 50q0 30 -19 49.5t-53 19.5zM334 0h-207v396h-109v87h209v-177h107q79 0 120.5 -44t41.5 -110q0 -65 -42.5 -108.5t-119.5 -43.5z"/>
<glyph glyph-name="afii10093" horiz-adv-x="648" unicode="ы" d="M589 0h-99v483h99v-483zM254 222h-95v-138h95q34 0 53 19t19 50q0 30 -19 49.5t-53 19.5zM59 483h100v-177h107q79 0 120.5 -44t41.5 -110q0 -65 -42.5 -108.5t-119.5 -43.5h-207v483z"/>
<glyph glyph-name="afii10094" horiz-adv-x="459" unicode="ь" d="M254 222h-95v-138h95q34 0 53 19t19 50q0 30 -19 49.5t-53 19.5zM59 483h100v-177h107q79 0 120.5 -44t41.5 -110q0 -65 -42.5 -108.5t-119.5 -43.5h-207v483z"/>
<glyph glyph-name="afii10095" horiz-adv-x="415" unicode="э" d="M169 -12q-96 0 -147 65l49 64q36 -47 88 -47q47 0 77 35.5t39 95.5h-180v86h179q-8 59 -38 93t-77 34q-52 0 -88 -47l-49 63q51 65 147 65t154 -71t58 -182t-58.5 -182.5t-153.5 -71.5z"/>
<glyph glyph-name="afii10096" horiz-adv-x="688" unicode="ю" d="M444 76q52 0 79 47.5t27 118.5t-27 118t-79 47t-78.5 -47t-26.5 -118t26.5 -118.5t78.5 -47.5zM444 -12q-89 0 -144 61.5t-64 156.5h-77v-206h-100v483h100v-190h79q13 89 66.5 145.5t139.5 56.5q99 0 154 -72.5t55 -180.5t-55 -181t-154 -73z"/>
<glyph glyph-name="afii10097" horiz-adv-x="482" unicode="я" d="M222 261h101v139h-101q-34 0 -53.5 -19t-19.5 -50t19 -50.5t54 -19.5zM155 0h-114l104 190q-41 11 -69 47.5t-28 93.5q0 66 43 109t119 43h213v-483h-100v178h-80z"/>
<glyph glyph-name="afii10071" horiz-adv-x="474" unicode="ё" d="M346 280q-1 53 -26.5 93.5t-78.5 40.5q-51 0 -77 -41t-29 -93h211zM252 -12q-99 0 -158 70t-59 184q0 108 56.5 180.5t150.5 72.5q95 0 148 -72t53 -185v-29h-307q3 -62 36 -100.5t90 -38.5q65 0 109 52l48 -60q-65 -74 -167 -74zM208 607q0 -23 -16.5 -39.5t-39.5 -16.5 t-40 16.5t-17 39.5t17 39.5t40 16.5t39.5 -16.5t16.5 -39.5zM390 607q0 -23 -17 -39.5t-40 -16.5t-39.5 16.5t-16.5 39.5t16.5 39.5t39.5 16.5t40 -16.5t17 -39.5z"/>
<glyph glyph-name="afii10099" horiz-adv-x="493" unicode="ђ" d="M300 532h-133v-114q21 32 59.5 54.5t81.5 22.5q126 0 126 -130v-406q0 -155 -140 -155q-52 0 -86 31l28 75q20 -22 47 -22q52 0 52 71v371q0 77 -70 77q-30 0 -56 -19.5t-42 -47.5v-340h-100v532h-53v60h53v75h100v-75h133v-60z"/>
<glyph glyph-name="afii10100" horiz-adv-x="377" unicode="ѓ" d="M359 483v-87h-200v-396h-100v483h300zM360 700l-134 -144h-68l110 144h92z"/>
<glyph glyph-name="afii10101" horiz-adv-x="415" unicode="є" d="M247 -12q-95 0 -153.5 71.5t-58.5 182.5t58 182t154 71q95 0 147 -65l-49 -63q-38 47 -88 47q-47 0 -77.5 -34.5t-38.5 -92.5h180v-86h-180q8 -59 38 -95t78 -36q50 0 88 47l49 -64q-52 -65 -147 -65z"/>
<glyph glyph-name="afii10102" horiz-adv-x="401" unicode="ѕ" d="M198 -12q-113 0 -177 69l45 70q23 -25 58.5 -42.5t71.5 -17.5q37 0 58.5 17t21.5 46q0 25 -24.5 42t-60 29t-70.5 27.5t-59.5 48t-24.5 80.5q0 59 44.5 98.5t121.5 39.5q95 0 159 -62l-42 -68q-42 51 -115 51q-33 0 -53.5 -16t-20.5 -40q0 -20 18 -34.5t44.5 -22.5 t57.5 -21.5t57.5 -29.5t44.5 -47t18 -73q0 -63 -47.5 -103.5t-125.5 -40.5z"/>
<glyph glyph-name="afii10103" horiz-adv-x="218" unicode="і" d="M159 0h-100v483h100v-483zM109 544q-26 0 -44.5 18.5t-18.5 43.5q0 26 18.5 44.5t44.5 18.5t44 -18.5t18 -44.5t-18.5 -44t-43.5 -18z"/>
<glyph glyph-name="afii10104" horiz-adv-x="218" unicode="ї" d="M159 0h-100v483h100v-483zM74 607q0 -23 -16.5 -39.5t-39.5 -16.5t-40 16.5t-17 39.5t17 39.5t40 16.5t39.5 -16.5t16.5 -39.5zM256 607q0 -23 -17 -39.5t-40 -16.5t-39.5 16.5t-16.5 39.5t16.5 39.5t39.5 16.5t40 -16.5t17 -39.5z"/>
<glyph glyph-name="afii10105" horiz-adv-x="218" unicode="ј" d="M19 -196q-53 0 -87 31l28 75q20 -22 47 -22q52 0 52 71v524h100v-524q0 -155 -140 -155zM109 544q-26 0 -44.5 18.5t-18.5 43.5q0 26 18.5 44.5t44.5 18.5t44 -18.5t18 -44.5t-18.5 -44t-43.5 -18z"/>
<glyph glyph-name="afii10106" horiz-adv-x="727" unicode="љ" d="M521 222h-95v-138h95q35 0 54 19t19 50q0 30 -19 49.5t-54 19.5zM18 -12v85q31 0 48.5 33t25.5 124l22 253h312v-177h107q79 0 121 -44t42 -110q0 -65 -42.5 -108.5t-120.5 -43.5h-206v396h-122l-13 -174q-10 -128 -53 -181t-121 -53z"/>
<glyph glyph-name="afii10107" horiz-adv-x="727" unicode="њ" d="M525 210h-99v-126h99q33 0 51 17t18 45q0 29 -18 46.5t-51 17.5zM159 0h-100v483h100v-190h168v190h99v-190h111q77 0 118 -41.5t41 -105.5q0 -63 -41.5 -104.5t-117.5 -41.5h-210v206h-168v-206z"/>
<glyph glyph-name="afii10108" horiz-adv-x="493" unicode="ћ" d="M303 532h-136v-114q21 32 59.5 54.5t81.5 22.5q126 0 126 -130v-365h-99v331q0 76 -70 76q-30 0 -56 -19.5t-42 -47.5v-340h-100v532h-53v60h53v75h100v-75h136v-60z"/>
<glyph glyph-name="afii10109" horiz-adv-x="456" unicode="ќ" d="M448 0h-117l-114 202l-58 -78v-124h-100v483h100v-237l170 237h116l-160 -217zM381 700l-134 -144h-68l110 144h92z"/>
<glyph glyph-name="afii10110" horiz-adv-x="430" unicode="ў" d="M364 616q-55 -75 -149 -75q-92 0 -149 75l47 38q37 -53 102 -53t102 53zM42 -189l15 88q13 -7 32 -7q40 0 55 40l20 58l-162 493h106l107 -363l108 363h106l-191 -574q-19 -58 -53.5 -81.5t-88.5 -23.5q-31 0 -54 7z"/>
<glyph glyph-name="afii10193" d="M193 -128v128h-134v483h100v-396h168v396h99v-483h-133v-128h-100z" unicode="џ"/>
<glyph glyph-name="afii10050" horiz-adv-x="464" unicode="Ґ" d="M175 570v-570h-111v667h255v123h110v-220h-254z"/>
<glyph glyph-name="afii10098" horiz-adv-x="377" unicode="ґ" d="M159 396v-396h-100v483h200v128h100v-215h-200z"/>
<glyph glyph-name="thinspace" horiz-adv-x="42" unicode=" "/>
<glyph glyph-name="endash" horiz-adv-x="527" unicode="–" d="M497 199h-467v86h467v-86z"/>
<glyph glyph-name="emdash" horiz-adv-x="737" unicode="—" d="M707 199h-677v86h677v-86z"/>
<glyph glyph-name="quoteleft" horiz-adv-x="243" unicode="‘" d="M47 511q0 50 25 93.5t66 72.5l46 -36q-25 -16 -46 -42.5t-25 -51.5q6 2 16 2q25 0 41.5 -17t16.5 -44q0 -26 -19.5 -45.5t-46.5 -19.5q-31 0 -52.5 24t-21.5 64z"/>
<glyph glyph-name="quotesinglbase" horiz-adv-x="242" unicode="‚" d="M194 35q0 -50 -25 -94t-67 -73l-45 37q25 15 45.5 42t25.5 52q-6 -2 -16 -2q-25 0 -41.5 17t-16.5 44t19 46.5t46 19.5q31 0 53 -24t22 -65z"/>
<glyph glyph-name="quotedblleft" horiz-adv-x="423" unicode="“" d="M229 511q0 50 25 93.5t66 72.5l46 -36q-25 -16 -45.5 -42.5t-24.5 -51.5q4 2 16 2q24 0 40.5 -17t16.5 -44q0 -26 -19 -45.5t-46 -19.5q-31 0 -53 24t-22 64zM49 511q0 50 25 93.5t66 72.5l46 -36q-25 -16 -46 -42.5t-25 -51.5q4 2 16 2q24 0 40.5 -17t16.5 -44t-19 -46 t-46 -19q-31 0 -52.5 24t-21.5 64z"/>
<glyph glyph-name="quotedblright" horiz-adv-x="423" unicode="”" d="M194 589q0 -50 -25 -94t-67 -73l-45 37q25 15 45.5 42t25.5 52q-9 -3 -16 -3q-25 0 -41.5 17.5t-16.5 43.5q0 27 19 46.5t46 19.5q31 0 53 -24t22 -64zM374 589q0 -49 -25 -93t-66 -74l-46 37q25 16 46 42.5t25 51.5q-9 -3 -16 -3q-25 0 -41.5 17.5t-16.5 43.5 q0 27 19.5 46.5t46.5 19.5q31 0 52.5 -24t21.5 -64z"/>
<glyph glyph-name="dagger" horiz-adv-x="270" unicode="†" d="M248 527l-89 4l4 -204h-57l5 204l-89 -4v52l89 -3l-5 101h57l-4 -101l89 3v-52z"/>
<glyph glyph-name="daggerdbl" horiz-adv-x="270" unicode="‡" d="M248 579v-52l-89 4v-204l89 4v-52l-89 3l4 -102h-57l4 102l-88 -3v52l88 -4v204l-88 -4v52l88 -3l-4 101h57l-4 -101z"/>
<glyph glyph-name="ellipsis" horiz-adv-x="726" unicode="…" d="M672 57q0 -27 -20 -47.5t-48 -20.5q-27 0 -46.5 20.5t-19.5 47.5t19.5 47t46.5 20q28 0 48 -20t20 -47zM430 57q0 -27 -20 -47.5t-48 -20.5q-27 0 -46.5 20.5t-19.5 47.5t19.5 47t46.5 20q28 0 48 -20t20 -47zM188 57q0 -27 -20 -47.5t-48 -20.5q-27 0 -46.5 20.5 t-19.5 47.5t19.5 47t46.5 20q28 0 48 -20t20 -47z"/>
<glyph glyph-name="perthousand" horiz-adv-x="980" unicode="‰" d="M883 152q0 47 -20.5 76.5t-54.5 29.5t-54 -29t-20 -77q0 -46 20 -74.5t54 -28.5t54.5 28.5t20.5 74.5zM954 152q0 -71 -40.5 -117.5t-105.5 -46.5t-105 46.5t-40 117.5q0 72 40 119.5t105 47.5t105.5 -47.5t40.5 -119.5zM566 152q0 47 -20.5 76.5t-54.5 29.5t-54 -29 t-20 -77q0 -46 20 -74.5t54 -28.5t54.5 28.5t20.5 74.5zM246 511q0 47 -20 76t-54 29t-54 -29t-20 -76q0 -46 20.5 -75t53.5 -29t53.5 29t20.5 75zM637 152q0 -71 -40.5 -117.5t-105.5 -46.5t-105 46.5t-40 117.5q0 72 40 119.5t105 47.5t105.5 -47.5t40.5 -119.5zM537 667 l-352 -667h-56l351 667h57zM318 511q0 -71 -40.5 -117.5t-105.5 -46.5t-105.5 46.5t-40.5 117.5q0 72 40.5 119t105.5 47t105.5 -47t40.5 -119z"/>
<glyph glyph-name="guilsinglleft" horiz-adv-x="272" unicode="‹" d="M242 63h-87l-125 180l125 177h87l-125 -177z"/>
<glyph glyph-name="guilsinglright" horiz-adv-x="272" unicode="›" d="M242 243l-125 -180h-87l125 180l-125 177h87z"/>
<glyph glyph-name="uni203E" horiz-adv-x="309" unicode="‾" d="M309 567h-309v60h309v-60z"/>
<glyph glyph-name="fraction" horiz-adv-x="138" unicode="⁄" d="M273 667l-352 -667h-57l352 667h57z"/>
<glyph glyph-name="Euro" horiz-adv-x="565" unicode="€" d="M330 -12q-102 0 -171 66t-91 178h-48v64h39q-1 12 -1 37q0 27 1 40h-39v64h48q23 111 92 176t170 65q141 0 211 -147l-92 -41q-39 90 -119 90q-53 0 -91 -38t-56 -105h190v-64h-200q-2 -26 -2 -40q0 -25 1 -37h201v-64h-191q17 -67 55.5 -106t92.5 -39q42 0 72.5 27 t47.5 71l92 -41q-68 -156 -212 -156z"/>
<glyph glyph-name="trademark" horiz-adv-x="414" unicode="™" d="M149 641h-52v-194h-28v194h-52v26h132v-26zM379 447h-28v182l-65 -182h-8l-65 182v-182h-28v220h43l54 -158l54 158h43v-220z"/>
<glyph glyph-name="arrowleft" horiz-adv-x="582" unicode="←" d="M538 211h-269l12 -130l-281 205l281 204l-12 -129h269v-150z"/>
<glyph glyph-name="arrowup" horiz-adv-x="582" unicode="↑" d="M216 17v269l-130 -12l205 281l204 -281l-129 12v-269h-150z"/>
<glyph glyph-name="arrowright" horiz-adv-x="582" unicode="→" d="M584 286l-281 -205l12 130h-268v150h268l-12 129z"/>
<glyph glyph-name="arrowdown" horiz-adv-x="582" unicode="↓" d="M366 555v-269l130 12l-205 -281l-204 281l129 -12v269h150z"/>
<glyph glyph-name="partialdiff" horiz-adv-x="488" unicode="∂" d="M244 76q52 0 79 44t27 110q0 65 -27 108.5t-79 43.5t-79 -43.5t-27 -108.5q0 -66 27 -110t79 -44zM244 -12q-98 0 -153.5 70t-55.5 172q0 101 49.5 170.5t131.5 69.5q80 0 121 -72q-45 145 -164 235l81 49q88 -81 143.5 -192.5t55.5 -241.5q0 -115 -55 -187.5t-154 -72.5 z"/>
<glyph glyph-name="product" horiz-adv-x="615" unicode="∏" d="M513 -90h-110v660h-190v-660h-111v660h-79v97h569v-97h-79v-660z"/>
<glyph glyph-name="summation" horiz-adv-x="464" unicode="∑" d="M171 570l162 -272l-166 -290h257v-98h-380v100l164 288l-164 272v97h380v-97h-253z"/>
<glyph glyph-name="minus" horiz-adv-x="442" unicode="−" d="M413 305h-384v65h384v-65z"/>
<glyph glyph-name="radical" horiz-adv-x="583" unicode="√" d="M352 0h-71l-94 311l-121 -37l-17 63l184 53l85 -289l171 566h71z"/>
<glyph glyph-name="infinity" horiz-adv-x="582" unicode="∞" d="M175 229q55 0 88 106q-33 107 -88 107q-36 0 -58 -29.5t-22 -77.5q0 -47 22 -76.5t58 -29.5zM407 230q36 0 57.5 29t21.5 76q0 48 -21.5 77.5t-57.5 29.5q-56 0 -87 -107q31 -105 87 -105zM165 165q-67 0 -101.5 50.5t-34.5 119.5q0 70 34.5 120.5t101.5 50.5 q82 0 126 -104q18 45 51 74.5t74 29.5q68 0 102.5 -50.5t34.5 -120.5q0 -69 -34.5 -119.5t-102.5 -50.5q-41 0 -74 29t-51 75q-43 -104 -126 -104z"/>
<glyph glyph-name="approxequal" horiz-adv-x="442" unicode="≈" d="M29 393v70q43 -25 96 -25q39 0 90.5 22t100.5 22q55 0 97 -20v-70q-43 25 -97 25q-39 0 -90.5 -22t-100.5 -22q-51 0 -96 20zM29 206v70q43 -25 96 -25q39 0 90.5 22t100.5 22q55 0 97 -20v-70q-44 26 -97 26q-39 0 -90.5 -22.5t-100.5 -22.5q-54 0 -96 20z"/>
<glyph glyph-name="notequal" horiz-adv-x="442" unicode="≠" d="M122 93h-56l59 113h-96v65h130l67 126h-197v65h231l59 112h57l-59 -112h96v-65h-131l-66 -126h197v-65h-231z"/>
<glyph glyph-name="lessequal" horiz-adv-x="442" unicode="≤" d="M413 17h-384v65h384v-65zM413 132l-384 175v71l384 175v-77l-307 -134l307 -133v-77z"/>
<glyph glyph-name="greaterequal" horiz-adv-x="442" unicode="≥" d="M412 17h-383v65h383v-65zM412 307l-383 -175v77l307 133l-307 134v77l383 -175v-71z"/>
<glyph glyph-name="dotmath" horiz-adv-x="242" unicode="⋅" d="M188 245q0 -27 -19.5 -47t-47.5 -20t-47.5 20t-19.5 47t19.5 47t47.5 20t47.5 -20t19.5 -47z"/>
<glyph glyph-name="lozenge" horiz-adv-x="375" unicode="◊" d="M188 41l132 293l-133 292l-132 -292zM198 0h-21l-158 334l158 333h21l158 -333z"/>
<glyph glyph-name="diamond" horiz-adv-x="501" unicode="♦" d="M501 285l-251 -250l-250 250l250 251z"/>
</font>
</defs>
</svg>
