<?xml version="1.0" encoding="UTF-8" standalone="no"?>
<!DOCTYPE svg  PUBLIC '-//W3C//DTD SVG 1.1//EN'  'http://www.w3.org/Graphics/SVG/1.1/DTD/svg11.dtd'>
<svg xmlns="http://www.w3.org/2000/svg">
<defs>
<font id="ProximaNovaExCn-Thin" horiz-adv-x="342">
<font-face underline-position="-113" font-weight="250" descent="-200" panose-1="2 0 5 6 3 0 0 2 0 4" units-per-em="1000" unicode-range="U+0020-2666" bbox="-101 -199 781 867" x-height="483" underline-thickness="20" font-family="ProximaNovaExCn" ascent="800" cap-height="667"/>
<missing-glyph horiz-adv-x="1000"/>
<glyph glyph-name=".notdef" horiz-adv-x="1000"/>
<glyph glyph-name=".null" horiz-adv-x="0"/>
<glyph glyph-name=".null" horiz-adv-x="0"/>
<glyph glyph-name="nonmarkingreturn" horiz-adv-x="333"/>
<glyph glyph-name="space" horiz-adv-x="180" unicode=" "/>
<glyph glyph-name="exclam" horiz-adv-x="208" unicode="!" d="M104 -9q-14 0 -23.5 9.5t-9.5 23.5q0 13 10 22.5t23 9.5t23 -9.5t10 -22.5q0 -14 -9.5 -23.5t-23.5 -9.5zM114 161h-20l-11 506h42z"/>
<glyph glyph-name="quotedbl" horiz-adv-x="290" unicode='&quot;' d="M213 443h-22q-15 197 -15 208t7.5 18.5t18.5 7.5t18.5 -7.5t7.5 -18.5zM99 443h-22q-15 197 -15 208t8 18.5t18 7.5t18 -7.5t8 -18.5z"/>
<glyph glyph-name="numbersign" horiz-adv-x="395" unicode="#" d="M209 220l54 227h-77l-53 -227h76zM191 0h-33l46 191h-78l-44 -191h-33l45 191h-76l6 29h77l53 227h-77l5 29h78l44 191h33l-44 -191h77l44 191h32l-44 -191h75l-5 -29h-77l-53 -227h78l-6 -29h-79z"/>
<glyph glyph-name="dollar" horiz-adv-x="304" unicode="$" d="M248 147q0 80 -66 155v-276q30 13 48 45t18 76zM77 532q0 -43 19 -77t54 -71v261q-31 -8 -52 -38t-21 -75zM145 -12q-71 0 -118 57l24 26q16 -24 42 -38.5t52 -14.5h5v317q-36 36 -52.5 55t-34.5 58.5t-18 83.5q0 59 30 97.5t75 46.5v92h32v-91q51 -3 85 -40l-19 -25 q-29 32 -66 35v-295q31 -33 48.5 -56t33.5 -63.5t16 -85.5q0 -57 -26.5 -99t-71.5 -55v-93h-32v88h-5z"/>
<glyph glyph-name="percent" horiz-adv-x="555" unicode="%" d="M406 15q37 0 58.5 39t21.5 96q0 58 -21.5 97.5t-58.5 39.5t-58.5 -39.5t-21.5 -97.5q0 -57 21.5 -96t58.5 -39zM149 378q37 0 58.5 39t21.5 96q0 58 -21.5 97.5t-58.5 39.5t-58.5 -39.5t-21.5 -97.5q0 -57 21.5 -96t58.5 -39zM406 -12q-51 0 -82 45.5t-31 116.5 q0 72 31 118t82 46t82 -46t31 -118q0 -71 -31 -116.5t-82 -45.5zM159 0h-32l269 667h33zM149 351q-51 0 -82 45.5t-31 116.5q0 72 31 118t82 46q52 0 82.5 -46t30.5 -118q0 -71 -30.5 -116.5t-82.5 -45.5z"/>
<glyph glyph-name="ampersand" horiz-adv-x="358" unicode="&amp;" d="M131 517q0 -54 23 -126q35 43 52.5 80t17.5 88q0 44 -13 66t-31 22q-49 0 -49 -130zM153 18q48 0 89 97q-38 71 -55 110q-23 47 -46 105q-59 -81 -59 -177q0 -67 20 -101t51 -34zM345 0h-39l-46 81q-45 -93 -106 -93q-48 0 -77.5 44.5t-29.5 120.5q0 68 21.5 115t61.5 95 q-34 94 -34 154q0 75 21.5 117.5t62.5 42.5q31 0 52.5 -33t21.5 -85q0 -42 -14 -79.5t-27 -56.5t-41 -53q-5 -7 -8 -10q20 -57 46 -112q26 -58 46 -95q20 61 38 160l30 -11q-20 -114 -49 -186q25 -43 70 -116z"/>
<glyph glyph-name="quotesingle" horiz-adv-x="176" unicode="&apos;" d="M99 443h-22q-15 197 -15 208t8 18.5t18 7.5t18 -7.5t8 -18.5z"/>
<glyph glyph-name="parenleft" horiz-adv-x="167" unicode="(" d="M150 -192l-18 -7q-85 206 -85 442t85 442l18 -6q-68 -217 -68 -436t68 -435z"/>
<glyph glyph-name="parenright" horiz-adv-x="167" unicode=")" d="M35 -199l-18 7q68 216 68 435t-68 436l18 6q85 -206 85 -442t-85 -442z"/>
<glyph glyph-name="asterisk" horiz-adv-x="288" unicode="*" d="M159 409h-30l6 119l-100 -65l-15 26l106 54l-106 54l15 26l100 -65l-6 119h30l-6 -119l100 65l15 -26l-106 -54l106 -54l-15 -26l-100 65z"/>
<glyph glyph-name="plus" horiz-adv-x="374" unicode="+" d="M345 322h-142v-162h-32v162h-142v30h142v156h32v-156h142v-30z"/>
<glyph glyph-name="comma" horiz-adv-x="208" unicode="," d="M141 3q0 -36 -18 -69.5t-44 -51.5l-22 18q24 18 38.5 43.5t14.5 48.5q-5 -1 -7 -1q-14 0 -23 9.5t-9 23.5q0 13 9 22.5t23 9.5q16 0 27 -14t11 -39z"/>
<glyph glyph-name="hyphen" horiz-adv-x="230" unicode="-" d="M200 227h-170v30h170v-30z"/>
<glyph glyph-name="period" horiz-adv-x="208" unicode="." d="M104 -9q-14 0 -23.5 9.5t-9.5 23.5q0 13 10 22.5t23 9.5t23 -9.5t10 -22.5q0 -14 -9.5 -23.5t-23.5 -9.5z"/>
<glyph glyph-name="slash" horiz-adv-x="177" unicode="/" d="M30 -20h-30l147 707h30z"/>
<glyph glyph-name="zero" horiz-adv-x="377" unicode="0" d="M189 18q27 0 46.5 22t29.5 52t15.5 77t7 82t1.5 82t-1.5 82t-7 82t-15.5 77t-29.5 51.5t-46.5 21.5q-33 0 -55 -29.5t-31 -82.5t-12 -97.5t-3 -104.5q0 -39 1 -67.5t4 -69t9.5 -69t17.5 -55t28.5 -40.5t40.5 -14zM189 -12q-136 0 -136 345q0 344 136 344q135 0 135 -344 q0 -345 -135 -345z"/>
<glyph glyph-name="one" horiz-adv-x="243" unicode="1" d="M171 0h-32v621l-105 -115l-22 23l129 138h30v-667z"/>
<glyph glyph-name="two" horiz-adv-x="348" unicode="2" d="M295 0h-235v28q131 253 165.5 341.5t34.5 159.5q0 52 -23.5 85t-59.5 33q-62 0 -95 -92l-31 14q24 56 52 82t74 26q54 0 86 -41.5t32 -106.5q0 -69 -37.5 -165.5t-163.5 -333.5h201v-30z"/>
<glyph glyph-name="three" horiz-adv-x="347" unicode="3" d="M164 -12q-45 0 -78 32.5t-50 82.5l31 13q36 -98 97 -98q95 0 95 160q0 83 -29.5 117.5t-67.5 34.5q-28 0 -34 -1v32q8 -1 34 -1q40 0 65 36t25 103q0 148 -87 148q-34 0 -54.5 -23.5t-36.5 -66.5l-31 13q16 50 49.5 78.5t72.5 28.5q56 0 89.5 -43t33.5 -131 q0 -55 -22 -99t-62 -59q37 -9 63.5 -56t26.5 -112q0 -86 -31 -137.5t-99 -51.5z"/>
<glyph glyph-name="four" horiz-adv-x="310" unicode="4" d="M211 225v391l-168 -391h168zM243 0h-32v195h-199v33l189 439h42v-442h55v-30h-55v-195z"/>
<glyph glyph-name="five" horiz-adv-x="348" unicode="5" d="M174 -12q-53 0 -79.5 28.5t-47.5 86.5l32 11q13 -49 35 -72.5t60 -23.5q43 0 67 53.5t24 126.5q0 182 -83 182q-28 0 -48 -14.5t-44 -54.5l-27 16v340h214v-30h-182v-284q34 57 87 57q55 0 86.5 -54.5t31.5 -157.5q0 -85 -34.5 -147.5t-91.5 -62.5z"/>
<glyph glyph-name="six" horiz-adv-x="350" unicode="6" d="M184 18q88 0 88 178q0 180 -85 180q-64 0 -98 -130q3 -228 95 -228zM184 -12q-41 0 -68.5 29t-40.5 83t-17.5 108t-4.5 125q0 70 5 123.5t19 107.5t44 83.5t74 29.5q38 0 67 -25.5t43 -70.5l-28 -15q-25 81 -82 81q-107 0 -107 -324v-19q14 44 39 73t61 29q53 0 86 -53.5 t33 -156.5q0 -85 -29.5 -146.5t-93.5 -61.5z"/>
<glyph glyph-name="seven" horiz-adv-x="278" unicode="7" d="M112 0h-33l141 637h-196v30h230v-22z"/>
<glyph glyph-name="eight" horiz-adv-x="348" unicode="8" d="M174 18q41 0 66 36t25 101q0 48 -20 90.5t-40 62.5t-31 22q-11 -2 -31 -22t-40 -63t-20 -91q0 -64 25 -100t66 -36zM174 359q7 3 18.5 13t27.5 28.5t27 49.5t11 66q0 61 -21 96t-63 35t-63 -35t-21 -96q0 -35 11 -66t27 -49.5t27.5 -28.5t18.5 -13zM174 -12 q-61 0 -93.5 44.5t-32.5 121.5q0 62 31.5 113.5t68.5 76.5q-34 24 -63.5 69t-29.5 103q0 77 33 119t86 42q54 0 86.5 -42t32.5 -119q0 -57 -29 -102.5t-63 -69.5q36 -26 67.5 -77t31.5 -112q0 -77 -33 -122t-93 -45z"/>
<glyph glyph-name="nine" horiz-adv-x="350" unicode="9" d="M163 290q64 0 98 130q-3 228 -95 228q-88 0 -88 -178q0 -180 85 -180zM155 -11q-38 0 -67 25.5t-43 70.5l28 15q25 -81 82 -81q107 0 107 324v19q-14 -44 -39 -73t-61 -29q-53 0 -86 53.5t-33 156.5q0 85 29.5 146.5t93.5 61.5q41 0 68.5 -29t40.5 -83t17.5 -108 t4.5 -125q0 -70 -5 -123.5t-19 -107.5t-44 -83.5t-74 -29.5z"/>
<glyph glyph-name="colon" horiz-adv-x="208" unicode=":" d="M104 -9q-14 0 -23.5 9.5t-9.5 23.5q0 13 10 22.5t23 9.5t23 -9.5t10 -22.5q0 -14 -9.5 -23.5t-23.5 -9.5zM104 425q-13 0 -23 9.5t-10 22.5t9.5 23t23.5 10t23.5 -10t9.5 -23t-10 -22.5t-23 -9.5z"/>
<glyph glyph-name="semicolon" horiz-adv-x="208" unicode=";" d="M141 3q0 -36 -18 -69.5t-44 -51.5l-22 18q24 18 38.5 43.5t14.5 48.5q-5 -1 -7 -1q-14 0 -23 9.5t-9 23.5q0 13 9 22.5t23 9.5q16 0 27 -14t11 -39zM104 425q-13 0 -23 9.5t-10 22.5t9.5 23t23.5 10t23.5 -10t9.5 -23t-10 -22.5t-23 -9.5z"/>
<glyph glyph-name="less" horiz-adv-x="374" unicode="&lt;" d="M345 166l-316 158v21l316 158v-36l-275 -133l275 -132v-36z"/>
<glyph glyph-name="equal" horiz-adv-x="374" unicode="=" d="M345 220h-316v30h316v-30zM345 418h-316v30h316v-30z"/>
<glyph glyph-name="greater" horiz-adv-x="374" unicode="&gt;" d="M345 324l-316 -158v36l275 132l-275 133v36l316 -158v-21z"/>
<glyph glyph-name="question" horiz-adv-x="302" unicode="?" d="M155 -9q-13 0 -23 9.5t-10 23.5q0 13 10 22.5t23 9.5t23 -9.5t10 -22.5q0 -14 -10 -23.5t-23 -9.5zM148 169q-28 35 -28 80q0 43 18.5 80.5t40.5 61.5t40.5 63.5t18.5 84.5q0 41 -26 75t-67 34q-42 0 -78 -36l-19 25q37 41 97 41q52 0 88.5 -41t36.5 -98q0 -48 -18.5 -90 t-40.5 -66.5t-40.5 -60t-18.5 -73.5q0 -37 23 -60z"/>
<glyph glyph-name="at" horiz-adv-x="569" unicode="@" d="M234 112q24 0 46.5 16.5t34.5 32.5t31 46l40 183q-15 83 -63 83q-43 0 -77.5 -46t-50.5 -106t-16 -117q0 -92 55 -92zM256 -70q-97 0 -159 77.5t-62 208.5q0 106 43 203.5t116 158.5t154 61q85 0 135.5 -65t50.5 -182q0 -129 -42 -218t-90 -89q-31 0 -48 20.5t-17 51.5v6 q-47 -78 -103 -78q-36 0 -62 28.5t-26 90.5q0 69 21 136t63 113.5t93 46.5q28 0 46.5 -22t24.5 -56l12 60h30l-63 -299q-3 -15 -3 -22v-5q0 -26 7 -35t23 -9q18 0 41.5 29.5t43.5 97.5t20 153q0 105 -43.5 161t-113.5 56q-73 0 -138.5 -57.5t-103.5 -148.5t-38 -187 q0 -119 54.5 -188t137.5 -69q68 0 128 57l14 -23q-68 -63 -146 -63z"/>
<glyph glyph-name="A" horiz-adv-x="312" unicode="A" d="M230 209l-74 411l-74 -411h148zM300 0h-33l-32 179h-158l-32 -179h-33l125 667h38z"/>
<glyph glyph-name="B" horiz-adv-x="360" unicode="B" d="M172 30q100 0 100 149q0 64 -24 106.5t-76 42.5h-68v-298h68zM168 358q95 0 95 139q0 140 -95 140h-64v-279h64zM172 0h-100v667h96q60 0 95 -44.5t35 -125.5q0 -120 -78 -153q38 -7 62.5 -55.5t24.5 -108.5q0 -87 -34 -133.5t-101 -46.5z"/>
<glyph glyph-name="C" horiz-adv-x="357" unicode="C" d="M198 -12q-52 0 -85.5 48t-46.5 122t-13 175t13 175t46.5 122t85.5 48q79 0 113 -103l-30 -12q-15 43 -33 64t-50 21q-56 0 -83 -87t-27 -228t27 -228t83 -87q35 0 54 27t32 78l30 -12q-29 -123 -116 -123z"/>
<glyph glyph-name="D" horiz-adv-x="386" unicode="D" d="M165 30q133 0 133 303q0 304 -133 304h-61v-607h61zM165 0h-93v667h93q86 0 127 -90t41 -244q0 -155 -41 -244t-127 -89z"/>
<glyph glyph-name="E" horiz-adv-x="330" unicode="E" d="M282 0h-210v667h210v-30h-178v-279h171v-30h-171v-298h178v-30z"/>
<glyph glyph-name="F" horiz-adv-x="330" unicode="F" d="M104 0h-32v667h210v-30h-178v-279h171v-30h-171v-328z"/>
<glyph glyph-name="G" horiz-adv-x="375" unicode="G" d="M198 -12q-74 0 -109.5 92.5t-35.5 252.5q0 161 35.5 253t109.5 92q79 0 113 -103l-30 -12q-15 43 -33 64t-50 21q-58 0 -84 -86.5t-26 -228.5q0 -141 26 -228t84 -87q56 0 81 51v221h-101v30h133v-259q-38 -73 -113 -73z"/>
<glyph glyph-name="H" horiz-adv-x="395" unicode="H" d="M323 0h-32v328h-187v-328h-32v667h32v-309h187v309h32v-667z"/>
<glyph glyph-name="I" horiz-adv-x="176" unicode="I" d="M104 0h-32v667h32v-667z"/>
<glyph glyph-name="J" horiz-adv-x="298" unicode="J" d="M109 -12q-61 0 -103 54l24 23q32 -47 79 -47q85 0 85 103v546h32v-546q0 -133 -117 -133z"/>
<glyph glyph-name="K" horiz-adv-x="372" unicode="K" d="M354 0h-39l-164 319l-47 -88v-231h-32v667h32v-380l198 380h39l-174 -319z"/>
<glyph glyph-name="L" horiz-adv-x="306" unicode="L" d="M282 0h-210v667h32v-637h178v-30z"/>
<glyph glyph-name="M" horiz-adv-x="508" unicode="M" d="M436 0h-32v609l-141 -609h-18l-141 609v-609h-32v667h52l130 -557l131 557h51v-667z"/>
<glyph glyph-name="N" horiz-adv-x="395" unicode="N" d="M323 0h-32l-187 575v-575h-32v667h32l187 -569v569h32v-667z"/>
<glyph glyph-name="O" horiz-adv-x="396" unicode="O" d="M198 18q57 0 83.5 88.5t26.5 226.5q0 139 -26.5 227t-83.5 88t-83.5 -88t-26.5 -227q0 -138 26.5 -226.5t83.5 -88.5zM198 -12q-53 0 -86.5 49.5t-46 123t-12.5 172.5t12.5 172.5t46 123t86.5 49.5t86.5 -49.5t46 -123t12.5 -172.5t-12.5 -172.5t-46 -123t-86.5 -49.5z "/>
<glyph glyph-name="P" horiz-adv-x="341" unicode="P" d="M171 319q50 0 75.5 43.5t25.5 115.5t-25.5 115.5t-75.5 43.5h-67v-318h67zM104 0h-32v667h100q67 0 101 -53.5t34 -135.5t-34 -135.5t-101 -53.5h-68v-289z"/>
<glyph glyph-name="Q" horiz-adv-x="396" unicode="Q" d="M198 18q27 0 47 20l-61 162l30 12l53 -142q41 82 41 263q0 139 -26.5 227t-83.5 88t-83.5 -88t-26.5 -227q0 -138 26.5 -226.5t83.5 -88.5zM198 -12q-53 0 -86.5 49.5t-46 123t-12.5 172.5t12.5 172.5t46 123t86.5 49.5t86.5 -49.5t46 -123t12.5 -172.5q0 -220 -62 -301 l21 -55l-29 -12l-16 42q-27 -19 -59 -19z"/>
<glyph glyph-name="R" horiz-adv-x="366" unicode="R" d="M171 319q50 0 75.5 43.5t25.5 115.5t-25.5 115.5t-75.5 43.5h-67v-318h67zM313 0h-36l-99 289h-74v-289h-32v667h100q61 0 98 -50t37 -139q0 -83 -29 -128t-69 -56z"/>
<glyph glyph-name="S" horiz-adv-x="319" unicode="S" d="M145 -12q-71 0 -118 57l24 26q16 -24 42 -38.5t52 -14.5q43 0 73 35.5t30 93.5q0 50 -21 91t-51 71l-59.5 59.5t-50.5 71.5t-21 92q0 66 37 106t88 40q59 0 97 -41l-19 -25q-32 36 -78 36q-38 0 -65.5 -32t-27.5 -84q0 -42 21 -79.5t50.5 -67t59.5 -61.5t51 -77.5 t21 -99.5q0 -68 -37.5 -113.5t-97.5 -45.5z"/>
<glyph glyph-name="T" horiz-adv-x="287" unicode="T" d="M159 0h-32v637h-109v30h251v-30h-110v-637z"/>
<glyph glyph-name="U" horiz-adv-x="396" unicode="U" d="M198 -12q-126 0 -126 166v513h32v-513q0 -136 94 -136t94 136v513h32v-513q0 -166 -126 -166z"/>
<glyph glyph-name="V" horiz-adv-x="312" unicode="V" d="M175 0h-38l-125 667h33l111 -620l111 620h33z"/>
<glyph glyph-name="W" horiz-adv-x="490" unicode="W" d="M366 0h-38l-83 587l-83 -587h-38l-100 667h35l84 -604l85 604h34l85 -604l84 604h35z"/>
<glyph glyph-name="X" horiz-adv-x="308" unicode="X" d="M300 0h-36l-110 302l-110 -302h-36l128 338l-121 329h37l102 -291l102 291h37l-121 -328z"/>
<glyph glyph-name="Y" horiz-adv-x="322" unicode="Y" d="M177 0h-32v289l-143 378h36l123 -339l125 339h34l-143 -378v-289z"/>
<glyph glyph-name="Z" horiz-adv-x="309" unicode="Z" d="M273 0h-237v31l197 606h-197v30h230v-30l-198 -607h205v-30z"/>
<glyph glyph-name="bracketleft" horiz-adv-x="162" unicode="[" d="M145 -190h-111v868h111v-30h-81v-808h81v-30z"/>
<glyph glyph-name="backslash" horiz-adv-x="177" unicode="\" d="M148 -20l-147 707h30l147 -707h-30z"/>
<glyph glyph-name="bracketright" horiz-adv-x="162" unicode="]" d="M128 -190h-111v30h81v808h-81v30h111v-868z"/>
<glyph glyph-name="asciicircum" horiz-adv-x="324" unicode="^" d="M305 333h-32l-111 303l-111 -303h-32l130 334h26z"/>
<glyph glyph-name="underscore" horiz-adv-x="279" unicode="_" d="M282 -70h-285v30h285v-30z"/>
<glyph glyph-name="grave" horiz-adv-x="119" unicode="`" d="M119 556h-24l-95 144h41z"/>
<glyph glyph-name="a" d="M159 15q63 0 88 73v120q-25 75 -88 75q-42 0 -63.5 -39t-21.5 -95t21.5 -95t63.5 -39zM277 0h-30v53q-31 -65 -88 -65q-54 0 -86 45t-32 116t32 116t86 45q58 0 88 -63v101q0 62 -17 91t-60 29q-51 0 -93 -54l-18 23q54 58 111 58q59 0 83 -35t24 -111v-349z" unicode="a"/>
<glyph glyph-name="b" horiz-adv-x="351" unicode="b" d="M95 0h-30v667h30v-256q14 41 38.5 62.5t49.5 21.5q62 0 91.5 -70t29.5 -184q0 -74 -11.5 -129t-39.5 -89.5t-70 -34.5q-24 0 -48.5 22.5t-39.5 59.5v-70zM95 115q9 -40 34.5 -70t53.5 -30q88 0 88 226q0 227 -88 227q-27 0 -53 -31t-35 -71v-251z"/>
<glyph glyph-name="c" horiz-adv-x="294" unicode="c" d="M183 -12q-67 0 -101.5 71.5t-34.5 182.5t34.5 182t101.5 71q46 0 84 -45l-21 -21q-29 39 -64 39q-54 0 -78 -65t-24 -161t24 -161.5t78 -65.5q36 0 64 39l21 -21q-33 -45 -84 -45z"/>
<glyph glyph-name="d" horiz-adv-x="351" unicode="d" d="M168 15q28 0 53.5 30t34.5 70v251q-9 40 -34.5 71t-53.5 31q-88 0 -88 -227q0 -226 88 -226zM286 0h-30v70q-15 -37 -39.5 -59.5t-48.5 -22.5q-42 0 -70 34.5t-39.5 89.5t-11.5 129q0 114 29.5 184t91.5 70q25 0 49.5 -21.5t38.5 -62.5v256h30v-667z"/>
<glyph glyph-name="e" horiz-adv-x="346" unicode="e" d="M272 259q0 53 -7.5 96.5t-30 78t-58.5 34.5q-27 0 -47 -20.5t-30 -53.5t-14.5 -66.5t-4.5 -68.5h192zM193 -12q-75 0 -110.5 69.5t-35.5 184.5q0 113 31.5 183t97.5 70q68 0 98.5 -70.5t30.5 -182.5v-10h-225q0 -100 29.5 -158.5t83.5 -58.5q48 0 79 68l28 -14 q-40 -81 -107 -81z"/>
<glyph glyph-name="f" horiz-adv-x="202" unicode="f" d="M108 0h-30v456h-50v27h50v107q0 39 21.5 63t57.5 24t56 -27l-20 -23q-16 23 -36 23q-49 0 -49 -60v-107h70v-27h-70v-456z"/>
<glyph glyph-name="g" horiz-adv-x="351" unicode="g" d="M168 13q28 0 53.5 31t34.5 71v251q-9 40 -34.5 71t-53.5 31q-88 0 -88 -228q0 -227 88 -227zM164 -196q-66 0 -110 47l20 26q37 -46 90 -46q92 0 92 126v113q-15 -37 -39.5 -60.5t-48.5 -23.5q-62 0 -91.5 69.5t-29.5 184.5q0 114 29.5 184.5t91.5 70.5q25 0 49.5 -21.5 t38.5 -62.5v72h30v-526q0 -153 -122 -153z"/>
<glyph glyph-name="h" d="M277 0h-30v394q0 74 -53 74q-30 0 -57 -27.5t-42 -66.5v-374h-30v667h30v-256q18 37 45 60.5t58 23.5q42 0 60.5 -23.5t18.5 -77.5v-394z" unicode="h"/>
<glyph glyph-name="i" horiz-adv-x="160" unicode="i" d="M95 0h-30v483h30v-483zM80 566q-11 0 -20 8.5t-9 20.5t9 20.5t20 8.5q12 0 20.5 -8.5t8.5 -20.5t-8.5 -20.5t-20.5 -8.5z"/>
<glyph glyph-name="j" horiz-adv-x="160" unicode="j" d="M31 -196q-41 0 -57 38l27 14q10 -25 30 -25q34 0 34 73v579h30v-579q0 -100 -64 -100zM80 566q-11 0 -20 8.5t-9 20.5t9 20.5t20 8.5q12 0 20.5 -8.5t8.5 -20.5t-8.5 -20.5t-20.5 -8.5z"/>
<glyph glyph-name="k" horiz-adv-x="325" unicode="k" d="M301 0h-32l-108 242l-66 -110v-132h-30v667h30v-489l179 305h31l-128 -218z"/>
<glyph glyph-name="l" horiz-adv-x="160" unicode="l" d="M95 0h-30v667h30v-667z"/>
<glyph glyph-name="m" horiz-adv-x="524" unicode="m" d="M459 0h-30v394q0 74 -53 74q-30 0 -57.5 -27.5t-41.5 -66.5v-374h-30v394q0 74 -53 74q-30 0 -57 -27.5t-42 -66.5v-374h-30v483h30v-72q18 37 45 60.5t58 23.5q37 0 57.5 -22.5t20.5 -61.5q17 36 45 60t59 24q79 0 79 -101v-394z"/>
<glyph glyph-name="n" d="M277 0h-30v394q0 74 -53 74q-30 0 -57 -27.5t-42 -66.5v-374h-30v483h30v-72q18 37 45 60.5t58 23.5q41 0 60 -24.5t19 -76.5v-394z" unicode="n"/>
<glyph glyph-name="o" horiz-adv-x="352" unicode="o" d="M176 15q96 0 96 227q0 226 -96 226t-96 -226q0 -227 96 -227zM176 -12q-46 0 -76 37t-41.5 91.5t-11.5 125.5t11.5 125t41.5 91t76 37q68 0 98.5 -71t30.5 -182t-30.5 -182.5t-98.5 -71.5z"/>
<glyph glyph-name="p" horiz-adv-x="351" unicode="p" d="M183 15q88 0 88 227q0 226 -88 226q-28 0 -53.5 -30t-34.5 -70v-251q9 -40 35 -71t53 -31zM183 -12q-25 0 -49.5 21.5t-38.5 62.5v-256h-30v667h30v-70q15 37 39.5 59.5t48.5 22.5q42 0 70 -34.5t39.5 -89.5t11.5 -129q0 -114 -29.5 -184t-91.5 -70z"/>
<glyph glyph-name="q" horiz-adv-x="351" unicode="q" d="M168 -12q-62 0 -91.5 70t-29.5 184q0 74 11.5 129t39.5 89.5t70 34.5q24 0 48.5 -22.5t39.5 -59.5v70h30v-667h-30v256q-14 -41 -38.5 -62.5t-49.5 -21.5zM168 15q28 0 53.5 31t34.5 71v251q-9 40 -34.5 70t-53.5 30q-88 0 -88 -226q0 -227 88 -227z"/>
<glyph glyph-name="r" horiz-adv-x="227" unicode="r" d="M95 0h-30v483h30v-85q20 47 46.5 70.5t68.5 23.5v-36q-5 1 -15 1q-33 0 -59 -27.5t-41 -68.5v-361z"/>
<glyph glyph-name="s" horiz-adv-x="278" unicode="s" d="M137 -12q-68 0 -109 59l22 21q36 -53 87 -53q32 0 55.5 25t23.5 65q0 37 -18 66.5t-43.5 50t-51 42t-43.5 53.5t-18 73q0 46 30.5 75.5t74.5 29.5q57 0 93 -51l-20 -20q-28 44 -73 44q-34 0 -54.5 -22.5t-20.5 -55.5q0 -35 18 -63t43.5 -49t51 -43t43.5 -55t18 -75 q0 -52 -32 -84.5t-77 -32.5z"/>
<glyph glyph-name="t" horiz-adv-x="212" unicode="t" d="M142 -12q-64 0 -64 88v380h-52v27h52v132h30v-132h70v-27h-70v-380q0 -32 7.5 -46.5t26.5 -14.5q21 0 36 21l21 -18q-25 -30 -57 -30z"/>
<glyph glyph-name="u" d="M277 0h-30v70q-39 -82 -103 -82q-42 0 -60.5 23.5t-18.5 77.5v394h30v-394q0 -74 53 -74q31 0 58 26.5t41 65.5v376h30v-483z" unicode="u"/>
<glyph glyph-name="v" horiz-adv-x="279" unicode="v" d="M156 0h-35l-105 483h33l90 -448l91 448h33z"/>
<glyph glyph-name="w" horiz-adv-x="484" unicode="w" d="M364 0h-30l-92 440l-92 -440h-30l-100 483h33l82 -436l89 436h36l89 -436l82 436h33z"/>
<glyph glyph-name="x" horiz-adv-x="286" unicode="x" d="M266 0h-33l-90 217l-90 -217h-33l106 245l-100 238h33l84 -209l84 209h33l-100 -238z"/>
<glyph glyph-name="y" horiz-adv-x="279" unicode="y" d="M27 -189l7 27q10 -7 24 -7q18 0 27 11.5t17 42.5l23 97l-109 501h33l90 -443l91 443h33l-137 -606q-9 -40 -25.5 -56.5t-42.5 -16.5q-19 0 -31 7z"/>
<glyph glyph-name="z" horiz-adv-x="275" unicode="z" d="M234 0h-193v27l158 429h-158v27h189v-27l-156 -429h160v-27z"/>
<glyph glyph-name="braceleft" horiz-adv-x="187" unicode="{" d="M170 -190h-32q-31 0 -55 26t-24 67v254q0 30 -13.5 51t-38.5 21v30q25 0 38.5 21t13.5 51v254q0 41 24 67t55 26h32v-30h-32q-21 0 -35 -17.5t-14 -45.5v-254q0 -68 -45 -87q45 -19 45 -87v-254q0 -27 14 -45t35 -18h32v-30z"/>
<glyph glyph-name="bar" horiz-adv-x="174" unicode="|" d="M102 -20h-30v707h30v-707z"/>
<glyph glyph-name="braceright" horiz-adv-x="187" unicode="}" d="M17 -190v30h32q21 0 35 18t14 45v254q0 68 45 87q-45 19 -45 87v254q0 28 -14 45.5t-35 17.5h-32v30h32q31 0 55 -26t24 -67v-254q0 -30 13.5 -51t38.5 -21v-30q-25 0 -38.5 -21t-13.5 -51v-254q0 -41 -24 -67t-55 -26h-32z"/>
<glyph glyph-name="asciitilde" horiz-adv-x="376" unicode="~" d="M318 667l30 -3q-3 -37 -5.5 -62.5t-9.5 -60.5t-16.5 -56t-27 -36.5t-39.5 -15.5q-31 0 -49.5 31.5t-23.5 69.5t-17.5 69.5t-33.5 31.5q-31 0 -44 -45.5t-24 -158.5l-30 5q3 46 7.5 78.5t14.5 71t29.5 59t46.5 20.5q31 0 49.5 -31.5t23.5 -70t17.5 -70t33.5 -31.5 q31 0 44 45.5t24 159.5z"/>
<glyph glyph-name="nbspace" horiz-adv-x="180" unicode=" "/>
<glyph glyph-name="exclamdown" horiz-adv-x="208" unicode="¡" d="M71 459q0 13 9.5 23t23.5 10t23.5 -10t9.5 -23t-10 -22.5t-23 -9.5t-23 9.5t-10 22.5zM83 -184l11 506h20l11 -506h-42z"/>
<glyph glyph-name="cent" horiz-adv-x="294" unicode="¢" d="M80 242q0 -206 85 -225v449q-85 -21 -85 -224zM165 -100v90q-59 9 -88.5 78.5t-29.5 173.5t29.5 173t88.5 78v72h30v-71q36 -3 72 -44l-21 -21q-25 32 -51 38v-451q28 5 51 38l21 -21q-31 -41 -72 -44v-89h-30z"/>
<glyph glyph-name="sterling" d="M30 267v30h85q-2 4 -20 37t-23.5 47t-13 47t-7.5 67q0 75 33.5 128.5t95.5 53.5q86 0 115 -98l-25 -16q-14 39 -34.5 61.5t-55.5 22.5q-38 0 -67 -42t-29 -112q0 -43 9 -74.5t31.5 -72.5t26.5 -49h78v-30h-67q10 -32 10 -65q0 -43 -21 -87.5t-52 -71.5q19 11 39 11 q23 0 54 -18t47 -18q19 0 37 11.5t27 26.5l21 -24q-11 -18 -36 -31t-50 -13q-32 0 -58.5 20t-44.5 20q-29 0 -72 -35l-19 29q44 30 70 79.5t26 101.5q0 31 -12 64h-98z" unicode="£"/>
<glyph glyph-name="currency" horiz-adv-x="348" unicode="¤" d="M174 133q96 0 96 200q0 199 -96 199t-96 -199q0 -200 96 -200zM174 98q-56 0 -88 47l-69 -70l-22 22l76 76q-26 59 -26 160q0 100 27 161l-77 77l22 22l70 -72q32 46 87 46q54 0 86 -46l71 72l22 -22l-77 -76q27 -61 27 -162q0 -104 -28 -164l78 -77l-22 -22l-72 72 q-33 -44 -85 -44z"/>
<glyph glyph-name="yen" horiz-adv-x="322" unicode="¥" d="M177 0h-32v129h-126v30h126v130h-126v30h114l-131 348h36l123 -339l125 339h34l-132 -348h114v-30h-125v-130h125v-30h-125v-129z"/>
<glyph glyph-name="brokenbar" horiz-adv-x="174" unicode="¦" d="M102 371h-30v316h30v-316zM102 -20h-30v316h30v-316z"/>
<glyph glyph-name="section" horiz-adv-x="278" unicode="§" d="M216 287q0 14 -2 26.5t-7 23.5t-9 18.5t-12 16.5t-11.5 12.5t-12.5 11.5l-9 9q-81 -12 -81 -84q0 -35 18.5 -64t61.5 -63q64 31 64 93zM246 287q0 -82 -73 -111q73 -63 73 -140q0 -48 -30.5 -82.5t-78.5 -34.5q-36 0 -60 13.5t-49 45.5l22 21q35 -53 87 -53q33 0 56 27 t23 63q0 37 -18 66t-43.5 50t-51 42.5t-43.5 53.5t-18 73q0 36 22.5 67t65.5 37q-49 38 -68.5 72t-19.5 75q0 47 30.5 76t69.5 29q57 0 98 -51l-22 -20q-19 26 -35.5 35t-40.5 9q-30 0 -50 -22.5t-20 -55.5q0 -34 18 -62t43.5 -49t51 -43t43.5 -55.5t18 -75.5z"/>
<glyph glyph-name="dieresis" horiz-adv-x="252" unicode="¨" d="M93 598q0 -11 -8.5 -19.5t-19.5 -8.5t-19.5 8.5t-8.5 19.5t8.5 19.5t19.5 8.5t19.5 -8.5t8.5 -19.5zM215 598q0 -11 -8.5 -19.5t-19.5 -8.5t-19.5 8.5t-8.5 19.5t8.5 19.5t19.5 8.5t19.5 -8.5t8.5 -19.5z"/>
<glyph glyph-name="copyright" horiz-adv-x="778" unicode="©" d="M513 204l20 -20q-56 -65 -143 -65t-148 62.5t-61 152.5q0 92 60.5 154t148.5 62t143 -64l-20 -20q-19 26 -53 41.5t-70 15.5q-73 0 -126.5 -52.5t-53.5 -136.5q0 -80 54 -134t126 -54q36 0 70 16t53 42zM708 334q0 131 -94 225t-225 94t-225 -94t-94 -225t94 -225 t225 -94t225 94t94 225zM734 334q0 -142 -101 -243.5t-244 -101.5t-244 101.5t-101 243.5t101 243.5t244 101.5t244 -101.5t101 -243.5z"/>
<glyph glyph-name="ordfeminine" horiz-adv-x="261" unicode="ª" d="M120 340q43 0 61 46v73q-18 46 -61 46q-28 0 -43 -23.5t-15 -58.5t15 -59t43 -24zM209 326h-28v34q-23 -42 -65 -42q-38 0 -60.5 29t-22.5 76t22.5 75.5t60.5 28.5q42 0 65 -41v63q0 72 -55 72q-37 0 -66 -37l-15 23q38 41 84 41q45 0 62.5 -27t17.5 -86v-209z"/>
<glyph glyph-name="guillemotleft" horiz-adv-x="273" unicode="«" d="M153 63h-33l-90 180l90 177h33l-90 -177zM243 63h-33l-90 180l90 177h33l-90 -177z"/>
<glyph glyph-name="logicalnot" horiz-adv-x="374" unicode="¬" d="M345 448v-228h-32v198h-284v30h316z"/>
<glyph glyph-name="uni00AD" horiz-adv-x="230" unicode="­" d="M200 227h-170v30h170v-30z"/>
<glyph glyph-name="registered" horiz-adv-x="494" unicode="®" d="M310 512q0 20 -14 33.5t-30 13.5h-70v-92h70q16 0 30 13.5t14 31.5zM343 343h-37l-63 96h-47v-96h-29v243h99q31 0 52.5 -20.5t21.5 -53.5q0 -35 -22.5 -53.5t-39.5 -18.5zM433 465q0 78 -54.5 132t-131.5 54t-131.5 -54t-54.5 -132q0 -77 54.5 -131.5t131.5 -54.5 t131.5 54.5t54.5 131.5zM459 465q0 -88 -62 -150t-150 -62t-150 62t-62 150t62 150t150 62q89 0 150.5 -61.5t61.5 -150.5z"/>
<glyph glyph-name="macron" horiz-adv-x="240" unicode="¯" d="M240 581h-240v27h240v-27z"/>
<glyph glyph-name="degree" horiz-adv-x="273" unicode="°" d="M217 566q0 33 -24 57t-57 24t-56.5 -24t-23.5 -57t23.5 -56.5t56.5 -23.5t57 23.5t24 56.5zM247 566q0 -46 -32.5 -78t-78.5 -32t-78 32t-32 78t32 78.5t78 32.5t78.5 -32.5t32.5 -78.5z"/>
<glyph glyph-name="plusminus" horiz-adv-x="374" unicode="±" d="M345 60h-316v30h316v-30zM345 322h-142v-162h-32v162h-142v30h142v156h32v-156h142v-30z"/>
<glyph glyph-name="twosuperior" horiz-adv-x="240" unicode="²" d="M211 421h-177v24q95 148 120 196t25 90q0 32 -16 51t-41 19q-46 0 -69 -54l-23 16q33 64 92 64q39 0 63.5 -26t24.5 -70q0 -42 -26.5 -94t-114.5 -190h142v-26z"/>
<glyph glyph-name="threesuperior" horiz-adv-x="240" unicode="³" d="M214 528q0 -51 -24 -82.5t-71 -31.5q-65 0 -94 68l24 15q24 -57 69 -57q65 0 65 89q0 46 -20 66t-47 20q-20 0 -24 -1v27q5 -1 23 -1q28 0 46 20.5t18 58.5q0 82 -60 82q-42 0 -66 -52l-24 15q14 29 38 46t52 17q40 0 65 -26.5t25 -78.5q0 -33 -16.5 -59.5t-42.5 -34.5 q25 -6 44.5 -33.5t19.5 -66.5z"/>
<glyph glyph-name="acute" horiz-adv-x="119" unicode="´" d="M119 700l-95 -144h-24l78 144h41z"/>
<glyph glyph-name="mu" horiz-adv-x="349" unicode="µ" d="M95 14v-198h-30v667h30v-394q0 -37 15.5 -56.5t41.5 -19.5q30 0 55 27t40 67v376h30v-407q0 -32 7.5 -46.5t26.5 -14.5q8 0 14 1l3 -26q-8 -2 -17 -2q-32 0 -47 20t-17 62q-36 -82 -95 -82q-38 0 -57 26z"/>
<glyph glyph-name="paragraph" horiz-adv-x="449" unicode="¶" d="M357 -100h-30v737h-98v-737h-30v423q-71 0 -121.5 50.5t-50.5 121.5t50.5 121.5t121.5 50.5h158v-767z"/>
<glyph glyph-name="periodcentered" horiz-adv-x="208" unicode="·" d="M137 245q0 -13 -9.5 -23t-23.5 -10t-23.5 10t-9.5 23t10 22.5t23 9.5t23 -9.5t10 -22.5z"/>
<glyph glyph-name="cedilla" horiz-adv-x="151" unicode="¸" d="M70 -187q-37 0 -70 28l13 26q28 -27 57 -27q21 0 36.5 13.5t15.5 35.5q0 40 -33 40q-16 0 -31 -15l-21 12l31 85h30l-27 -70q11 10 29 10q21 0 36 -17t15 -45q0 -32 -23.5 -54t-57.5 -22z"/>
<glyph glyph-name="onesuperior" horiz-adv-x="190" unicode="¹" d="M130 421h-30v360l-62 -67l-18 19l83 88h27v-400z"/>
<glyph glyph-name="ordmasculine" horiz-adv-x="272" unicode="º" d="M136 344q68 0 68 139q0 138 -68 138q-36 0 -52 -39.5t-16 -98.5t16 -99t52 -40zM136 318q-49 0 -73.5 47t-24.5 118t24.5 118t73.5 47t73.5 -47t24.5 -118t-24.5 -118t-73.5 -47z"/>
<glyph glyph-name="guillemotright" horiz-adv-x="273" unicode="»" d="M243 243l-90 -180h-33l90 180l-90 177h33zM153 243l-90 -180h-33l90 180l-90 177h33z"/>
<glyph glyph-name="onequarter" horiz-adv-x="514" unicode="¼" d="M130 267h-30v360l-62 -67l-18 19l83 88h27v-400zM429 139v222l-108 -222h108zM496 113h-38v-113h-29v113h-135v27l127 260h37v-261h38v-26zM405 667l-270 -667h-32l269 667h33z"/>
<glyph glyph-name="onehalf" horiz-adv-x="544" unicode="½" d="M130 267h-30v360l-62 -67l-18 19l83 88h27v-400zM515 0h-177v24q95 148 120 196t25 90q0 32 -16 51t-41 19q-46 0 -69 -54l-23 16q33 64 92 64q39 0 63.5 -26t24.5 -70q0 -42 -26.5 -94t-114.5 -190h142v-26zM405 667l-270 -667h-32l269 667h33z"/>
<glyph glyph-name="threequarters" horiz-adv-x="550" unicode="¾" d="M214 374q0 -51 -24 -82.5t-71 -31.5q-65 0 -94 68l24 15q24 -57 69 -57q65 0 65 89q0 46 -20 66t-47 20q-20 0 -24 -1v27q5 -1 23 -1q28 0 46 20.5t18 58.5q0 82 -60 82q-42 0 -66 -52l-24 15q14 29 38 46t52 17q40 0 65 -26.5t25 -78.5q0 -33 -16.5 -59.5t-42.5 -34.5 q25 -6 44.5 -33.5t19.5 -66.5zM465 139v222l-108 -222h108zM532 113h-38v-113h-29v113h-135v27l127 260h37v-261h38v-26zM441 667l-270 -667h-32l269 667h33z"/>
<glyph glyph-name="questiondown" horiz-adv-x="256" unicode="¿" d="M147 492q13 0 23 -10t10 -23t-10 -22.5t-23 -9.5t-23 9.5t-10 22.5t10 23t23 10zM154 311q28 -35 28 -80q0 -43 -18.5 -80.5t-40.5 -61.5t-40.5 -63.5t-18.5 -84.5q0 -41 26 -75t67 -34q42 0 78 36l19 -25q-37 -41 -97 -41q-52 0 -88.5 41t-36.5 98q0 48 18.5 90 t40.5 66.5t40.5 60t18.5 73.5q0 37 -23 60z"/>
<glyph glyph-name="Agrave" horiz-adv-x="312" unicode="À" d="M230 209l-74 411l-74 -411h148zM300 0h-33l-32 179h-158l-32 -179h-33l125 667h38zM186 723h-24l-95 144h41z"/>
<glyph glyph-name="Aacute" horiz-adv-x="312" unicode="Á" d="M230 209l-74 411l-74 -411h148zM300 0h-33l-32 179h-158l-32 -179h-33l125 667h38zM245 867l-95 -144h-24l78 144h41z"/>
<glyph glyph-name="Acircumflex" horiz-adv-x="312" unicode="Â" d="M230 209l-74 411l-74 -411h148zM300 0h-33l-32 179h-158l-32 -179h-33l125 667h38zM244 723h-23l-66 116l-63 -116h-23l68 144h36z"/>
<glyph glyph-name="Atilde" horiz-adv-x="312" unicode="Ã" d="M230 209l-74 411l-74 -411h148zM300 0h-33l-32 179h-158l-32 -179h-33l125 667h38zM194 721q-19 0 -31 17.5t-15.5 39t-11.5 39t-20 17.5q-38 0 -38 -107h-22q0 134 63 134q19 0 31 -17.5t15.5 -39t11.5 -39t20 -17.5q38 0 38 107h22q0 -134 -63 -134z"/>
<glyph glyph-name="Adieresis" horiz-adv-x="312" unicode="Ä" d="M230 209l-74 411l-74 -411h148zM300 0h-33l-32 179h-158l-32 -179h-33l125 667h38zM123 765q0 -11 -8.5 -19.5t-19.5 -8.5t-19.5 8.5t-8.5 19.5t8.5 19.5t19.5 8.5t19.5 -8.5t8.5 -19.5zM245 765q0 -11 -8.5 -19.5t-19.5 -8.5t-19.5 8.5t-8.5 19.5t8.5 19.5t19.5 8.5 t19.5 -8.5t8.5 -19.5z"/>
<glyph glyph-name="Aring" horiz-adv-x="312" unicode="Å" d="M230 209l-74 411l-74 -411h148zM300 0h-33l-32 179h-158l-32 -179h-33l125 667h38zM157 716q23 0 38.5 16t15.5 38t-15.5 38t-38.5 16t-38.5 -16t-15.5 -38t15.5 -38t38.5 -16zM157 692q-32 0 -55 23t-23 55t23 55t55 23t54.5 -23t22.5 -55t-22.5 -55t-54.5 -23z"/>
<glyph glyph-name="AE" horiz-adv-x="509" unicode="Æ" d="M246 209v411l-127 -411h127zM456 0h-210v179h-136l-55 -179h-33l211 667h223v-30h-178v-279h171v-30h-171v-298h178v-30z"/>
<glyph glyph-name="Ccedilla" horiz-adv-x="357" unicode="Ç" d="M193 -183q-37 0 -70 28l13 26q28 -27 57 -27q21 0 36.5 13.5t15.5 35.5q0 40 -33 40q-16 0 -31 -15l-21 12l21 59q-128 20 -128 344q0 101 13 175t46.5 122t85.5 48q79 0 113 -103l-30 -12q-15 43 -33 64t-50 21q-56 0 -83 -87t-27 -228t27 -228t83 -87q35 0 54 27t32 78 l30 -12q-26 -113 -103 -122l-17 -44q11 10 29 10q21 0 36 -17t15 -45q0 -32 -23.5 -54t-57.5 -22z"/>
<glyph glyph-name="Egrave" horiz-adv-x="330" unicode="È" d="M282 0h-210v667h210v-30h-178v-279h171v-30h-171v-298h178v-30zM207 723h-24l-95 144h41z"/>
<glyph glyph-name="Eacute" horiz-adv-x="330" unicode="É" d="M282 0h-210v667h210v-30h-178v-279h171v-30h-171v-298h178v-30zM266 867l-95 -144h-24l78 144h41z"/>
<glyph glyph-name="Ecircumflex" horiz-adv-x="330" unicode="Ê" d="M282 0h-210v667h210v-30h-178v-279h171v-30h-171v-298h178v-30zM268 723h-23l-66 116l-63 -116h-23l68 144h36z"/>
<glyph glyph-name="Edieresis" horiz-adv-x="330" unicode="Ë" d="M282 0h-210v667h210v-30h-178v-279h171v-30h-171v-298h178v-30zM145 765q0 -11 -8.5 -19.5t-19.5 -8.5t-19.5 8.5t-8.5 19.5t8.5 19.5t19.5 8.5t19.5 -8.5t8.5 -19.5zM267 765q0 -11 -8.5 -19.5t-19.5 -8.5t-19.5 8.5t-8.5 19.5t8.5 19.5t19.5 8.5t19.5 -8.5t8.5 -19.5z "/>
<glyph glyph-name="Igrave" horiz-adv-x="176" unicode="Ì" d="M104 0h-32v667h32v-667zM118 723h-24l-95 144h41z"/>
<glyph glyph-name="Iacute" horiz-adv-x="176" unicode="Í" d="M104 0h-32v667h32v-667zM177 867l-95 -144h-24l78 144h41z"/>
<glyph glyph-name="Icircumflex" horiz-adv-x="176" unicode="Î" d="M104 0h-32v667h32v-667zM177 723h-23l-66 116l-63 -116h-23l68 144h36z"/>
<glyph glyph-name="Idieresis" horiz-adv-x="176" unicode="Ï" d="M104 0h-32v667h32v-667zM58 765q0 -11 -8.5 -19.5t-19.5 -8.5t-19.5 8.5t-8.5 19.5t8.5 19.5t19.5 8.5t19.5 -8.5t8.5 -19.5zM180 765q0 -11 -8.5 -19.5t-19.5 -8.5t-19.5 8.5t-8.5 19.5t8.5 19.5t19.5 8.5t19.5 -8.5t8.5 -19.5z"/>
<glyph glyph-name="Eth" horiz-adv-x="402" unicode="Ð" d="M218 318h-98v-288h61q133 0 133 303q0 304 -133 304h-61v-289h98v-30zM181 0h-93v318h-62v30h62v319h93q86 0 127 -90t41 -244q0 -155 -41 -244t-127 -89z"/>
<glyph glyph-name="Ntilde" horiz-adv-x="395" unicode="Ñ" d="M323 0h-32l-187 575v-575h-32v667h32l187 -569v569h32v-667zM231 721q-19 0 -31 17.5t-15.5 39t-11.5 39t-20 17.5q-38 0 -38 -107h-22q0 134 63 134q19 0 31 -17.5t15.5 -39t11.5 -39t20 -17.5q38 0 38 107h22q0 -134 -63 -134z"/>
<glyph glyph-name="Ograve" horiz-adv-x="396" unicode="Ò" d="M198 18q57 0 83.5 88.5t26.5 226.5q0 139 -26.5 227t-83.5 88t-83.5 -88t-26.5 -227q0 -138 26.5 -226.5t83.5 -88.5zM198 -12q-53 0 -86.5 49.5t-46 123t-12.5 172.5t12.5 172.5t46 123t86.5 49.5t86.5 -49.5t46 -123t12.5 -172.5t-12.5 -172.5t-46 -123t-86.5 -49.5z M228 723h-24l-95 144h41z"/>
<glyph glyph-name="Oacute" horiz-adv-x="396" unicode="Ó" d="M198 18q57 0 83.5 88.5t26.5 226.5q0 139 -26.5 227t-83.5 88t-83.5 -88t-26.5 -227q0 -138 26.5 -226.5t83.5 -88.5zM198 -12q-53 0 -86.5 49.5t-46 123t-12.5 172.5t12.5 172.5t46 123t86.5 49.5t86.5 -49.5t46 -123t12.5 -172.5t-12.5 -172.5t-46 -123t-86.5 -49.5z M287 867l-95 -144h-24l78 144h41z"/>
<glyph glyph-name="Ocircumflex" horiz-adv-x="396" unicode="Ô" d="M198 18q57 0 83.5 88.5t26.5 226.5q0 139 -26.5 227t-83.5 88t-83.5 -88t-26.5 -227q0 -138 26.5 -226.5t83.5 -88.5zM198 -12q-53 0 -86.5 49.5t-46 123t-12.5 172.5t12.5 172.5t46 123t86.5 49.5t86.5 -49.5t46 -123t12.5 -172.5t-12.5 -172.5t-46 -123t-86.5 -49.5z M286 723h-23l-66 116l-63 -116h-23l68 144h36z"/>
<glyph glyph-name="Otilde" horiz-adv-x="396" unicode="Õ" d="M198 18q57 0 83.5 88.5t26.5 226.5q0 139 -26.5 227t-83.5 88t-83.5 -88t-26.5 -227q0 -138 26.5 -226.5t83.5 -88.5zM198 -12q-53 0 -86.5 49.5t-46 123t-12.5 172.5t12.5 172.5t46 123t86.5 49.5t86.5 -49.5t46 -123t12.5 -172.5t-12.5 -172.5t-46 -123t-86.5 -49.5z M236 721q-19 0 -31 17.5t-15.5 39t-11.5 39t-20 17.5q-38 0 -38 -107h-22q0 134 63 134q19 0 31 -17.5t15.5 -39t11.5 -39t20 -17.5q38 0 38 107h22q0 -134 -63 -134z"/>
<glyph glyph-name="Odieresis" horiz-adv-x="396" unicode="Ö" d="M198 18q57 0 83.5 88.5t26.5 226.5q0 139 -26.5 227t-83.5 88t-83.5 -88t-26.5 -227q0 -138 26.5 -226.5t83.5 -88.5zM198 -12q-53 0 -86.5 49.5t-46 123t-12.5 172.5t12.5 172.5t46 123t86.5 49.5t86.5 -49.5t46 -123t12.5 -172.5t-12.5 -172.5t-46 -123t-86.5 -49.5z M164 765q0 -11 -8.5 -19.5t-19.5 -8.5t-19.5 8.5t-8.5 19.5t8.5 19.5t19.5 8.5t19.5 -8.5t8.5 -19.5zM286 765q0 -11 -8.5 -19.5t-19.5 -8.5t-19.5 8.5t-8.5 19.5t8.5 19.5t19.5 8.5t19.5 -8.5t8.5 -19.5z"/>
<glyph glyph-name="multiply" horiz-adv-x="374" unicode="×" d="M299 200l-112 113l-112 -113l-22 22l113 112l-113 112l22 22l112 -113l112 113l22 -22l-113 -112l113 -112z"/>
<glyph glyph-name="Oslash" horiz-adv-x="396" unicode="Ø" d="M88 333q0 -129 20 -205l164 458q-28 62 -74 62q-57 0 -83.5 -88t-26.5 -227zM198 18q57 0 83.5 88.5t26.5 226.5q0 125 -20 205l-164 -458q27 -62 74 -62zM198 -12q-54 0 -89 52l-14 -40h-33l27 77q-36 89 -36 256q0 99 12.5 172.5t46 123t86.5 49.5q55 0 88 -52l15 41 h33l-28 -78q37 -91 37 -256q0 -99 -12.5 -172.5t-46 -123t-86.5 -49.5z"/>
<glyph glyph-name="Ugrave" horiz-adv-x="396" unicode="Ù" d="M198 -12q-126 0 -126 166v513h32v-513q0 -136 94 -136t94 136v513h32v-513q0 -166 -126 -166zM228 723h-24l-95 144h41z"/>
<glyph glyph-name="Uacute" horiz-adv-x="396" unicode="Ú" d="M198 -12q-126 0 -126 166v513h32v-513q0 -136 94 -136t94 136v513h32v-513q0 -166 -126 -166zM287 867l-95 -144h-24l78 144h41z"/>
<glyph glyph-name="Ucircumflex" horiz-adv-x="396" unicode="Û" d="M198 -12q-126 0 -126 166v513h32v-513q0 -136 94 -136t94 136v513h32v-513q0 -166 -126 -166zM285 723h-23l-66 116l-63 -116h-23l68 144h36z"/>
<glyph glyph-name="Udieresis" horiz-adv-x="396" unicode="Ü" d="M198 -12q-126 0 -126 166v513h32v-513q0 -136 94 -136t94 136v513h32v-513q0 -166 -126 -166zM164 765q0 -11 -8.5 -19.5t-19.5 -8.5t-19.5 8.5t-8.5 19.5t8.5 19.5t19.5 8.5t19.5 -8.5t8.5 -19.5zM286 765q0 -11 -8.5 -19.5t-19.5 -8.5t-19.5 8.5t-8.5 19.5t8.5 19.5 t19.5 8.5t19.5 -8.5t8.5 -19.5z"/>
<glyph glyph-name="Yacute" horiz-adv-x="322" unicode="Ý" d="M177 0h-32v289l-143 378h36l123 -339l125 339h34l-143 -378v-289zM250 867l-95 -144h-24l78 144h41z"/>
<glyph glyph-name="Thorn" horiz-adv-x="341" unicode="Þ" d="M171 190q51 0 76 43t25 115q0 73 -25.5 116.5t-75.5 43.5h-67v-318h67zM104 0h-32v667h32v-129h68q67 0 101 -54t34 -136t-34 -135t-101 -53h-68v-160z"/>
<glyph glyph-name="germandbls" horiz-adv-x="396" unicode="ß" d="M379 105q0 -50 -31.5 -83.5t-77.5 -33.5q-64 0 -109 59l22 24q40 -56 87 -56q30 0 54.5 25.5t24.5 64.5q0 37 -18 65.5t-43.5 48.5t-51 40.5t-43.5 52t-18 72.5q0 29 16 54t35.5 41t35.5 40t16 51q0 33 -23.5 56.5t-60.5 23.5q-38 0 -62 -27t-24 -79v-544h-30v544 q0 60 32.5 96.5t83.5 36.5t81.5 -30.5t30.5 -76.5q0 -33 -16 -60t-34.5 -42t-34.5 -37t-16 -47q0 -35 18 -62.5t43.5 -47.5t51 -41t43.5 -53.5t18 -74.5z"/>
<glyph glyph-name="agrave" d="M200 556h-24l-95 144h41zM159 15q63 0 88 73v120q-25 75 -88 75q-42 0 -63.5 -39t-21.5 -95t21.5 -95t63.5 -39zM277 0h-30v53q-31 -65 -88 -65q-54 0 -86 45t-32 116t32 116t86 45q58 0 88 -63v101q0 62 -17 91t-60 29q-51 0 -93 -54l-18 23q54 58 111 58q59 0 83 -35 t24 -111v-349z" unicode="à"/>
<glyph glyph-name="aacute" d="M259 700l-95 -144h-24l78 144h41zM159 15q63 0 88 73v120q-25 75 -88 75q-42 0 -63.5 -39t-21.5 -95t21.5 -95t63.5 -39zM277 0h-30v53q-31 -65 -88 -65q-54 0 -86 45t-32 116t32 116t86 45q58 0 88 -63v101q0 62 -17 91t-60 29q-51 0 -93 -54l-18 23q54 58 111 58 q59 0 83 -35t24 -111v-349z" unicode="á"/>
<glyph glyph-name="acircumflex" d="M260 556h-23l-66 116l-63 -116h-23l68 144h36zM159 15q63 0 88 73v120q-25 75 -88 75q-42 0 -63.5 -39t-21.5 -95t21.5 -95t63.5 -39zM277 0h-30v53q-31 -65 -88 -65q-54 0 -86 45t-32 116t32 116t86 45q58 0 88 -63v101q0 62 -17 91t-60 29q-51 0 -93 -54l-18 23 q54 58 111 58q59 0 83 -35t24 -111v-349z" unicode="â"/>
<glyph glyph-name="atilde" d="M210 554q-19 0 -31 17.5t-15.5 39t-11.5 39t-20 17.5q-38 0 -38 -107h-22q0 134 63 134q19 0 31 -17.5t15.5 -39t11.5 -39t20 -17.5q38 0 38 107h22q0 -134 -63 -134zM159 15q63 0 88 73v120q-25 75 -88 75q-42 0 -63.5 -39t-21.5 -95t21.5 -95t63.5 -39zM277 0h-30v53 q-31 -65 -88 -65q-54 0 -86 45t-32 116t32 116t86 45q58 0 88 -63v101q0 62 -17 91t-60 29q-51 0 -93 -54l-18 23q54 58 111 58q59 0 83 -35t24 -111v-349z" unicode="ã"/>
<glyph glyph-name="adieresis" d="M137 598q0 -11 -8.5 -19.5t-19.5 -8.5t-19.5 8.5t-8.5 19.5t8.5 19.5t19.5 8.5t19.5 -8.5t8.5 -19.5zM259 598q0 -11 -8.5 -19.5t-19.5 -8.5t-19.5 8.5t-8.5 19.5t8.5 19.5t19.5 8.5t19.5 -8.5t8.5 -19.5zM159 15q63 0 88 73v120q-25 75 -88 75q-42 0 -63.5 -39 t-21.5 -95t21.5 -95t63.5 -39zM277 0h-30v53q-31 -65 -88 -65q-54 0 -86 45t-32 116t32 116t86 45q58 0 88 -63v101q0 62 -17 91t-60 29q-51 0 -93 -54l-18 23q54 58 111 58q59 0 83 -35t24 -111v-349z" unicode="ä"/>
<glyph glyph-name="aring" d="M171 577q23 0 38.5 15.5t15.5 38.5t-15.5 38.5t-38.5 15.5t-38.5 -15.5t-15.5 -38.5t15.5 -38.5t38.5 -15.5zM171 553q-32 0 -55 23t-23 55t23 55t55 23t54.5 -23t22.5 -55t-22.5 -55t-54.5 -23zM159 15q63 0 88 73v120q-25 75 -88 75q-42 0 -63.5 -39t-21.5 -95 t21.5 -95t63.5 -39zM277 0h-30v53q-31 -65 -88 -65q-54 0 -86 45t-32 116t32 116t86 45q58 0 88 -63v101q0 62 -17 91t-60 29q-51 0 -93 -54l-18 23q54 58 111 58q59 0 83 -35t24 -111v-349z" unicode="å"/>
<glyph glyph-name="ae" horiz-adv-x="543" unicode="æ" d="M254 184v24q-27 75 -92 75q-41 0 -64.5 -35.5t-23.5 -98.5t23.5 -98.5t64.5 -35.5q43 0 67.5 44t24.5 125zM284 259h185q0 53 -7 96.5t-29 78t-57 34.5q-26 0 -45 -20.5t-29 -53.5t-14 -66.5t-4 -68.5zM502 232h-218q0 -100 28.5 -158.5t80.5 -58.5q21 0 41.5 18t34.5 50 l28 -14q-41 -81 -107 -81q-48 0 -75 29.5t-45 80.5q-27 -110 -107 -110q-57 0 -89.5 44.5t-32.5 115.5q0 72 32.5 117t89.5 45q59 0 91 -63v101q0 61 -18 90.5t-62 29.5q-54 0 -97 -54l-18 23q54 58 111 58q97 0 106 -99q11 43 35.5 71t61.5 28q68 0 98.5 -70.5t30.5 -182.5 v-10z"/>
<glyph glyph-name="ccedilla" horiz-adv-x="294" unicode="ç" d="M180 -185q-37 0 -70 28l13 26q28 -27 57 -27q21 0 36.5 13.5t15.5 35.5q0 40 -33 40q-16 0 -31 -15l-21 12l22 61q-60 8 -91 78t-31 175q0 111 34.5 182t101.5 71q46 0 84 -45l-21 -21q-29 39 -64 39q-54 0 -78 -65t-24 -161t24 -161.5t78 -65.5q36 0 64 39l21 -21 q-29 -39 -69 -44l-17 -46q11 10 29 10q21 0 36 -17t15 -45q0 -32 -23.5 -54t-57.5 -22z"/>
<glyph glyph-name="egrave" horiz-adv-x="346" unicode="è" d="M206 556h-24l-95 144h41zM272 259q0 53 -7.5 96.5t-30 78t-58.5 34.5q-27 0 -47 -20.5t-30 -53.5t-14.5 -66.5t-4.5 -68.5h192zM193 -12q-75 0 -110.5 69.5t-35.5 184.5q0 113 31.5 183t97.5 70q68 0 98.5 -70.5t30.5 -182.5v-10h-225q0 -100 29.5 -158.5t83.5 -58.5 q48 0 79 68l28 -14q-40 -81 -107 -81z"/>
<glyph glyph-name="eacute" horiz-adv-x="346" unicode="é" d="M265 700l-95 -144h-24l78 144h41zM272 259q0 53 -7.5 96.5t-30 78t-58.5 34.5q-27 0 -47 -20.5t-30 -53.5t-14.5 -66.5t-4.5 -68.5h192zM193 -12q-75 0 -110.5 69.5t-35.5 184.5q0 113 31.5 183t97.5 70q68 0 98.5 -70.5t30.5 -182.5v-10h-225q0 -100 29.5 -158.5 t83.5 -58.5q48 0 79 68l28 -14q-40 -81 -107 -81z"/>
<glyph glyph-name="ecircumflex" horiz-adv-x="346" unicode="ê" d="M265 556h-23l-66 116l-63 -116h-23l68 144h36zM272 259q0 53 -7.5 96.5t-30 78t-58.5 34.5q-27 0 -47 -20.5t-30 -53.5t-14.5 -66.5t-4.5 -68.5h192zM193 -12q-75 0 -110.5 69.5t-35.5 184.5q0 113 31.5 183t97.5 70q68 0 98.5 -70.5t30.5 -182.5v-10h-225 q0 -100 29.5 -158.5t83.5 -58.5q48 0 79 68l28 -14q-40 -81 -107 -81z"/>
<glyph glyph-name="edieresis" horiz-adv-x="346" unicode="ë" d="M142 598q0 -11 -8.5 -19.5t-19.5 -8.5t-19.5 8.5t-8.5 19.5t8.5 19.5t19.5 8.5t19.5 -8.5t8.5 -19.5zM264 598q0 -11 -8.5 -19.5t-19.5 -8.5t-19.5 8.5t-8.5 19.5t8.5 19.5t19.5 8.5t19.5 -8.5t8.5 -19.5zM272 259q0 53 -7.5 96.5t-30 78t-58.5 34.5q-27 0 -47 -20.5 t-30 -53.5t-14.5 -66.5t-4.5 -68.5h192zM193 -12q-75 0 -110.5 69.5t-35.5 184.5q0 113 31.5 183t97.5 70q68 0 98.5 -70.5t30.5 -182.5v-10h-225q0 -100 29.5 -158.5t83.5 -58.5q48 0 79 68l28 -14q-40 -81 -107 -81z"/>
<glyph glyph-name="igrave" horiz-adv-x="160" unicode="ì" d="M95 0h-30v483h30v-483zM110 556h-24l-95 144h41z"/>
<glyph glyph-name="iacute" horiz-adv-x="160" unicode="í" d="M95 0h-30v483h30v-483zM169 700l-95 -144h-24l78 144h41z"/>
<glyph glyph-name="icircumflex" horiz-adv-x="160" unicode="î" d="M95 0h-30v483h30v-483zM168 556h-23l-66 116l-63 -116h-23l68 144h36z"/>
<glyph glyph-name="idieresis" horiz-adv-x="160" unicode="ï" d="M95 0h-30v483h30v-483zM47 598q0 -11 -8.5 -19.5t-19.5 -8.5t-19.5 8.5t-8.5 19.5t8.5 19.5t19.5 8.5t19.5 -8.5t8.5 -19.5zM169 598q0 -11 -8.5 -19.5t-19.5 -8.5t-19.5 8.5t-8.5 19.5t8.5 19.5t19.5 8.5t19.5 -8.5t8.5 -19.5z"/>
<glyph glyph-name="eth" horiz-adv-x="352" unicode="ð" d="M176 15q96 0 96 227q0 226 -96 226t-96 -226q0 -227 96 -227zM103 526l-12 25l101 45q-22 43 -36 66l29 16q19 -33 36 -69l73 33l11 -24l-73 -33q73 -169 73 -343q0 -111 -30.5 -182.5t-98.5 -71.5q-46 0 -76 37t-41.5 91.5t-11.5 125.5t11.5 125t41.5 91t76 37 q50 0 75 -55q-19 66 -48 131z"/>
<glyph glyph-name="ntilde" d="M211 554q-19 0 -31 17.5t-15.5 39t-11.5 39t-20 17.5q-38 0 -38 -107h-22q0 134 63 134q19 0 31 -17.5t15.5 -39t11.5 -39t20 -17.5q38 0 38 107h22q0 -134 -63 -134zM277 0h-30v394q0 74 -53 74q-30 0 -57 -27.5t-42 -66.5v-374h-30v483h30v-72q18 37 45 60.5t58 23.5 q41 0 60 -24.5t19 -76.5v-394z" unicode="ñ"/>
<glyph glyph-name="ograve" horiz-adv-x="352" unicode="ò" d="M207 556h-24l-95 144h41zM176 15q96 0 96 227q0 226 -96 226t-96 -226q0 -227 96 -227zM176 -12q-46 0 -76 37t-41.5 91.5t-11.5 125.5t11.5 125t41.5 91t76 37q68 0 98.5 -71t30.5 -182t-30.5 -182.5t-98.5 -71.5z"/>
<glyph glyph-name="oacute" horiz-adv-x="352" unicode="ó" d="M265 700l-95 -144h-24l78 144h41zM176 15q96 0 96 227q0 226 -96 226t-96 -226q0 -227 96 -227zM176 -12q-46 0 -76 37t-41.5 91.5t-11.5 125.5t11.5 125t41.5 91t76 37q68 0 98.5 -71t30.5 -182t-30.5 -182.5t-98.5 -71.5z"/>
<glyph glyph-name="ocircumflex" horiz-adv-x="352" unicode="ô" d="M264 556h-23l-66 116l-63 -116h-23l68 144h36zM176 15q96 0 96 227q0 226 -96 226t-96 -226q0 -227 96 -227zM176 -12q-46 0 -76 37t-41.5 91.5t-11.5 125.5t11.5 125t41.5 91t76 37q68 0 98.5 -71t30.5 -182t-30.5 -182.5t-98.5 -71.5z"/>
<glyph glyph-name="otilde" horiz-adv-x="352" unicode="õ" d="M214 554q-19 0 -31 17.5t-15.5 39t-11.5 39t-20 17.5q-38 0 -38 -107h-22q0 134 63 134q19 0 31 -17.5t15.5 -39t11.5 -39t20 -17.5q38 0 38 107h22q0 -134 -63 -134zM176 15q96 0 96 227q0 226 -96 226t-96 -226q0 -227 96 -227zM176 -12q-46 0 -76 37t-41.5 91.5 t-11.5 125.5t11.5 125t41.5 91t76 37q68 0 98.5 -71t30.5 -182t-30.5 -182.5t-98.5 -71.5z"/>
<glyph glyph-name="odieresis" horiz-adv-x="352" unicode="ö" d="M144 598q0 -11 -8.5 -19.5t-19.5 -8.5t-19.5 8.5t-8.5 19.5t8.5 19.5t19.5 8.5t19.5 -8.5t8.5 -19.5zM266 598q0 -11 -8.5 -19.5t-19.5 -8.5t-19.5 8.5t-8.5 19.5t8.5 19.5t19.5 8.5t19.5 -8.5t8.5 -19.5zM176 15q96 0 96 227q0 226 -96 226t-96 -226q0 -227 96 -227z M176 -12q-46 0 -76 37t-41.5 91.5t-11.5 125.5t11.5 125t41.5 91t76 37q68 0 98.5 -71t30.5 -182t-30.5 -182.5t-98.5 -71.5z"/>
<glyph glyph-name="divide" horiz-adv-x="374" unicode="÷" d="M222 193q0 -13 -10 -23t-23 -10t-23 10t-10 23t10 23t23 10t23 -10t10 -23zM345 322h-316v30h316v-30zM222 475q0 -13 -10 -23t-23 -10t-23 10t-10 23t10 23t23 10t23 -10t10 -23z"/>
<glyph glyph-name="oslash" horiz-adv-x="352" unicode="ø" d="M80 242q0 -94 17 -149l143 331q-23 44 -64 44q-96 0 -96 -226zM176 15q96 0 96 227q0 93 -17 148l-144 -331q24 -44 65 -44zM86 0h-29l23 54q-33 66 -33 188q0 71 11.5 125t41.5 91t76 37q48 0 78 -38l12 26h29l-23 -54q33 -65 33 -187q0 -111 -30.5 -182.5t-98.5 -71.5 q-48 0 -79 39z"/>
<glyph glyph-name="ugrave" d="M201 556h-24l-95 144h41zM277 0h-30v70q-39 -82 -103 -82q-42 0 -60.5 23.5t-18.5 77.5v394h30v-394q0 -74 53 -74q31 0 58 26.5t41 65.5v376h30v-483z" unicode="ù"/>
<glyph glyph-name="uacute" d="M260 700l-95 -144h-24l78 144h41zM277 0h-30v70q-39 -82 -103 -82q-42 0 -60.5 23.5t-18.5 77.5v394h30v-394q0 -74 53 -74q31 0 58 26.5t41 65.5v376h30v-483z" unicode="ú"/>
<glyph glyph-name="ucircumflex" d="M260 556h-23l-66 116l-63 -116h-23l68 144h36zM277 0h-30v70q-39 -82 -103 -82q-42 0 -60.5 23.5t-18.5 77.5v394h30v-394q0 -74 53 -74q31 0 58 26.5t41 65.5v376h30v-483z" unicode="û"/>
<glyph glyph-name="udieresis" d="M140 598q0 -11 -8.5 -19.5t-19.5 -8.5t-19.5 8.5t-8.5 19.5t8.5 19.5t19.5 8.5t19.5 -8.5t8.5 -19.5zM262 598q0 -11 -8.5 -19.5t-19.5 -8.5t-19.5 8.5t-8.5 19.5t8.5 19.5t19.5 8.5t19.5 -8.5t8.5 -19.5zM277 0h-30v70q-39 -82 -103 -82q-42 0 -60.5 23.5t-18.5 77.5 v394h30v-394q0 -74 53 -74q31 0 58 26.5t41 65.5v376h30v-483z" unicode="ü"/>
<glyph glyph-name="yacute" horiz-adv-x="279" unicode="ý" d="M228 700l-95 -144h-24l78 144h41zM27 -189l7 27q10 -7 24 -7q18 0 27 11.5t17 42.5l23 97l-109 501h33l90 -443l91 443h33l-137 -606q-9 -40 -25.5 -56.5t-42.5 -16.5q-19 0 -31 7z"/>
<glyph glyph-name="thorn" horiz-adv-x="351" unicode="þ" d="M183 15q88 0 88 227q0 226 -88 226q-28 0 -53.5 -30t-34.5 -70v-251q9 -40 35 -71t53 -31zM183 -12q-60 0 -88 79v-251h-30v851h30v-249q31 77 88 77q42 0 70 -34.5t39.5 -89.5t11.5 -129q0 -114 -29.5 -184t-91.5 -70z"/>
<glyph glyph-name="OE" horiz-adv-x="561" unicode="Œ" d="M298 167v333q-26 147 -100 147q-110 0 -110 -314q0 -315 110 -315q36 0 62 39.5t38 109.5zM508 0h-210v80q-34 -92 -100 -92q-145 0 -145 345q0 344 145 344q67 0 100 -90v80h210v-30h-178v-279h171v-30h-171v-298h178v-30z"/>
<glyph glyph-name="oe" horiz-adv-x="571" unicode="œ" d="M272 242q0 226 -96 226t-96 -226q0 -44 4.5 -81.5t14.5 -72t29.5 -54.5t47.5 -20q96 0 96 228zM305 259h192q0 53 -7.5 96.5t-30 78t-58.5 34.5q-27 0 -47 -20.5t-30 -53.5t-14.5 -66.5t-4.5 -68.5zM530 232h-225q0 -100 29.5 -158.5t83.5 -58.5q48 0 79 68l28 -14 q-41 -81 -107 -81q-97 0 -128 129q-28 -129 -114 -129q-46 0 -76 37t-41.5 91.5t-11.5 125.5t11.5 125t41.5 91t76 37q84 0 113 -124q26 124 112 124q68 0 98.5 -70.5t30.5 -182.5v-10z"/>
<glyph glyph-name="Scaron" horiz-adv-x="319" unicode="Š" d="M145 -12q-71 0 -118 57l24 26q16 -24 42 -38.5t52 -14.5q43 0 73 35.5t30 93.5q0 50 -21 91t-51 71l-59.5 59.5t-50.5 71.5t-21 92q0 66 37 106t88 40q59 0 97 -41l-19 -25q-32 36 -78 36q-38 0 -65.5 -32t-27.5 -84q0 -42 21 -79.5t50.5 -67t59.5 -61.5t51 -77.5 t21 -99.5q0 -68 -37.5 -113.5t-97.5 -45.5zM189 723h-36l-71 144h23l66 -116l63 116h23z"/>
<glyph glyph-name="scaron" horiz-adv-x="278" unicode="š" d="M164 556h-36l-71 144h23l66 -116l63 116h23zM137 -12q-68 0 -109 59l22 21q36 -53 87 -53q32 0 55.5 25t23.5 65q0 37 -18 66.5t-43.5 50t-51 42t-43.5 53.5t-18 73q0 46 30.5 75.5t74.5 29.5q57 0 93 -51l-20 -20q-28 44 -73 44q-34 0 -54.5 -22.5t-20.5 -55.5 q0 -35 18 -63t43.5 -49t51 -43t43.5 -55t18 -75q0 -52 -32 -84.5t-77 -32.5z"/>
<glyph glyph-name="Ydieresis" horiz-adv-x="322" unicode="Ÿ" d="M177 0h-32v289l-143 378h36l123 -339l125 339h34l-143 -378v-289zM132 765q0 -11 -8.5 -19.5t-19.5 -8.5t-19.5 8.5t-8.5 19.5t8.5 19.5t19.5 8.5t19.5 -8.5t8.5 -19.5zM254 765q0 -11 -8.5 -19.5t-19.5 -8.5t-19.5 8.5t-8.5 19.5t8.5 19.5t19.5 8.5t19.5 -8.5t8.5 -19.5 z"/>
<glyph glyph-name="circumflex" horiz-adv-x="175" unicode="ˆ" d="M175 556h-23l-66 116l-63 -116h-23l68 144h36z"/>
<glyph glyph-name="tilde" horiz-adv-x="201" unicode="˜" d="M138 554q-19 0 -31 17.5t-15.5 39t-11.5 39t-20 17.5q-38 0 -38 -107h-22q0 134 63 134q19 0 31 -17.5t15.5 -39t11.5 -39t20 -17.5q38 0 38 107h22q0 -134 -63 -134z"/>
<glyph glyph-name="Alpha" horiz-adv-x="312" unicode="Α" d="M230 209l-74 411l-74 -411h148zM300 0h-33l-32 179h-158l-32 -179h-33l125 667h38z"/>
<glyph glyph-name="Beta" horiz-adv-x="360" unicode="Β" d="M172 30q100 0 100 149q0 64 -24 106.5t-76 42.5h-68v-298h68zM168 358q95 0 95 139q0 140 -95 140h-64v-279h64zM172 0h-100v667h96q60 0 95 -44.5t35 -125.5q0 -120 -78 -153q38 -7 62.5 -55.5t24.5 -108.5q0 -87 -34 -133.5t-101 -46.5z"/>
<glyph glyph-name="Gamma" horiz-adv-x="330" unicode="Γ" d="M104 0h-32v667h210v-30h-178v-637z"/>
<glyph glyph-name="uni0394" horiz-adv-x="352" unicode="Δ" d="M301 30l-125 590l-125 -590h250zM340 0h-328l145 667h38z"/>
<glyph glyph-name="Epsilon" horiz-adv-x="330" unicode="Ε" d="M282 0h-210v667h210v-30h-178v-279h171v-30h-171v-298h178v-30z"/>
<glyph glyph-name="Zeta" horiz-adv-x="309" unicode="Ζ" d="M273 0h-237v31l197 606h-197v30h230v-30l-198 -607h205v-30z"/>
<glyph glyph-name="Eta" horiz-adv-x="395" unicode="Η" d="M323 0h-32v328h-187v-328h-32v667h32v-309h187v309h32v-667z"/>
<glyph glyph-name="Theta" horiz-adv-x="396" unicode="Θ" d="M198 18q57 0 83.5 88.5t26.5 226.5q0 139 -26.5 227t-83.5 88t-83.5 -88t-26.5 -227q0 -138 26.5 -226.5t83.5 -88.5zM198 -12q-53 0 -86.5 49.5t-46 123t-12.5 172.5t12.5 172.5t46 123t86.5 49.5t86.5 -49.5t46 -123t12.5 -172.5t-12.5 -172.5t-46 -123t-86.5 -49.5z M278 328h-160v30h160v-30z"/>
<glyph glyph-name="Iota" horiz-adv-x="176" unicode="Ι" d="M104 0h-32v667h32v-667z"/>
<glyph glyph-name="Kappa" horiz-adv-x="372" unicode="Κ" d="M354 0h-39l-164 319l-47 -88v-231h-32v667h32v-380l198 380h39l-174 -319z"/>
<glyph glyph-name="Lambda" horiz-adv-x="312" unicode="Λ" d="M300 0h-33l-111 620l-111 -620h-33l125 667h38z"/>
<glyph glyph-name="Mu" horiz-adv-x="508" unicode="Μ" d="M436 0h-32v609l-141 -609h-18l-141 609v-609h-32v667h52l130 -557l131 557h51v-667z"/>
<glyph glyph-name="Nu" horiz-adv-x="395" unicode="Ν" d="M323 0h-32l-187 575v-575h-32v667h32l187 -569v569h32v-667z"/>
<glyph glyph-name="Xi" horiz-adv-x="348" unicode="Ξ" d="M293 328h-237v30h237v-30zM299 0h-251v30h251v-30zM300 637h-251v30h251v-30z"/>
<glyph glyph-name="Omicron" horiz-adv-x="396" unicode="Ο" d="M198 18q57 0 83.5 88.5t26.5 226.5q0 139 -26.5 227t-83.5 88t-83.5 -88t-26.5 -227q0 -138 26.5 -226.5t83.5 -88.5zM198 -12q-53 0 -86.5 49.5t-46 123t-12.5 172.5t12.5 172.5t46 123t86.5 49.5t86.5 -49.5t46 -123t12.5 -172.5t-12.5 -172.5t-46 -123t-86.5 -49.5z "/>
<glyph glyph-name="Pi" horiz-adv-x="395" unicode="Π" d="M323 0h-32v637h-187v-637h-32v667h251v-667z"/>
<glyph glyph-name="Rho" horiz-adv-x="341" unicode="Ρ" d="M171 319q50 0 75.5 43.5t25.5 115.5t-25.5 115.5t-75.5 43.5h-67v-318h67zM104 0h-32v667h100q67 0 101 -53.5t34 -135.5t-34 -135.5t-101 -53.5h-68v-289z"/>
<glyph glyph-name="Sigma" horiz-adv-x="294" unicode="Σ" d="M81 637l118 -292l-119 -315h178v-30h-210v31l118 313l-118 293v30h210v-30h-177z"/>
<glyph glyph-name="Tau" horiz-adv-x="287" unicode="Τ" d="M159 0h-32v637h-109v30h251v-30h-110v-637z"/>
<glyph glyph-name="Upsilon" horiz-adv-x="322" unicode="Υ" d="M177 0h-32v289l-143 378h36l123 -339l125 339h34l-143 -378v-289z"/>
<glyph glyph-name="Phi" horiz-adv-x="524" unicode="Φ" d="M436 333q0 64 -14.5 114t-51.5 85t-92 39v-477q81 6 119.5 73t38.5 166zM88 333q0 -64 14 -114t51 -85.5t93 -39.5v477q-83 -6 -120.5 -72t-37.5 -166zM278 0h-32v64q-53 3 -91.5 26.5t-60 62t-31.5 83.5t-10 97t10 97t31.5 83t60 61.5t91.5 26.5v66h32v-66 q101 -6 147 -81.5t46 -186.5q0 -71 -17 -127t-62 -97t-114 -45v-64z"/>
<glyph glyph-name="Chi" horiz-adv-x="308" unicode="Χ" d="M300 0h-36l-110 302l-110 -302h-36l128 338l-121 329h37l102 -291l102 291h37l-121 -328z"/>
<glyph glyph-name="Psi" horiz-adv-x="518" unicode="Ψ" d="M275 0h-32v124q-171 10 -171 209v334h32v-334q0 -169 139 -179v513h32v-513q139 10 139 179v334h32v-334q0 -199 -171 -209v-124z"/>
<glyph glyph-name="alpha" horiz-adv-x="358" unicode="α" d="M168 15q28 0 53.5 30t34.5 70v251q-9 40 -34.5 71t-53.5 31q-88 0 -88 -227q0 -226 88 -226zM334 16l3 -26q-8 -2 -17 -2q-62 0 -64 82q-15 -37 -39.5 -59.5t-48.5 -22.5q-42 0 -70 34.5t-39.5 89.5t-11.5 129q0 114 29.5 184t91.5 70q25 0 49.5 -21.5t38.5 -62.5v72h30 v-407q0 -32 7 -46.5t26 -14.5q9 0 15 1z"/>
<glyph glyph-name="beta" horiz-adv-x="351" unicode="β" d="M95 70v-254h-30v645q0 216 122 216q106 0 106 -174q0 -56 -19.5 -99.5t-59.5 -58.5q37 -9 63.5 -57.5t26.5 -119.5q0 -83 -31.5 -131.5t-84.5 -48.5q-28 0 -53 22t-40 60zM95 461v-346q9 -40 35.5 -70t57.5 -30q40 0 61.5 45t21.5 108q0 80 -28.5 121.5t-70.5 41.5h-19 v27h19q40 0 64 37.5t24 107.5q0 72 -19.5 109.5t-53.5 37.5q-92 0 -92 -189z"/>
<glyph glyph-name="gamma" horiz-adv-x="279" unicode="γ" d="M154 -184h-30v170q0 280 -118 497h35q103 -210 108 -427q34 83 54 199.5t20 227.5h30q0 -250 -99 -481v-186z"/>
<glyph glyph-name="delta" horiz-adv-x="352" unicode="δ" d="M275 197q0 52 -17 95.5t-36 66.5t-51 53q-91 -80 -91 -214q0 -33 4.5 -62.5t14.5 -58t30 -45.5t47 -17q28 0 48 17t31 45t15.5 58t4.5 62zM176 -12q-67 0 -98 60.5t-31 148.5q0 137 103 236q-36 34 -55 65.5t-19 75.5q0 46 30.5 75.5t74.5 29.5q57 0 93 -51l-20 -20 q-28 44 -73 44q-34 0 -54.5 -22.5t-20.5 -55.5q0 -31 14.5 -58.5t37 -47.5t48 -46t48 -53.5t37 -72t14.5 -98.5q0 -56 -11 -101t-41.5 -77t-76.5 -32z"/>
<glyph glyph-name="epsilon" horiz-adv-x="327" unicode="ε" d="M176 -12q-64 0 -96.5 39.5t-32.5 99.5q0 47 25.5 79t62.5 39q-39 11 -61 46t-22 76q0 56 37 92t92 36q82 0 115 -81l-29 -14q-25 68 -86 68q-43 0 -69.5 -27t-26.5 -74q0 -50 26 -79t65 -29h64v-27h-64q-96 0 -96 -104q0 -50 26 -81.5t70 -31.5q64 0 96 68l28 -14 q-38 -81 -124 -81z"/>
<glyph glyph-name="zeta" horiz-adv-x="294" unicode="ζ" d="M226 -49q0 21 -9 29t-30 8q-68 0 -104 57.5t-36 133.5q0 132 42.5 243.5t138.5 217.5h-173v27h204v-27q-97 -113 -138 -224t-41 -237q0 -26 5 -52.5t16.5 -52.5t33.5 -42.5t51 -16.5q73 0 73 -64q0 -44 -42 -108h-38q47 66 47 108z"/>
<glyph glyph-name="eta" d="M277 -184h-30v578q0 74 -53 74q-30 0 -57 -27.5t-42 -66.5v-374h-30v483h30v-72q18 37 45 60.5t58 23.5q41 0 60 -24.5t19 -76.5v-578z" unicode="η"/>
<glyph glyph-name="theta" horiz-adv-x="352" unicode="θ" d="M176 652q-53 0 -74 -78t-22 -225h192q-1 148 -22 225.5t-74 77.5zM176 15q53 0 74 78t22 229h-192q1 -150 22 -228.5t74 -78.5zM176 -12q-71 0 -100 87.5t-29 258.5t29 258t100 87q72 0 100.5 -86.5t28.5 -258.5q0 -84 -6 -144.5t-20.5 -107.5t-40 -70.5t-62.5 -23.5z "/>
<glyph glyph-name="iota" horiz-adv-x="167" unicode="ι" d="M129 -12q-64 0 -64 88v407h30v-407q0 -32 7.5 -46.5t26.5 -14.5q8 0 14 1l3 -26q-8 -2 -17 -2z"/>
<glyph glyph-name="kappa" horiz-adv-x="325" unicode="κ" d="M301 0h-32l-108 242l-66 -110v-132h-30v483h30v-305l179 305h31l-128 -218z"/>
<glyph glyph-name="lambda" horiz-adv-x="279" unicode="λ" d="M34 645l-7 27q12 7 31 7q26 0 42.5 -16.5t25.5 -56.5l137 -606h-33l-91 443l-90 -443h-33l109 501l-23 97q-8 31 -17 42.5t-27 11.5q-14 0 -24 -7z"/>
<glyph glyph-name="uni03BC" horiz-adv-x="349" unicode="μ" d="M95 14v-198h-30v667h30v-394q0 -37 15.5 -56.5t41.5 -19.5q30 0 55 27t40 67v376h30v-407q0 -32 7.5 -46.5t26.5 -14.5q8 0 14 1l3 -26q-8 -2 -17 -2q-32 0 -47 20t-17 62q-36 -82 -95 -82q-38 0 -57 26z"/>
<glyph glyph-name="nu" horiz-adv-x="279" unicode="ν" d="M153 0h-32l-105 483h33l92 -448q82 202 82 448h30q0 -253 -100 -483z"/>
<glyph glyph-name="xi" horiz-adv-x="294" unicode="ξ" d="M187 -12q-68 0 -104 57t-36 132q0 65 26.5 112t63.5 56q-40 15 -62 59t-22 98q0 84 68 138h-66v27h192v-27h-100q-61 -47 -61 -138q0 -67 26.5 -105t66.5 -38h61v-27h-61q-45 0 -72 -38.5t-27 -116.5q0 -25 5 -51t16.5 -52t33.5 -42.5t51 -16.5q73 0 73 -64 q0 -44 -42 -108h-38q47 66 47 108q0 21 -9 29t-30 8z"/>
<glyph glyph-name="omicron" horiz-adv-x="352" unicode="ο" d="M176 15q96 0 96 227q0 226 -96 226t-96 -226q0 -227 96 -227zM176 -12q-46 0 -76 37t-41.5 91.5t-11.5 125.5t11.5 125t41.5 91t76 37q68 0 98.5 -71t30.5 -182t-30.5 -182.5t-98.5 -71.5z"/>
<glyph glyph-name="pi" horiz-adv-x="368" unicode="π" d="M290 0h-30v456h-152v-456h-30v456h-52v27h316v-27h-52v-456z"/>
<glyph glyph-name="rho" horiz-adv-x="351" unicode="ρ" d="M183 15q88 0 88 227q0 226 -88 226q-48 0 -68 -65.5t-20 -160.5v-125q9 -40 35 -71t53 -31zM183 -12q-25 0 -49.5 21.5t-38.5 62.5v-256h-30v426q0 111 28 182t90 71q42 0 70 -34.5t39.5 -89.5t11.5 -129q0 -114 -29.5 -184t-91.5 -70z"/>
<glyph glyph-name="sigma1" horiz-adv-x="284" unicode="ς" d="M183 -12q-67 0 -101.5 71.5t-34.5 182.5t34.5 182t101.5 71q46 0 84 -45l-21 -21q-29 39 -64 39q-54 0 -78 -65t-24 -161t24 -161.5t78 -65.5q39 0 56 -15t17 -49q0 -44 -42 -108h-33q47 66 47 108q0 21 -9.5 29t-34.5 8z"/>
<glyph glyph-name="sigma" horiz-adv-x="352" unicode="σ" d="M272 232q0 157 -70 224h-10q-112 0 -112 -214q0 -227 96 -227q28 0 48 19.5t29.5 53t14 68.5t4.5 76zM305 232q0 -67 -11 -119t-41.5 -88.5t-76.5 -36.5t-76 37t-41.5 91.5t-11.5 125.5q0 67 12 117.5t45.5 87t87.5 36.5h145v-27h-98q66 -84 66 -224z"/>
<glyph glyph-name="tau" horiz-adv-x="237" unicode="τ" d="M167 -12q-64 0 -64 88v380h-88v27h207v-27h-89v-380q0 -32 7.5 -46.5t26.5 -14.5q21 0 36 21l21 -18q-25 -30 -57 -30z"/>
<glyph glyph-name="upsilon" horiz-adv-x="347" unicode="υ" d="M171 -12q-61 0 -83.5 40.5t-22.5 115.5v339h30v-339q0 -67 17.5 -98t58.5 -31q96 0 96 227q0 127 -59 239l27 14q65 -119 65 -253q0 -111 -30.5 -182.5t-98.5 -71.5z"/>
<glyph glyph-name="phi" horiz-adv-x="464" unicode="φ" d="M384 242q0 92 -31.5 155.5t-105.5 70.5v-453q75 7 106 71t31 156zM417 242q0 -107 -40 -177t-130 -76v-173h-30v173q-89 6 -129.5 76.5t-40.5 176.5q0 194 115 253l14 -24q-54 -29 -75 -85t-21 -144q0 -42 6.5 -78.5t21 -70t42.5 -54t67 -24.5v480h15q98 0 141.5 -71 t43.5 -182z"/>
<glyph glyph-name="chi" horiz-adv-x="286" unicode="χ" d="M266 -184h-30l-93 305l-93 -305h-30l106 338l-100 329h30l87 -294l87 294h30l-100 -329z"/>
<glyph glyph-name="psi" horiz-adv-x="464" unicode="ψ" d="M247 -184h-30v173q-84 4 -118 56t-34 167v271h30v-271q0 -107 28.5 -150t93.5 -47v652h30v-652q63 4 92.5 47.5t29.5 149.5v271h30v-271q0 -115 -34.5 -167t-117.5 -56v-173z"/>
<glyph glyph-name="afii10023" horiz-adv-x="330" unicode="Ё" d="M144 765q0 -11 -8.5 -19.5t-19.5 -8.5t-19.5 8.5t-8.5 19.5t8.5 19.5t19.5 8.5t19.5 -8.5t8.5 -19.5zM266 765q0 -11 -8.5 -19.5t-19.5 -8.5t-19.5 8.5t-8.5 19.5t8.5 19.5t19.5 8.5t19.5 -8.5t8.5 -19.5zM282 0h-210v667h210v-30h-178v-279h171v-30h-171v-298h178v-30z "/>
<glyph glyph-name="afii10051" horiz-adv-x="417" unicode="Ђ" d="M245 -12v30q44 0 64.5 29.5t20.5 106.5v102q0 72 -27.5 115.5t-80.5 43.5q-35 0 -63 -10v-405h-32v637h-109v30h251v-30h-110v-202q27 10 63 10q70 0 105 -53t35 -136v-102q0 -90 -30 -128t-87 -38z"/>
<glyph glyph-name="afii10052" horiz-adv-x="330" unicode="Ѓ" d="M266 867l-95 -144h-24l78 144h41zM104 0h-32v667h210v-30h-178v-637z"/>
<glyph glyph-name="afii10053" horiz-adv-x="357" unicode="Є" d="M198 -12q-52 0 -85.5 48t-46.5 122t-13 175t13 175t46.5 122t85.5 48q79 0 113 -103l-30 -12q-15 43 -33 64t-50 21q-53 0 -80.5 -79.5t-29.5 -210.5h187v-30h-187q0 -139 27 -224.5t83 -85.5q35 0 54 27t32 78l30 -12q-29 -123 -116 -123z"/>
<glyph glyph-name="afii10054" horiz-adv-x="319" unicode="Ѕ" d="M145 -12q-71 0 -118 57l24 26q16 -24 42 -38.5t52 -14.5q43 0 73 35.5t30 93.5q0 50 -21 91t-51 71l-59.5 59.5t-50.5 71.5t-21 92q0 66 37 106t88 40q59 0 97 -41l-19 -25q-32 36 -78 36q-38 0 -65.5 -32t-27.5 -84q0 -42 21 -79.5t50.5 -67t59.5 -61.5t51 -77.5 t21 -99.5q0 -68 -37.5 -113.5t-97.5 -45.5z"/>
<glyph glyph-name="afii10055" horiz-adv-x="176" unicode="І" d="M104 0h-32v667h32v-667z"/>
<glyph glyph-name="afii10056" horiz-adv-x="176" unicode="Ї" d="M55 765q0 -11 -8.5 -19.5t-19.5 -8.5t-19.5 8.5t-8.5 19.5t8.5 19.5t19.5 8.5t19.5 -8.5t8.5 -19.5zM177 765q0 -11 -8.5 -19.5t-19.5 -8.5t-19.5 8.5t-8.5 19.5t8.5 19.5t19.5 8.5t19.5 -8.5t8.5 -19.5zM104 0h-32v667h32v-667z"/>
<glyph glyph-name="afii10057" horiz-adv-x="298" unicode="Ј" d="M109 -12q-61 0 -103 54l24 23q32 -47 79 -47q85 0 85 103v546h32v-546q0 -133 -117 -133z"/>
<glyph glyph-name="afii10058" horiz-adv-x="560" unicode="Љ" d="M390 348h-67v-318h67q50 0 75.5 43.5t25.5 115.5t-25.5 115.5t-75.5 43.5zM17 -12v30q30 0 49 19t33.5 81.5t21.5 177.5l22 371h180v-289h68q67 0 101 -53.5t34 -135.5t-34 -135.5t-101 -53.5h-100v637h-118l-21 -345q-6 -99 -17.5 -161.5t-30 -92.5t-38 -40t-49.5 -10z "/>
<glyph glyph-name="afii10059" horiz-adv-x="560" unicode="Њ" d="M323 30h67q50 0 75.5 40.5t25.5 108.5t-25.5 108.5t-75.5 40.5h-67v-298zM72 0v667h32v-309h187v309h32v-309h68q67 0 101 -50.5t34 -128.5t-34 -128.5t-101 -50.5h-100v328h-187v-328h-32z"/>
<glyph glyph-name="afii10060" horiz-adv-x="417" unicode="Ћ" d="M330 0v256q0 72 -27.5 115.5t-80.5 43.5q-35 0 -63 -10v-405h-32v637h-109v30h251v-30h-110v-202q27 10 63 10q70 0 105 -53t35 -136v-256h-32z"/>
<glyph glyph-name="afii10061" horiz-adv-x="372" unicode="Ќ" d="M274 867l-95 -144h-24l78 144h41zM354 0h-39l-164 319l-47 -88v-231h-32v667h32v-380l198 380h39l-174 -319z"/>
<glyph glyph-name="afii10062" horiz-adv-x="322" unicode="Ў" d="M276 784q-42 -58 -115 -58t-115 58l22 18q14 -22 40 -35.5t53 -13.5t53 13.5t40 35.5zM63 -12q-36 0 -61 15l14 29q20 -14 47 -14q25 0 36.5 12t19.5 42l25 89l-142 506h33l126 -448l126 448h33l-169 -602q-22 -77 -88 -77z"/>
<glyph glyph-name="afii10145" horiz-adv-x="395" unicode="Џ" d="M72 0v667h32v-637h187v637h32v-667h-110v-130h-32v130h-109z"/>
<glyph glyph-name="afii10017" horiz-adv-x="312" unicode="А" d="M230 209l-74 411l-74 -411h148zM300 0h-33l-32 179h-158l-32 -179h-33l125 667h38z"/>
<glyph glyph-name="afii10018" horiz-adv-x="341" unicode="Б" d="M171 348h-67v-318h67q50 0 75.5 43.5t25.5 115.5t-25.5 115.5t-75.5 43.5zM72 667h200v-30h-168v-259h68q67 0 101 -53.5t34 -135.5t-34 -135.5t-101 -53.5h-100v667z"/>
<glyph glyph-name="afii10019" horiz-adv-x="360" unicode="В" d="M172 30q100 0 100 149q0 64 -24 106.5t-76 42.5h-68v-298h68zM168 358q95 0 95 139q0 140 -95 140h-64v-279h64zM172 0h-100v667h96q60 0 95 -44.5t35 -125.5q0 -120 -78 -153q38 -7 62.5 -55.5t24.5 -108.5q0 -87 -34 -133.5t-101 -46.5z"/>
<glyph glyph-name="afii10020" horiz-adv-x="330" unicode="Г" d="M104 0h-32v667h210v-30h-178v-637z"/>
<glyph glyph-name="afii10021" horiz-adv-x="423" unicode="Д" d="M152 292q-13 -214 -66 -262h205v607h-118zM17 -123v151q24 2 38 11t28.5 35.5t23.5 80.5t14 141l22 371h180v-637h64v-153h-32v123h-306v-123h-32z"/>
<glyph glyph-name="afii10022" horiz-adv-x="330" unicode="Е" d="M282 0h-210v667h210v-30h-178v-279h171v-30h-171v-298h178v-30z"/>
<glyph glyph-name="afii10024" horiz-adv-x="508" unicode="Ж" d="M47 0h-39l187 348l-174 319h39l178 -342v342h32v-342l178 342h39l-174 -319l187 -348h-39l-164 319l-27 -51v-268h-32v268l-27 51z"/>
<glyph glyph-name="afii10025" horiz-adv-x="347" unicode="З" d="M164 -12q-45 0 -78 32.5t-50 82.5l31 13q36 -98 97 -98q95 0 95 160q0 83 -29.5 117.5t-67.5 34.5h-74v30h74q40 0 65 36t25 103q0 148 -87 148q-34 0 -54.5 -23.5t-36.5 -66.5l-31 13q16 50 49.5 78.5t72.5 28.5q56 0 89.5 -43t33.5 -131q0 -55 -22 -99t-62 -59 q37 -9 63.5 -56t26.5 -112q0 -86 -31 -137.5t-99 -51.5z"/>
<glyph glyph-name="afii10026" horiz-adv-x="395" unicode="И" d="M104 0h-32v667h32v-569l187 569h32v-667h-32v575z"/>
<glyph glyph-name="afii10027" horiz-adv-x="395" unicode="Й" d="M312 784q-42 -58 -115 -58t-115 58l22 18q14 -22 40 -35.5t53 -13.5t53 13.5t40 35.5zM104 0h-32v667h32v-569l187 569h32v-667h-32v575z"/>
<glyph glyph-name="afii10028" horiz-adv-x="372" unicode="К" d="M354 0h-39l-164 319l-47 -88v-231h-32v667h32v-380l198 380h39l-174 -319z"/>
<glyph glyph-name="afii10029" horiz-adv-x="395" unicode="Л" d="M17 -12v30q30 0 49 19t33.5 81.5t21.5 177.5l22 371h180v-667h-32v637h-118l-21 -345q-6 -99 -17.5 -161.5t-30 -92.5t-38 -40t-49.5 -10z"/>
<glyph glyph-name="afii10030" horiz-adv-x="508" unicode="М" d="M436 0h-32v609l-141 -609h-18l-141 609v-609h-32v667h52l130 -557l131 557h51v-667z"/>
<glyph glyph-name="afii10031" horiz-adv-x="395" unicode="Н" d="M323 0h-32v328h-187v-328h-32v667h32v-309h187v309h32v-667z"/>
<glyph glyph-name="afii10032" horiz-adv-x="396" unicode="О" d="M198 18q57 0 83.5 88.5t26.5 226.5q0 139 -26.5 227t-83.5 88t-83.5 -88t-26.5 -227q0 -138 26.5 -226.5t83.5 -88.5zM198 -12q-53 0 -86.5 49.5t-46 123t-12.5 172.5t12.5 172.5t46 123t86.5 49.5t86.5 -49.5t46 -123t12.5 -172.5t-12.5 -172.5t-46 -123t-86.5 -49.5z "/>
<glyph glyph-name="afii10033" horiz-adv-x="395" unicode="П" d="M323 0h-32v637h-187v-637h-32v667h251v-667z"/>
<glyph glyph-name="afii10034" horiz-adv-x="341" unicode="Р" d="M171 319q50 0 75.5 43.5t25.5 115.5t-25.5 115.5t-75.5 43.5h-67v-318h67zM104 0h-32v667h100q67 0 101 -53.5t34 -135.5t-34 -135.5t-101 -53.5h-68v-289z"/>
<glyph glyph-name="afii10035" horiz-adv-x="357" unicode="С" d="M198 -12q-52 0 -85.5 48t-46.5 122t-13 175t13 175t46.5 122t85.5 48q79 0 113 -103l-30 -12q-15 43 -33 64t-50 21q-56 0 -83 -87t-27 -228t27 -228t83 -87q35 0 54 27t32 78l30 -12q-29 -123 -116 -123z"/>
<glyph glyph-name="afii10036" horiz-adv-x="287" unicode="Т" d="M159 0h-32v637h-109v30h251v-30h-110v-637z"/>
<glyph glyph-name="afii10037" horiz-adv-x="322" unicode="У" d="M63 -12q-36 0 -61 15l14 29q20 -14 47 -14q25 0 36.5 12t19.5 42l25 89l-142 506h33l126 -448l126 448h33l-169 -602q-22 -77 -88 -77z"/>
<glyph glyph-name="afii10038" horiz-adv-x="524" unicode="Ф" d="M436 333q0 64 -14.5 114t-51.5 85t-92 39v-477q81 6 119.5 73t38.5 166zM88 333q0 -64 14 -114t51 -85.5t93 -39.5v477q-83 -6 -120.5 -72t-37.5 -166zM278 0h-32v64q-53 3 -91.5 26.5t-60 62t-31.5 83.5t-10 97t10 97t31.5 83t60 61.5t91.5 26.5v66h32v-66 q101 -6 147 -81.5t46 -186.5q0 -71 -17 -127t-62 -97t-114 -45v-64z"/>
<glyph glyph-name="afii10039" horiz-adv-x="308" unicode="Х" d="M300 0h-36l-110 302l-110 -302h-36l128 338l-121 329h37l102 -291l102 291h37l-121 -328z"/>
<glyph glyph-name="afii10040" horiz-adv-x="423" unicode="Ц" d="M355 -123v123h-283v667h32v-637h187v637h32v-637h64v-153h-32z"/>
<glyph glyph-name="afii10041" horiz-adv-x="362" unicode="Ч" d="M87 667v-189q0 -72 27.5 -115.5t80.5 -43.5q35 0 63 10v338h32v-667h-32v299q-27 -10 -63 -10q-70 0 -105 53t-35 136v189h32z"/>
<glyph glyph-name="afii10042" horiz-adv-x="585" unicode="Ш" d="M481 667h32v-667h-438v667h32v-637h171v637h32v-637h171v637z"/>
<glyph glyph-name="afii10043" horiz-adv-x="613" unicode="Щ" d="M481 667h32v-637h64v-153h-32v123h-470v667h32v-637h171v637h32v-637h171v637z"/>
<glyph glyph-name="afii10044" horiz-adv-x="396" unicode="Ъ" d="M226 348h-67v-318h67q50 0 75.5 43.5t25.5 115.5t-25.5 115.5t-75.5 43.5zM227 0h-100v637h-109v30h141v-289h68q67 0 101 -53.5t34 -135.5t-34 -135.5t-101 -53.5z"/>
<glyph glyph-name="afii10045" horiz-adv-x="492" unicode="Ы" d="M420 0h-32v667h32v-667zM171 348h-67v-318h67q50 0 75.5 43.5t25.5 115.5t-25.5 115.5t-75.5 43.5zM72 667h32v-289h68q67 0 101 -53.5t34 -135.5t-34 -135.5t-101 -53.5h-100v667z"/>
<glyph glyph-name="afii10046" horiz-adv-x="341" unicode="Ь" d="M171 348h-67v-318h67q50 0 75.5 43.5t25.5 115.5t-25.5 115.5t-75.5 43.5zM72 667h32v-289h68q67 0 101 -53.5t34 -135.5t-34 -135.5t-101 -53.5h-100v667z"/>
<glyph glyph-name="afii10047" horiz-adv-x="357" unicode="Э" d="M159 -12q-87 0 -116 123l30 12q13 -51 32 -78t54 -27q55 0 82 85t28 225h-187v30h187q-2 131 -29.5 210.5t-80.5 79.5q-32 0 -50 -21t-33 -64l-30 12q34 103 113 103q52 0 85.5 -48t46.5 -122t13 -175t-13 -175t-46.5 -122t-85.5 -48z"/>
<glyph glyph-name="afii10048" horiz-adv-x="540" unicode="Ю" d="M342 18q57 0 83.5 88.5t26.5 226.5q0 139 -26.5 227t-83.5 88t-83.5 -88t-26.5 -227q0 -138 26.5 -226.5t83.5 -88.5zM342 -12q-76 0 -110.5 94t-34.5 246h-93v-328h-32v667h32v-309h93q6 320 145 320q53 0 86.5 -49.5t46 -123t12.5 -172.5t-12.5 -172.5t-46 -123 t-86.5 -49.5z"/>
<glyph glyph-name="afii10049" horiz-adv-x="366" unicode="Я" d="M195 319h67v318h-67q-50 0 -75.5 -43.5t-25.5 -115.5t25.5 -115.5t75.5 -43.5zM89 0h-36l104 294q-40 11 -69 56t-29 128q0 89 37 139t98 50h100v-667h-32v289h-74z"/>
<glyph glyph-name="afii10065" d="M159 15q63 0 88 73v120q-25 75 -88 75q-42 0 -63.5 -39t-21.5 -95t21.5 -95t63.5 -39zM277 0h-30v53q-31 -65 -88 -65q-54 0 -86 45t-32 116t32 116t86 45q58 0 88 -63v101q0 62 -17 91t-60 29q-51 0 -93 -54l-18 23q54 58 111 58q59 0 83 -35t24 -111v-349z" unicode="а"/>
<glyph glyph-name="afii10066" horiz-adv-x="352" unicode="б" d="M176 -12q-65 0 -97 74.5t-32 201.5q0 64 1.5 104t6 81.5t14 65.5t25 46t38.5 34.5t55 20.5q77 20 77 51h30q0 -26 -22.5 -45t-76.5 -34q-64 -18 -87 -59.5t-31 -133.5q32 100 103 100q63 0 94 -71.5t31 -180.5t-32.5 -182t-96.5 -73zM176 15q96 0 96 228q0 225 -96 225 q-51 0 -73.5 -63.5t-22.5 -161.5q0 -228 96 -228z"/>
<glyph glyph-name="afii10067" horiz-adv-x="330" unicode="в" d="M166 262q76 0 76 97q0 99 -76 99h-71v-196h71zM169 25q81 0 81 105q0 45 -19.5 75.5t-61.5 30.5h-74v-211h74zM169 0h-104v483h101q50 0 80 -32.5t30 -91.5q0 -84 -60 -109q30 -9 48.5 -43.5t18.5 -75.5q0 -131 -114 -131z"/>
<glyph glyph-name="afii10068" horiz-adv-x="275" unicode="г" d="M247 483v-27h-152v-456h-30v483h182z"/>
<glyph glyph-name="afii10069" horiz-adv-x="369" unicode="д" d="M150 456l-19 -229q-14 -163 -54 -200h170v429h-97zM21 -123v148q33 4 51.5 44.5t28.5 163.5l21 250h155v-456h60v-150h-30v123h-256v-123h-30z"/>
<glyph glyph-name="afii10070" horiz-adv-x="346" unicode="е" d="M272 259q0 53 -7.5 96.5t-30 78t-58.5 34.5q-27 0 -47 -20.5t-30 -53.5t-14.5 -66.5t-4.5 -68.5h192zM193 -12q-75 0 -110.5 69.5t-35.5 184.5q0 113 31.5 183t97.5 70q68 0 98.5 -70.5t30.5 -182.5v-10h-225q0 -100 29.5 -158.5t83.5 -58.5q48 0 79 68l28 -14 q-40 -81 -107 -81z"/>
<glyph glyph-name="afii10072" horiz-adv-x="420" unicode="ж" d="M56 0h-32l124 265l-128 218h31l144 -246v246h30v-246l144 246h31l-128 -218l124 -265h-32l-108 242l-31 -52v-190h-30v190l-31 52z"/>
<glyph glyph-name="afii10073" horiz-adv-x="327" unicode="з" d="M151 -12q-86 0 -124 81l28 14q32 -68 96 -68q44 0 70 31.5t26 81.5q0 104 -96 104h-64v27h64q39 0 65 29t26 79q0 47 -26.5 74t-69.5 27q-61 0 -86 -68l-29 14q33 81 115 81q55 0 92 -36t37 -92q0 -41 -22 -76t-61 -46q37 -7 62.5 -39t25.5 -79q0 -60 -32.5 -99.5 t-96.5 -39.5z"/>
<glyph glyph-name="afii10074" d="M102 0h-37v483h30v-411l145 411h37v-483h-30v416z" unicode="и"/>
<glyph glyph-name="afii10075" d="M286 617q-42 -58 -115 -58t-115 58l22 18q14 -22 40 -35.5t53 -13.5t53 13.5t40 35.5zM102 0h-37v483h30v-411l145 411h37v-483h-30v416z" unicode="й"/>
<glyph glyph-name="afii10076" horiz-adv-x="325" unicode="к" d="M301 0h-32l-108 242l-66 -110v-132h-30v483h30v-305l179 305h31l-128 -218z"/>
<glyph glyph-name="afii10077" d="M21 -12v27q31 0 50 46.5t30 171.5l21 250h155v-483h-30v456h-97l-19 -229q-11 -137 -37.5 -188t-72.5 -51z" unicode="л"/>
<glyph glyph-name="afii10078" horiz-adv-x="435" unicode="м" d="M370 0h-30v431l-113 -431h-19l-113 431v-431h-30v483h47l106 -402l106 402h46v-483z"/>
<glyph glyph-name="afii10079" d="M95 0h-30v483h30v-218h152v218h30v-483h-30v238h-152v-238z" unicode="н"/>
<glyph glyph-name="afii10080" horiz-adv-x="352" unicode="о" d="M176 15q96 0 96 227q0 226 -96 226t-96 -226q0 -227 96 -227zM176 -12q-46 0 -76 37t-41.5 91.5t-11.5 125.5t11.5 125t41.5 91t76 37q68 0 98.5 -71t30.5 -182t-30.5 -182.5t-98.5 -71.5z"/>
<glyph glyph-name="afii10081" d="M277 0h-30v456h-152v-456h-30v483h212v-483z" unicode="п"/>
<glyph glyph-name="afii10082" horiz-adv-x="351" unicode="р" d="M183 15q88 0 88 227q0 226 -88 226q-28 0 -53.5 -30t-34.5 -70v-251q9 -40 35 -71t53 -31zM183 -12q-25 0 -49.5 21.5t-38.5 62.5v-256h-30v667h30v-70q15 37 39.5 59.5t48.5 22.5q42 0 70 -34.5t39.5 -89.5t11.5 -129q0 -114 -29.5 -184t-91.5 -70z"/>
<glyph glyph-name="afii10083" horiz-adv-x="294" unicode="с" d="M183 -12q-67 0 -101.5 71.5t-34.5 182.5t34.5 182t101.5 71q46 0 84 -45l-21 -21q-29 39 -64 39q-54 0 -78 -65t-24 -161t24 -161.5t78 -65.5q36 0 64 39l21 -21q-33 -45 -84 -45z"/>
<glyph glyph-name="afii10084" horiz-adv-x="258" unicode="т" d="M144 0h-30v456h-86v27h202v-27h-86v-456z"/>
<glyph glyph-name="afii10085" horiz-adv-x="279" unicode="у" d="M27 -189l7 27q10 -7 24 -7q18 0 27 11.5t17 42.5l23 97l-109 501h33l90 -443l91 443h33l-137 -606q-9 -40 -25.5 -56.5t-42.5 -16.5q-19 0 -31 7z"/>
<glyph glyph-name="afii10086" horiz-adv-x="484" unicode="ф" d="M332 15q74 0 74 227q0 226 -74 226q-24 0 -45.5 -30t-29.5 -70v-251q8 -40 29.5 -71t45.5 -31zM152 468q-74 0 -74 -227q0 -226 74 -226q24 0 45.5 30t29.5 70v251q-8 40 -29.5 71t-45.5 31zM151 495q23 0 43.5 -19.5t32.5 -59.5v251h30v-249q12 36 33 56.5t43 20.5 q53 0 78.5 -69.5t25.5 -183.5t-25.5 -184t-78.5 -70q-23 0 -43.5 19.5t-32.5 59.5v-251h-30v249q-12 -36 -33 -56.5t-43 -20.5q-53 0 -78.5 69.5t-25.5 183.5t25.5 184t78.5 70z"/>
<glyph glyph-name="afii10087" horiz-adv-x="286" unicode="х" d="M266 0h-33l-90 217l-90 -217h-33l106 245l-100 238h33l84 -209l84 209h33l-100 -238z"/>
<glyph glyph-name="afii10088" horiz-adv-x="369" unicode="ц" d="M307 -123v123h-242v483h30v-456h152v456h30v-456h60v-150h-30z"/>
<glyph glyph-name="afii10089" horiz-adv-x="333" unicode="ч" d="M56 483h30v-195q0 -74 61 -74q25 0 51 11t40 25v233h30v-483h-30v223q-40 -36 -95 -36q-47 0 -67 24t-20 77v195z"/>
<glyph glyph-name="afii10090" horiz-adv-x="494" unicode="ш" d="M399 483h30v-483h-364v483h30v-456h137v456h30v-456h137v456z"/>
<glyph glyph-name="afii10091" horiz-adv-x="521" unicode="щ" d="M399 483h30v-456h60v-150h-30v123h-394v483h30v-456h137v456h30v-456h137v456z"/>
<glyph glyph-name="afii10092" horiz-adv-x="379" unicode="ъ" d="M217 251h-73v-224h73q40 0 61 31t21 81q0 51 -20.5 81.5t-61.5 30.5zM218 0h-104v456h-86v27h116v-206h74q56 0 85 -39t29 -99t-29 -99.5t-85 -39.5z"/>
<glyph glyph-name="afii10093" horiz-adv-x="460" unicode="ы" d="M395 0h-30v483h30v-483zM168 251h-73v-224h73q40 0 61 31t21 81q0 51 -20.5 81.5t-61.5 30.5zM65 483h30v-206h74q56 0 85 -39t29 -99t-29 -99.5t-85 -39.5h-104v483z"/>
<glyph glyph-name="afii10094" horiz-adv-x="330" unicode="ь" d="M168 251h-73v-224h73q40 0 61 31t21 81q0 51 -20.5 81.5t-61.5 30.5zM65 483h30v-206h74q56 0 85 -39t29 -99t-29 -99.5t-85 -39.5h-104v483z"/>
<glyph glyph-name="afii10095" horiz-adv-x="294" unicode="э" d="M111 -12q-51 0 -84 45l21 21q28 -39 64 -39q52 0 76 62t26 155h-152v27h152q-6 209 -102 209q-35 0 -64 -39l-21 21q38 45 84 45q67 0 101.5 -71t34.5 -182t-34.5 -182.5t-101.5 -71.5z"/>
<glyph glyph-name="afii10096" horiz-adv-x="476" unicode="ю" d="M300 15q96 0 96 227q0 226 -96 226t-96 -226q0 -227 96 -227zM300 -12q-67 0 -98 70.5t-31 179.5h-76v-238h-30v483h30v-218h76q2 101 33.5 165.5t95.5 64.5q68 0 98.5 -71t30.5 -182t-30.5 -182.5t-98.5 -71.5z"/>
<glyph glyph-name="afii10097" d="M174 232h73v224h-73q-40 0 -61 -31t-21 -81q0 -51 20.5 -81.5t61.5 -30.5zM88 0h-35l86 211q-34 8 -57 42.5t-23 90.5q0 61 30 100t84 39h104v-483h-30v206h-79z" unicode="я"/>
<glyph glyph-name="afii10071" horiz-adv-x="346" unicode="ё" d="M144 598q0 -11 -8.5 -19.5t-19.5 -8.5t-19.5 8.5t-8.5 19.5t8.5 19.5t19.5 8.5t19.5 -8.5t8.5 -19.5zM266 598q0 -11 -8.5 -19.5t-19.5 -8.5t-19.5 8.5t-8.5 19.5t8.5 19.5t19.5 8.5t19.5 -8.5t8.5 -19.5zM272 259q0 53 -7.5 96.5t-30 78t-58.5 34.5q-27 0 -47 -20.5 t-30 -53.5t-14.5 -66.5t-4.5 -68.5h192zM193 -12q-75 0 -110.5 69.5t-35.5 184.5q0 113 31.5 183t97.5 70q68 0 98.5 -70.5t30.5 -182.5v-10h-225q0 -100 29.5 -158.5t83.5 -58.5q48 0 79 68l28 -14q-40 -81 -107 -81z"/>
<glyph glyph-name="afii10099" horiz-adv-x="358" unicode="ђ" d="M230 541h-119v-130q18 37 45 60.5t58 23.5q42 0 60.5 -23.5t18.5 -77.5v-490q0 -100 -64 -100q-41 0 -57 38l27 14q10 -25 30 -25q34 0 34 73v490q0 74 -53 74q-30 0 -57 -27.5t-42 -66.5v-374h-30v541h-55v27h55v99h30v-99h119v-27z"/>
<glyph glyph-name="afii10100" horiz-adv-x="275" unicode="ѓ" d="M246 700l-95 -144h-24l78 144h41zM247 483v-27h-152v-456h-30v483h182z"/>
<glyph glyph-name="afii10101" horiz-adv-x="294" unicode="є" d="M183 -12q-67 0 -101.5 71.5t-34.5 182.5t34.5 182t101.5 71q46 0 84 -45l-21 -21q-29 39 -64 39q-52 0 -76 -59.5t-26 -149.5h152v-27h-152q1 -93 25 -155t77 -62q36 0 64 39l21 -21q-33 -45 -84 -45z"/>
<glyph glyph-name="afii10102" horiz-adv-x="278" unicode="ѕ" d="M137 -12q-68 0 -109 59l22 21q36 -53 87 -53q32 0 55.5 25t23.5 65q0 37 -18 66.5t-43.5 50t-51 42t-43.5 53.5t-18 73q0 46 30.5 75.5t74.5 29.5q57 0 93 -51l-20 -20q-28 44 -73 44q-34 0 -54.5 -22.5t-20.5 -55.5q0 -35 18 -63t43.5 -49t51 -43t43.5 -55t18 -75 q0 -52 -32 -84.5t-77 -32.5z"/>
<glyph glyph-name="afii10103" horiz-adv-x="160" unicode="і" d="M95 0h-30v483h30v-483zM80 566q-11 0 -20 8.5t-9 20.5t9 20.5t20 8.5q12 0 20.5 -8.5t8.5 -20.5t-8.5 -20.5t-20.5 -8.5z"/>
<glyph glyph-name="afii10104" horiz-adv-x="160" unicode="ї" d="M47 598q0 -11 -8.5 -19.5t-19.5 -8.5t-19.5 8.5t-8.5 19.5t8.5 19.5t19.5 8.5t19.5 -8.5t8.5 -19.5zM169 598q0 -11 -8.5 -19.5t-19.5 -8.5t-19.5 8.5t-8.5 19.5t8.5 19.5t19.5 8.5t19.5 -8.5t8.5 -19.5zM95 0h-30v483h30v-483z"/>
<glyph glyph-name="afii10105" horiz-adv-x="160" unicode="ј" d="M31 -196q-41 0 -57 38l27 14q10 -25 30 -25q34 0 34 73v579h30v-579q0 -100 -64 -100zM80 566q-11 0 -20 8.5t-9 20.5t9 20.5t20 8.5q12 0 20.5 -8.5t8.5 -20.5t-8.5 -20.5t-20.5 -8.5z"/>
<glyph glyph-name="afii10106" horiz-adv-x="512" unicode="љ" d="M350 251h-73v-224h73q40 0 61 31t21 81q0 51 -20.5 81.5t-61.5 30.5zM21 -12v27q31 0 50 46.5t30 171.5l21 250h155v-206h74q56 0 85 -39t29 -99t-29 -99.5t-85 -39.5h-104v456h-97l-19 -229q-11 -137 -37.5 -188t-72.5 -51z"/>
<glyph glyph-name="afii10107" horiz-adv-x="512" unicode="њ" d="M350 238h-73v-211h73q40 0 61 29t21 77t-20.5 76.5t-61.5 28.5zM95 0h-30v483h30v-218h152v218h30v-218h74q56 0 85 -37t29 -95q0 -57 -29 -95t-85 -38h-104v238h-152v-238z"/>
<glyph glyph-name="afii10108" horiz-adv-x="358" unicode="ћ" d="M230 541h-119v-130q18 37 45 60.5t58 23.5q42 0 60.5 -23.5t18.5 -77.5v-394h-30v394q0 74 -53 74q-30 0 -57 -27.5t-42 -66.5v-374h-30v541h-55v27h55v99h30v-99h119v-27z"/>
<glyph glyph-name="afii10109" horiz-adv-x="325" unicode="ќ" d="M252 700l-95 -144h-24l78 144h41zM301 0h-32l-108 242l-66 -110v-132h-30v483h30v-305l179 305h31l-128 -218z"/>
<glyph glyph-name="afii10110" horiz-adv-x="279" unicode="ў" d="M254 617q-42 -58 -115 -58t-115 58l22 18q14 -22 40 -35.5t53 -13.5t53 13.5t40 35.5zM27 -189l7 27q10 -7 24 -7q18 0 27 11.5t17 42.5l23 97l-109 501h33l90 -443l91 443h33l-137 -606q-9 -40 -25.5 -56.5t-42.5 -16.5q-19 0 -31 7z"/>
<glyph glyph-name="afii10193" d="M156 -119v119h-91v483h30v-456h152v456h30v-483h-91v-119h-30z" unicode="џ"/>
<glyph glyph-name="afii10050" horiz-adv-x="330" unicode="Ґ" d="M104 637v-637h-32v667h178v124h32v-154h-178z"/>
<glyph glyph-name="afii10098" horiz-adv-x="275" unicode="ґ" d="M95 456v-456h-30v483h152v119h30v-146h-152z"/>
<glyph glyph-name="thinspace" horiz-adv-x="36" unicode=" "/>
<glyph glyph-name="endash" horiz-adv-x="460" unicode="–" d="M430 227h-400v30h400v-30z"/>
<glyph glyph-name="emdash" horiz-adv-x="640" unicode="—" d="M610 227h-580v30h580v-30z"/>
<glyph glyph-name="quoteleft" horiz-adv-x="208" unicode="‘" d="M69 556q0 36 18 69.5t44 51.5l22 -18q-24 -18 -38.5 -43.5t-14.5 -48.5q5 1 7 1q14 0 23 -9.5t9 -23.5q0 -13 -9 -22.5t-23 -9.5q-16 0 -27 14t-11 39z"/>
<glyph glyph-name="quotesinglbase" horiz-adv-x="208" unicode="‚" d="M141 3q0 -36 -18 -69.5t-44 -51.5l-22 18q24 18 38.5 43.5t14.5 48.5q-5 -1 -7 -1q-14 0 -23 9.5t-9 23.5q0 13 9 22.5t23 9.5q16 0 27 -14t11 -39z"/>
<glyph glyph-name="quotedblleft" horiz-adv-x="331" unicode="“" d="M190 556q0 36 18 69.5t44 51.5l22 -18q-24 -18 -38.5 -43.5t-14.5 -48.5q5 1 7 1q14 0 23 -9.5t9 -23.5q0 -13 -9 -22.5t-23 -9.5q-16 0 -27 14t-11 39zM67 556q0 36 18 69.5t44 51.5l22 -18q-24 -18 -38.5 -43.5t-14.5 -48.5q5 1 7 1q14 0 23 -9.5t9 -23.5 q0 -13 -9 -22.5t-23 -9.5q-16 0 -27 14t-11 39z"/>
<glyph glyph-name="quotedblright" horiz-adv-x="331" unicode="”" d="M141 624q0 -36 -18 -69.5t-44 -51.5l-22 18q24 18 38.5 43.5t14.5 48.5q-5 -1 -7 -1q-14 0 -23 9.5t-9 23.5q0 13 9 22.5t23 9.5q16 0 27 -14t11 -39zM264 624q0 -36 -18 -69.5t-44 -51.5l-22 18q24 18 38.5 43.5t14.5 48.5q-5 -1 -7 -1q-14 0 -23 9.5t-9 23.5 q0 13 9 22.5t23 9.5q16 0 27 -14t11 -39z"/>
<glyph glyph-name="dagger" horiz-adv-x="251" unicode="†" d="M226 539l-89 4l4 -216h-31l4 216l-89 -4v27l89 -3l-4 114h31l-4 -114l89 3v-27z"/>
<glyph glyph-name="daggerdbl" horiz-adv-x="251" unicode="‡" d="M226 566v-27l-89 4v-229l89 4v-27l-89 3l4 -114h-31l4 114l-89 -3v27l89 -4v229l-89 -4v27l89 -3l-4 114h31l-4 -114z"/>
<glyph glyph-name="ellipsis" horiz-adv-x="624" unicode="…" d="M553 24q0 -14 -9.5 -23.5t-23.5 -9.5t-23.5 9.5t-9.5 23.5q0 13 10 22.5t23 9.5t23 -9.5t10 -22.5zM345 24q0 -14 -9.5 -23.5t-23.5 -9.5t-23.5 9.5t-9.5 23.5q0 13 10 22.5t23 9.5t23 -9.5t10 -22.5zM137 24q0 -14 -9.5 -23.5t-23.5 -9.5t-23.5 9.5t-9.5 23.5 q0 13 10 22.5t23 9.5t23 -9.5t10 -22.5z"/>
<glyph glyph-name="perthousand" horiz-adv-x="817" unicode="‰" d="M748 150q0 58 -21.5 97.5t-58.5 39.5t-58.5 -39.5t-21.5 -97.5q0 -57 21.5 -96t58.5 -39t58.5 39t21.5 96zM781 150q0 -71 -31 -116.5t-82 -45.5t-82 45.5t-31 116.5q0 72 31 118t82 46t82 -46t31 -118zM486 150q0 58 -21.5 97.5t-58.5 39.5t-58.5 -39.5t-21.5 -97.5 q0 -57 21.5 -96t58.5 -39t58.5 39t21.5 96zM229 513q0 58 -21.5 97.5t-58.5 39.5t-58.5 -39.5t-21.5 -97.5q0 -57 21.5 -96t58.5 -39t58.5 39t21.5 96zM519 150q0 -71 -31 -116.5t-82 -45.5t-82 45.5t-31 116.5q0 72 31 118t82 46t82 -46t31 -118zM429 667l-270 -667h-32 l269 667h33zM262 513q0 -71 -30.5 -116.5t-82.5 -45.5q-51 0 -82 45.5t-31 116.5q0 72 31 118t82 46q52 0 82.5 -46t30.5 -118z"/>
<glyph glyph-name="guilsinglleft" horiz-adv-x="183" unicode="‹" d="M153 63h-33l-90 180l90 177h33l-90 -177z"/>
<glyph glyph-name="guilsinglright" horiz-adv-x="183" unicode="›" d="M153 243l-90 -180h-33l90 180l-90 177h33z"/>
<glyph glyph-name="uni203E" horiz-adv-x="240" unicode="‾" d="M240 581h-240v27h240v-27z"/>
<glyph glyph-name="fraction" horiz-adv-x="100" unicode="⁄" d="M201 667l-270 -667h-32l269 667h33z"/>
<glyph glyph-name="Euro" horiz-adv-x="366" unicode="€" d="M207 -12q-125 0 -142 259h-47v30h45q-1 18 -1 56q0 39 1 58h-45v30h47q8 118 42.5 187.5t99.5 69.5q79 0 113 -103l-30 -12q-15 43 -33 64t-50 21q-91 0 -107 -227h137v-30h-139q-1 -19 -1 -58q0 -38 1 -56h139v-30h-137q15 -229 107 -229q35 0 54 27t32 78l30 -12 q-29 -123 -116 -123z"/>
<glyph glyph-name="trademark" horiz-adv-x="374" unicode="™" d="M129 641h-42v-194h-28v194h-42v26h112v-26zM339 447h-28v182l-55 -182h-8l-55 182v-182h-28v220h43l44 -157l44 157h43v-220z"/>
<glyph glyph-name="arrowleft" horiz-adv-x="582" unicode="←" d="M538 211h-269l12 -130l-281 205l281 204l-12 -129h269v-150z"/>
<glyph glyph-name="arrowup" horiz-adv-x="582" unicode="↑" d="M216 17v269l-130 -12l205 281l204 -281l-129 12v-269h-150z"/>
<glyph glyph-name="arrowright" horiz-adv-x="582" unicode="→" d="M584 286l-281 -205l12 130h-268v150h268l-12 129z"/>
<glyph glyph-name="arrowdown" horiz-adv-x="582" unicode="↓" d="M366 555v-269l130 12l-205 -281l-204 281l129 -12v269h150z"/>
<glyph glyph-name="partialdiff" horiz-adv-x="352" unicode="∂" d="M176 15q96 0 96 227q0 226 -96 226t-96 -226q0 -227 96 -227zM176 -12q-46 0 -76 37t-41.5 91.5t-11.5 125.5t11.5 125t41.5 91t76 37q50 0 75 -55q-36 130 -94 222l28 16q57 -96 88.5 -210t31.5 -226q0 -111 -30.5 -182.5t-98.5 -71.5z"/>
<glyph glyph-name="product" horiz-adv-x="348" unicode="∏" d="M274 -90h-32v727h-137v-727h-32v727h-55v30h312v-30h-56v-727z"/>
<glyph glyph-name="summation" horiz-adv-x="294" unicode="∑" d="M81 637l118 -337l-119 -360h178v-30h-210v31l118 358l-118 338v30h210v-30h-177z"/>
<glyph glyph-name="minus" horiz-adv-x="374" unicode="−" d="M345 322h-316v30h316v-30z"/>
<glyph glyph-name="radical" horiz-adv-x="464" unicode="√" d="M289 0h-35l-76 331l-128 -28l-6 29l154 34l74 -331l146 632h28z"/>
<glyph glyph-name="infinity" horiz-adv-x="467" unicode="∞" d="M137 211q47 0 82 124q-35 125 -82 125q-37 0 -56.5 -35t-19.5 -90t19.5 -89.5t56.5 -34.5zM330 211q37 0 56.5 34.5t19.5 89.5t-19.5 90t-56.5 35q-49 0 -82 -125q33 -124 82 -124zM132 180q-50 0 -76.5 46t-26.5 109t26.5 109t76.5 46q65 0 101 -114q36 114 102 114 q50 0 76.5 -46t26.5 -109t-26.5 -109t-76.5 -46q-66 0 -102 114q-36 -114 -101 -114z"/>
<glyph glyph-name="approxequal" horiz-adv-x="374" unicode="≈" d="M29 416v33q34 -18 79 -18q34 0 76 16t81 16q43 0 80 -15v-33q-35 18 -80 18q-33 0 -75 -16t-82 -16q-42 0 -79 15zM29 220v33q34 -18 79 -18q34 0 76 16t81 16q43 0 80 -15v-33q-35 18 -80 18q-33 0 -75 -16t-82 -16q-42 0 -79 15z"/>
<glyph glyph-name="notequal" horiz-adv-x="374" unicode="≠" d="M105 93h-32l51 127h-95v30h108l68 168h-176v30h188l51 126h33l-51 -126h95v-30h-108l-68 -168h176v-30h-188z"/>
<glyph glyph-name="lessequal" horiz-adv-x="374" unicode="≤" d="M345 60h-316v30h316v-30zM345 166l-316 158v21l316 158v-36l-275 -133l275 -132v-36z"/>
<glyph glyph-name="greaterequal" horiz-adv-x="374" unicode="≥" d="M345 60h-316v30h316v-30zM345 324l-316 -158v36l275 132l-275 133v36l316 -158v-21z"/>
<glyph glyph-name="dotmath" horiz-adv-x="208" unicode="⋅" d="M137 245q0 -13 -9.5 -23t-23.5 -10t-23.5 10t-9.5 23t10 22.5t23 9.5t23 -9.5t10 -22.5z"/>
<glyph glyph-name="lozenge" horiz-adv-x="375" unicode="◊" d="M188 41l132 293l-133 292l-132 -292zM198 0h-21l-158 334l158 333h21l158 -333z"/>
<glyph glyph-name="diamond" horiz-adv-x="501" unicode="♦" d="M501 285l-251 -250l-250 250l250 251z"/>
</font>
</defs>
</svg>
